<svg viewBox="0 0 330 200" xmlns="http://www.w3.org/2000/svg"><g><g><g><g><g><line x1="50" y1="178" x2="45" y2="178" style="visibility: inherit;" fill="rgb(0, 0, 0)" stroke="rgb(204, 204, 204)" stroke-width="1px"></line><line x1="50" y1="158.22222222222226" x2="45" y2="158.22222222222226" style="visibility: inherit;" fill="rgb(0, 0, 0)" stroke="rgb(204, 204, 204)" stroke-width="1px"></line><line x1="50" y1="138.44444444444446" x2="45" y2="138.44444444444446" style="visibility: inherit;" fill="rgb(0, 0, 0)" stroke="rgb(204, 204, 204)" stroke-width="1px"></line><line x1="50" y1="118.6666666666667" x2="45" y2="118.6666666666667" style="visibility: inherit;" fill="rgb(0, 0, 0)" stroke="rgb(204, 204, 204)" stroke-width="1px"></line><line x1="50" y1="98.8888888888889" x2="45" y2="98.8888888888889" style="visibility: inherit;" fill="rgb(0, 0, 0)" stroke="rgb(204, 204, 204)" stroke-width="1px"></line><line x1="50" y1="79.1111111111111" x2="45" y2="79.1111111111111" style="visibility: inherit;" fill="rgb(0, 0, 0)" stroke="rgb(204, 204, 204)" stroke-width="1px"></line><line x1="50" y1="59.33333333333334" x2="45" y2="59.33333333333334" style="visibility: inherit;" fill="rgb(0, 0, 0)" stroke="rgb(204, 204, 204)" stroke-width="1px"></line><line x1="50" y1="39.55555555555554" x2="45" y2="39.55555555555554" style="visibility: inherit;" fill="rgb(0, 0, 0)" stroke="rgb(204, 204, 204)" stroke-width="1px"></line><line x1="50" y1="19.7777777777778" x2="45" y2="19.7777777777778" style="visibility: inherit;" fill="rgb(0, 0, 0)" stroke="rgb(204, 204, 204)" stroke-width="1px"></line><line x1="50" y1="0" x2="45" y2="0" style="visibility: inherit;" fill="rgb(0, 0, 0)" stroke="rgb(204, 204, 204)" stroke-width="1px"></line></g><g transform="translate(40, 0)"><text x="0" y="178" dx="0em" dy="0.3em" style="text-anchor: end; visibility: hidden; font-family: &quot;Helvetica Neue&quot;, sans-serif; font-size: 12px; font-weight: 200;" fill="rgb(50, 49, 63)" stroke="none" stroke-width="1px">0.55</text><text x="0" y="158.22222222222226" dx="0em" dy="0.3em" style="text-anchor: end; visibility: inherit; font-family: &quot;Helvetica Neue&quot;, sans-serif; font-size: 12px; font-weight: 200;" fill="rgb(50, 49, 63)" stroke="none" stroke-width="1px">0.6</text><text x="0" y="138.44444444444446" dx="0em" dy="0.3em" style="text-anchor: end; visibility: hidden; font-family: &quot;Helvetica Neue&quot;, sans-serif; font-size: 12px; font-weight: 200;" fill="rgb(50, 49, 63)" stroke="none" stroke-width="1px">0.65</text><text x="0" y="118.6666666666667" dx="0em" dy="0.3em" style="text-anchor: end; visibility: inherit; font-family: &quot;Helvetica Neue&quot;, sans-serif; font-size: 12px; font-weight: 200;" fill="rgb(50, 49, 63)" stroke="none" stroke-width="1px">0.7</text><text x="0" y="98.8888888888889" dx="0em" dy="0.3em" style="text-anchor: end; visibility: hidden; font-family: &quot;Helvetica Neue&quot;, sans-serif; font-size: 12px; font-weight: 200;" fill="rgb(50, 49, 63)" stroke="none" stroke-width="1px">0.75</text><text x="0" y="79.1111111111111" dx="0em" dy="0.3em" style="text-anchor: end; visibility: inherit; font-family: &quot;Helvetica Neue&quot;, sans-serif; font-size: 12px; font-weight: 200;" fill="rgb(50, 49, 63)" stroke="none" stroke-width="1px">0.8</text><text x="0" y="59.33333333333334" dx="0em" dy="0.3em" style="text-anchor: end; visibility: hidden; font-family: &quot;Helvetica Neue&quot;, sans-serif; font-size: 12px; font-weight: 200;" fill="rgb(50, 49, 63)" stroke="none" stroke-width="1px">0.85</text><text x="0" y="39.55555555555554" dx="0em" dy="0.3em" style="text-anchor: end; visibility: inherit; font-family: &quot;Helvetica Neue&quot;, sans-serif; font-size: 12px; font-weight: 200;" fill="rgb(50, 49, 63)" stroke="none" stroke-width="1px">0.9</text><text x="0" y="19.7777777777778" dx="0em" dy="0.3em" style="text-anchor: end; visibility: hidden; font-family: &quot;Helvetica Neue&quot;, sans-serif; font-size: 12px; font-weight: 200;" fill="rgb(50, 49, 63)" stroke="none" stroke-width="1px">0.95</text><text x="0" y="0" dx="0em" dy="0.3em" style="text-anchor: end; visibility: hidden; font-family: &quot;Helvetica Neue&quot;, sans-serif; font-size: 12px; font-weight: 200;" fill="rgb(50, 49, 63)" stroke="none" stroke-width="1px">1</text></g><line x1="50" y1="0" x2="50" y2="178" fill="rgb(0, 0, 0)" stroke="rgb(204, 204, 204)" stroke-width="1px"></line></g></g><g transform="translate(50, 0)" clip-path="url(#clip_0)"><clipPath id="clip_0"><rect width="280" height="178"></rect></clipPath><g><g><g><line x1="0" y1="0" x2="0" y2="178" fill="rgb(0, 0, 0)" stroke="rgb(60, 60, 60)" stroke-width="1px" opacity="0.25"></line><line x1="21.53846153846154" y1="0" x2="21.53846153846154" y2="178" fill="rgb(0, 0, 0)" stroke="rgb(60, 60, 60)" stroke-width="1px" opacity="0.25"></line><line x1="43.07692307692308" y1="0" x2="43.07692307692308" y2="178" fill="rgb(0, 0, 0)" stroke="rgb(60, 60, 60)" stroke-width="1px" opacity="0.25"></line><line x1="64.61538461538461" y1="0" x2="64.61538461538461" y2="178" fill="rgb(0, 0, 0)" stroke="rgb(60, 60, 60)" stroke-width="1px" opacity="0.25"></line><line x1="86.15384615384616" y1="0" x2="86.15384615384616" y2="178" fill="rgb(0, 0, 0)" stroke="rgb(60, 60, 60)" stroke-width="1px" opacity="0.25"></line><line x1="107.6923076923077" y1="0" x2="107.6923076923077" y2="178" fill="rgb(0, 0, 0)" stroke="rgb(60, 60, 60)" stroke-width="1px" opacity="0.25"></line><line x1="129.23076923076923" y1="0" x2="129.23076923076923" y2="178" fill="rgb(0, 0, 0)" stroke="rgb(60, 60, 60)" stroke-width="1px" opacity="0.25"></line><line x1="150.76923076923077" y1="0" x2="150.76923076923077" y2="178" fill="rgb(0, 0, 0)" stroke="rgb(60, 60, 60)" stroke-width="1px" opacity="0.25"></line><line x1="172.30769230769232" y1="0" x2="172.30769230769232" y2="178" fill="rgb(0, 0, 0)" stroke="rgb(60, 60, 60)" stroke-width="1px" opacity="0.25"></line><line x1="193.84615384615384" y1="0" x2="193.84615384615384" y2="178" fill="rgb(0, 0, 0)" stroke="rgb(60, 60, 60)" stroke-width="1px" opacity="0.25"></line><line x1="215.3846153846154" y1="0" x2="215.3846153846154" y2="178" fill="rgb(0, 0, 0)" stroke="rgb(60, 60, 60)" stroke-width="1px" opacity="0.25"></line><line x1="236.92307692307693" y1="0" x2="236.92307692307693" y2="178" fill="rgb(0, 0, 0)" stroke="rgb(60, 60, 60)" stroke-width="1px" opacity="0.25"></line><line x1="258.46153846153845" y1="0" x2="258.46153846153845" y2="178" fill="rgb(0, 0, 0)" stroke="rgb(60, 60, 60)" stroke-width="1px" opacity="0.25"></line><line x1="280" y1="0" x2="280" y2="178" fill="rgb(0, 0, 0)" stroke="rgb(60, 60, 60)" stroke-width="1px" opacity="0.25"></line></g><g><line x1="0" y1="178" x2="280" y2="178" fill="rgb(0, 0, 0)" stroke="rgb(60, 60, 60)" stroke-width="1px" opacity="0.25"></line><line x1="0" y1="158.22222222222226" x2="280" y2="158.22222222222226" fill="rgb(0, 0, 0)" stroke="rgb(60, 60, 60)" stroke-width="1px" opacity="0.25"></line><line x1="0" y1="138.44444444444446" x2="280" y2="138.44444444444446" fill="rgb(0, 0, 0)" stroke="rgb(60, 60, 60)" stroke-width="1px" opacity="0.25"></line><line x1="0" y1="118.6666666666667" x2="280" y2="118.6666666666667" fill="rgb(0, 0, 0)" stroke="rgb(60, 60, 60)" stroke-width="1px" opacity="0.25"></line><line x1="0" y1="98.8888888888889" x2="280" y2="98.8888888888889" fill="rgb(0, 0, 0)" stroke="rgb(60, 60, 60)" stroke-width="1px" opacity="0.25"></line><line x1="0" y1="79.1111111111111" x2="280" y2="79.1111111111111" fill="rgb(0, 0, 0)" stroke="rgb(60, 60, 60)" stroke-width="1px" opacity="0.25"></line><line x1="0" y1="59.33333333333334" x2="280" y2="59.33333333333334" fill="rgb(0, 0, 0)" stroke="rgb(60, 60, 60)" stroke-width="1px" opacity="0.25"></line><line x1="0" y1="39.55555555555554" x2="280" y2="39.55555555555554" fill="rgb(0, 0, 0)" stroke="rgb(60, 60, 60)" stroke-width="1px" opacity="0.25"></line><line x1="0" y1="19.7777777777778" x2="280" y2="19.7777777777778" fill="rgb(0, 0, 0)" stroke="rgb(60, 60, 60)" stroke-width="1px" opacity="0.25"></line><line x1="0" y1="0" x2="280" y2="0" fill="rgb(0, 0, 0)" stroke="rgb(60, 60, 60)" stroke-width="1px" opacity="0.25"></line></g></g></g><g><g><line x1="0" y1="395.5555555555556" x2="280" y2="395.5555555555556" fill="rgb(0, 0, 0)" stroke="rgb(153, 153, 153)" stroke-width="1.5px"></line></g></g><g><g><line x1="21.53846153846154" y1="0" x2="21.53846153846154" y2="178" fill="rgb(0, 0, 0)" stroke="rgb(153, 153, 153)" stroke-width="1.5px"></line></g></g><g><g><g><g><g><path stroke="rgb(0, 119, 187)" stroke-width="2px" d="M53.84615384615385,182.22632123414292L56,175.46466542318L57.07692307692307,169.32794548395134L59.23076923076923,164.63586255038638L61.38461538461539,159.5000269781584L63.53846153846154,155.04789123366228L65.6923076923077,151.45454742604915L67.84615384615384,147.08218582573966L68.92307692307693,142.6623587180354L71.07692307692307,139.49192315200352L73.23076923076924,135.73977345912772L75.38461538461539,132.4703876812262L77.53846153846155,130.02744728735513L79.6923076923077,126.94980366350765L80.76923076923076,123.87208341346297L82.92307692307692,121.51741767225275L85.07692307692307,118.84896932141079L87.23076923076923,116.46767294121787L89.38461538461537,114.85553666526285L91.53846153846153,112.47292272079386L92.61538461538461,110.03590105932285L94.76923076923077,108.36206087245729L96.92307692307692,106.44823671959155L99.07692307692308,104.74963002026277L101.23076923076923,103.56701645498045L103.38461538461539,101.68932150033284L104.46153846153847,99.70603147873454L106.61538461538461,98.47133161531421L108.76923076923077,96.92329527869794L110.92307692307692,95.53679306391948L113.07692307692308,94.69734056197396L115.23076923076923,93.17277842036945L116.30769230769232,91.58067751836278L118.46153846153847,90.64605745224264L120.61538461538463,89.41079712048844L122.76923076923077,88.22112182666568L124.92307692307693,87.6018801501879L127.07692307692308,86.34414800344302L128.15384615384616,85.02354832162804L130.30769230769232,84.16346524993308L132.46153846153845,83.18519768394358L134.6153846153846,82.21939206535735L136.76923076923077,81.81443202030945L138.92307692307693,80.75839002454758L140,79.5420763865049L142.15384615384613,78.80444868482527L144.3076923076923,78.0668896809192L146.46153846153848,77.29447109896934L148.6153846153846,76.94019885654627L150.76923076923077,75.961978714148L151.84615384615384,74.90830556023187L154,74.28204183786711L156.15384615384616,73.7360669363222L158.3076923076923,73.0779977531287L160.46153846153845,72.86010520042994L162.61538461538464,72.0210569080857L163.6923076923077,71.06671083536054L165.84615384615384,70.61385291441218L168,70.14737558731679L170.15384615384613,69.60019393422468L172.30769230769232,69.46582254645291L174.46153846153845,68.71352882986118L175.53846153846155,67.82613228541145L177.69230769230768,67.43163952108179L179.84615384615387,67.05447235068591L182,66.61002830844976L184.15384615384616,66.58666231702354L186.3076923076923,65.91246097587266L187.38461538461536,65.15070414144297L189.53846153846155,64.83880167936056L191.6923076923077,64.50708128584174L193.84615384615384,64.1231344708023L196,64.15455813274332L198.15384615384616,63.586984297576564L199.23076923076923,62.87790481379457L201.3846153846154,62.64657291483637L203.53846153846152,62.375463923300586L205.6923076923077,62.00013541473298L207.84615384615387,62.12009300377912L210,61.541336571050905L211.07692307692307,60.87164439599246L213.23076923076923,60.67559134863201L215.3846153846154,60.487840932748014L217.53846153846155,60.0939454721549L219.69230769230768,60.243333836751674L221.84615384615384,59.777854540575504L222.9230769230769,59.184046191244434L225.0769230769231,59.02595641509511L227.23076923076923,58.825253538687775L229.3846153846154,58.386802350609614L231.53846153846152,58.57368897491153L233.6923076923077,58.12969044145652L234.76923076923077,57.60595588697983L236.92307692307693,57.48091466763064L239.07692307692307,57.29560210365263L241.23076923076925,56.92161107098248L243.3846153846154,57.16863023089947L245.53846153846155,56.76745625429828L246.6153846153846,56.268551818851705L248.76923076923075,56.199054046893835L250.92307692307693,56.05075110102369L253.07692307692307,55.67993302974578L255.23076923076923,55.96139577590728L257.38461538461536,55.56182909522951" style="fill: none;" fill="none"></path></g></g></g></g><g opacity="0.2"><g><g><g><path stroke="rgb(0, 119, 187)" stroke-width="2px" d="M35.53846153846153,192.6355510287815L37.69230769230769,155.84888643688626L39.84615384615385,160.59556272294788L42,153.47556008232965L44.15384615384615,115.89777098761665L45.23076923076923,122.62222316530017L47.38461538461539,128.9511013031006L49.53846153846154,111.15111827850343L51.69230769230769,114.71111959881254L53.84615384615385,115.89777098761665L56,94.93333710564508L57.07692307692307,93.35111167695788L59.23076923076923,104.42666610081992L61.38461538461539,91.37333578533597L63.53846153846154,94.14221260282729L65.6923076923077,100.8666647805108L67.84615384615384,83.85778268178305L68.92307692307693,77.13333050409955L71.07692307692307,91.37333578533597L73.23076923076924,77.52888096703424L75.38461538461539,80.69333182440865L77.53846153846155,90.58221128251819L79.6923076923077,76.34222957823012L80.76923076923076,72.38667779498631L82.92307692307692,81.48443275027806L85.07692307692307,72.782228257921L87.23076923076923,74.76000414954292L89.38461538461537,86.23110903633966L91.53846153846153,69.61777740054661L92.61538461538461,65.6622256173028L94.76923076923077,77.52888096703424L96.92307692307692,70.80445236629912L99.07692307692308,72.782228257921L101.23076923076923,81.08888228734335L103.38461538461539,65.6622256173028L104.46153846153847,61.31109979417589L106.61538461538461,74.36445368660821L108.76923076923077,66.45332654317221L110.92307692307692,68.03555197185942L113.07692307692308,77.92445500691733L115.23076923076923,62.497774759928404L116.30769230769232,59.333323902554L118.46153846153847,71.59555329216852L120.61538461538463,64.08000018861559L122.76923076923077,63.68444972568089L124.92307692307693,74.76000414954292L127.07692307692308,60.12444840537178L128.15384615384616,57.35554801093208L130.30769230769232,66.0577760802375L132.46153846153845,62.497774759928404L134.6153846153846,61.706673834058975L136.76923076923077,73.17777872085571L138.92307692307693,58.14667251374986L140,53.39999622768825L142.15384615384613,62.8933252228631L144.3076923076923,62.1022242969937L146.46153846153848,60.51999886830649L148.6153846153846,69.22222693761191L150.76923076923077,54.586671193440765L151.84615384615384,51.81777079900107L154,60.51999886830649L156.15384615384616,61.706673834058975L158.3076923076923,58.54222297668457L160.46153846153845,68.03555197185942L162.61538461538464,53.39999622768825L163.6923076923077,49.83999490737915L165.84615384615384,60.51999886830649L168,59.72889794243707L170.15384615384613,57.35554801093208L172.30769230769232,66.45332654317221L174.46153846153845,51.81777079900107L175.53846153846155,47.86221901575726L177.69230769230768,58.54222297668457L179.84615384615387,58.54222297668457L182,56.56444708506268L184.15384615384616,66.0577760802375L186.3076923076923,50.63111941019696L187.38461538461536,47.86221901575726L189.53846153846155,57.75112205081517L191.6923076923077,56.959997547997375L193.84615384615384,55.377772119310166L196,64.871101114485L198.15384615384616,50.63111941019696L199.23076923076923,46.67554405000476L201.3846153846154,57.35554801093208L203.53846153846152,56.168896622127974L205.6923076923077,53.39999622768825L207.84615384615387,64.871101114485L210,48.257769478691955L211.07692307692307,45.48889266120065L213.23076923076923,56.168896622127974L215.3846153846154,56.168896622127974L217.53846153846155,51.02666987313165L219.69230769230768,63.68444972568089L221.84615384615384,49.048893981509735L222.9230769230769,45.48889266120065L225.0769230769231,55.377772119310166L227.23076923076923,54.19112073050606L229.3846153846154,48.257769478691955L231.53846153846152,62.8933252228631L233.6923076923077,47.86221901575726L234.76923076923077,45.48889266120065L236.92307692307693,54.586671193440765L239.07692307692307,53.004445764753555L241.23076923076925,48.257769478691955L243.3846153846154,62.8933252228631L245.53846153846155,47.46666855282254L246.6153846153846,44.69776815838284L248.76923076923075,54.586671193440765L250.92307692307693,52.60889530181885L253.07692307692307,47.07111808988782L255.23076923076923,62.497774759928404L257.38461538461536,46.27999358707004" style="fill: none;" fill="none"></path></g></g></g></g></g></g><g transform="translate(50, 178)" clip-path="url(#clip_1)"><clipPath id="clip_1"><rect width="280" height="22"></rect></clipPath><g><g><line x1="0" y1="0" x2="0" y2="5" style="visibility: inherit;" fill="rgb(0, 0, 0)" stroke="rgb(204, 204, 204)" stroke-width="1px"></line><line x1="21.53846153846154" y1="0" x2="21.53846153846154" y2="5" style="visibility: inherit;" fill="rgb(0, 0, 0)" stroke="rgb(204, 204, 204)" stroke-width="1px"></line><line x1="43.07692307692308" y1="0" x2="43.07692307692308" y2="5" style="visibility: inherit;" fill="rgb(0, 0, 0)" stroke="rgb(204, 204, 204)" stroke-width="1px"></line><line x1="64.61538461538461" y1="0" x2="64.61538461538461" y2="5" style="visibility: inherit;" fill="rgb(0, 0, 0)" stroke="rgb(204, 204, 204)" stroke-width="1px"></line><line x1="86.15384615384616" y1="0" x2="86.15384615384616" y2="5" style="visibility: inherit;" fill="rgb(0, 0, 0)" stroke="rgb(204, 204, 204)" stroke-width="1px"></line><line x1="107.6923076923077" y1="0" x2="107.6923076923077" y2="5" style="visibility: inherit;" fill="rgb(0, 0, 0)" stroke="rgb(204, 204, 204)" stroke-width="1px"></line><line x1="129.23076923076923" y1="0" x2="129.23076923076923" y2="5" style="visibility: inherit;" fill="rgb(0, 0, 0)" stroke="rgb(204, 204, 204)" stroke-width="1px"></line><line x1="150.76923076923077" y1="0" x2="150.76923076923077" y2="5" style="visibility: inherit;" fill="rgb(0, 0, 0)" stroke="rgb(204, 204, 204)" stroke-width="1px"></line><line x1="172.30769230769232" y1="0" x2="172.30769230769232" y2="5" style="visibility: inherit;" fill="rgb(0, 0, 0)" stroke="rgb(204, 204, 204)" stroke-width="1px"></line><line x1="193.84615384615384" y1="0" x2="193.84615384615384" y2="5" style="visibility: inherit;" fill="rgb(0, 0, 0)" stroke="rgb(204, 204, 204)" stroke-width="1px"></line><line x1="215.3846153846154" y1="0" x2="215.3846153846154" y2="5" style="visibility: inherit;" fill="rgb(0, 0, 0)" stroke="rgb(204, 204, 204)" stroke-width="1px"></line><line x1="236.92307692307693" y1="0" x2="236.92307692307693" y2="5" style="visibility: inherit;" fill="rgb(0, 0, 0)" stroke="rgb(204, 204, 204)" stroke-width="1px"></line><line x1="258.46153846153845" y1="0" x2="258.46153846153845" y2="5" style="visibility: inherit;" fill="rgb(0, 0, 0)" stroke="rgb(204, 204, 204)" stroke-width="1px"></line><line x1="280" y1="0" x2="280" y2="5" style="visibility: inherit;" fill="rgb(0, 0, 0)" stroke="rgb(204, 204, 204)" stroke-width="1px"></line></g><g transform="translate(0, 8)"><text x="0" y="0" dx="0em" dy="0.95em" style="text-anchor: middle; visibility: hidden; font-family: &quot;Helvetica Neue&quot;, sans-serif; font-size: 12px; font-weight: 200;" fill="rgb(50, 49, 63)" stroke="none" stroke-width="1px">-100</text><text x="21.53846153846154" y="0" dx="0em" dy="0.95em" style="text-anchor: middle; visibility: inherit; font-family: &quot;Helvetica Neue&quot;, sans-serif; font-size: 12px; font-weight: 200;" fill="rgb(50, 49, 63)" stroke="none" stroke-width="1px">0</text><text x="43.07692307692308" y="0" dx="0em" dy="0.95em" style="text-anchor: middle; visibility: hidden; font-family: &quot;Helvetica Neue&quot;, sans-serif; font-size: 12px; font-weight: 200;" fill="rgb(50, 49, 63)" stroke="none" stroke-width="1px">100</text><text x="64.61538461538461" y="0" dx="0em" dy="0.95em" style="text-anchor: middle; visibility: inherit; font-family: &quot;Helvetica Neue&quot;, sans-serif; font-size: 12px; font-weight: 200;" fill="rgb(50, 49, 63)" stroke="none" stroke-width="1px">200</text><text x="86.15384615384616" y="0" dx="0em" dy="0.95em" style="text-anchor: middle; visibility: hidden; font-family: &quot;Helvetica Neue&quot;, sans-serif; font-size: 12px; font-weight: 200;" fill="rgb(50, 49, 63)" stroke="none" stroke-width="1px">300</text><text x="107.6923076923077" y="0" dx="0em" dy="0.95em" style="text-anchor: middle; visibility: inherit; font-family: &quot;Helvetica Neue&quot;, sans-serif; font-size: 12px; font-weight: 200;" fill="rgb(50, 49, 63)" stroke="none" stroke-width="1px">400</text><text x="129.23076923076923" y="0" dx="0em" dy="0.95em" style="text-anchor: middle; visibility: hidden; font-family: &quot;Helvetica Neue&quot;, sans-serif; font-size: 12px; font-weight: 200;" fill="rgb(50, 49, 63)" stroke="none" stroke-width="1px">500</text><text x="150.76923076923077" y="0" dx="0em" dy="0.95em" style="text-anchor: middle; visibility: inherit; font-family: &quot;Helvetica Neue&quot;, sans-serif; font-size: 12px; font-weight: 200;" fill="rgb(50, 49, 63)" stroke="none" stroke-width="1px">600</text><text x="172.30769230769232" y="0" dx="0em" dy="0.95em" style="text-anchor: middle; visibility: hidden; font-family: &quot;Helvetica Neue&quot;, sans-serif; font-size: 12px; font-weight: 200;" fill="rgb(50, 49, 63)" stroke="none" stroke-width="1px">700</text><text x="193.84615384615384" y="0" dx="0em" dy="0.95em" style="text-anchor: middle; visibility: inherit; font-family: &quot;Helvetica Neue&quot;, sans-serif; font-size: 12px; font-weight: 200;" fill="rgb(50, 49, 63)" stroke="none" stroke-width="1px">800</text><text x="215.3846153846154" y="0" dx="0em" dy="0.95em" style="text-anchor: middle; visibility: hidden; font-family: &quot;Helvetica Neue&quot;, sans-serif; font-size: 12px; font-weight: 200;" fill="rgb(50, 49, 63)" stroke="none" stroke-width="1px">900</text><text x="236.92307692307693" y="0" dx="0em" dy="0.95em" style="text-anchor: middle; visibility: inherit; font-family: &quot;Helvetica Neue&quot;, sans-serif; font-size: 12px; font-weight: 200;" fill="rgb(50, 49, 63)" stroke="none" stroke-width="1px">1k</text><text x="258.46153846153845" y="0" dx="0em" dy="0.95em" style="text-anchor: middle; visibility: hidden; font-family: &quot;Helvetica Neue&quot;, sans-serif; font-size: 12px; font-weight: 200;" fill="rgb(50, 49, 63)" stroke="none" stroke-width="1px">1.1k</text><text x="280" y="0" dx="0em" dy="0.95em" style="text-anchor: middle; visibility: hidden; font-family: &quot;Helvetica Neue&quot;, sans-serif; font-size: 12px; font-weight: 200;" fill="rgb(50, 49, 63)" stroke="none" stroke-width="1px">1.2k</text></g><line x1="0" y1="0" x2="280" y2="0" fill="rgb(0, 0, 0)" stroke="rgb(204, 204, 204)" stroke-width="1px"></line></g></g></g></g></svg>