<svg viewBox="0 0 330 200" xmlns="http://www.w3.org/2000/svg"><g><g><g><g><g><line x1="50" y1="178" x2="45" y2="178" style="visibility: inherit;" fill="rgb(0, 0, 0)" stroke="rgb(204, 204, 204)" stroke-width="1px"></line><line x1="50" y1="160.2" x2="45" y2="160.2" style="visibility: inherit;" fill="rgb(0, 0, 0)" stroke="rgb(204, 204, 204)" stroke-width="1px"></line><line x1="50" y1="142.4" x2="45" y2="142.4" style="visibility: inherit;" fill="rgb(0, 0, 0)" stroke="rgb(204, 204, 204)" stroke-width="1px"></line><line x1="50" y1="124.6" x2="45" y2="124.6" style="visibility: inherit;" fill="rgb(0, 0, 0)" stroke="rgb(204, 204, 204)" stroke-width="1px"></line><line x1="50" y1="106.8" x2="45" y2="106.8" style="visibility: inherit;" fill="rgb(0, 0, 0)" stroke="rgb(204, 204, 204)" stroke-width="1px"></line><line x1="50" y1="89" x2="45" y2="89" style="visibility: inherit;" fill="rgb(0, 0, 0)" stroke="rgb(204, 204, 204)" stroke-width="1px"></line><line x1="50" y1="71.2" x2="45" y2="71.2" style="visibility: inherit;" fill="rgb(0, 0, 0)" stroke="rgb(204, 204, 204)" stroke-width="1px"></line><line x1="50" y1="53.400000000000006" x2="45" y2="53.400000000000006" style="visibility: inherit;" fill="rgb(0, 0, 0)" stroke="rgb(204, 204, 204)" stroke-width="1px"></line><line x1="50" y1="35.599999999999994" x2="45" y2="35.599999999999994" style="visibility: inherit;" fill="rgb(0, 0, 0)" stroke="rgb(204, 204, 204)" stroke-width="1px"></line><line x1="50" y1="17.799999999999983" x2="45" y2="17.799999999999983" style="visibility: inherit;" fill="rgb(0, 0, 0)" stroke="rgb(204, 204, 204)" stroke-width="1px"></line><line x1="50" y1="0" x2="45" y2="0" style="visibility: inherit;" fill="rgb(0, 0, 0)" stroke="rgb(204, 204, 204)" stroke-width="1px"></line></g><g transform="translate(40, 0)"><text x="0" y="178" dx="0em" dy="0.3em" style="text-anchor: end; visibility: hidden; font-family: &quot;Helvetica Neue&quot;, sans-serif; font-size: 12px; font-weight: 200;" fill="rgb(50, 49, 63)" stroke="none" stroke-width="1px">-0.5</text><text x="0" y="160.2" dx="0em" dy="0.3em" style="text-anchor: end; visibility: inherit; font-family: &quot;Helvetica Neue&quot;, sans-serif; font-size: 12px; font-weight: 200;" fill="rgb(50, 49, 63)" stroke="none" stroke-width="1px">0</text><text x="0" y="142.4" dx="0em" dy="0.3em" style="text-anchor: end; visibility: hidden; font-family: &quot;Helvetica Neue&quot;, sans-serif; font-size: 12px; font-weight: 200;" fill="rgb(50, 49, 63)" stroke="none" stroke-width="1px">0.5</text><text x="0" y="124.6" dx="0em" dy="0.3em" style="text-anchor: end; visibility: inherit; font-family: &quot;Helvetica Neue&quot;, sans-serif; font-size: 12px; font-weight: 200;" fill="rgb(50, 49, 63)" stroke="none" stroke-width="1px">1</text><text x="0" y="106.8" dx="0em" dy="0.3em" style="text-anchor: end; visibility: hidden; font-family: &quot;Helvetica Neue&quot;, sans-serif; font-size: 12px; font-weight: 200;" fill="rgb(50, 49, 63)" stroke="none" stroke-width="1px">1.5</text><text x="0" y="89" dx="0em" dy="0.3em" style="text-anchor: end; visibility: inherit; font-family: &quot;Helvetica Neue&quot;, sans-serif; font-size: 12px; font-weight: 200;" fill="rgb(50, 49, 63)" stroke="none" stroke-width="1px">2</text><text x="0" y="71.2" dx="0em" dy="0.3em" style="text-anchor: end; visibility: hidden; font-family: &quot;Helvetica Neue&quot;, sans-serif; font-size: 12px; font-weight: 200;" fill="rgb(50, 49, 63)" stroke="none" stroke-width="1px">2.5</text><text x="0" y="53.400000000000006" dx="0em" dy="0.3em" style="text-anchor: end; visibility: inherit; font-family: &quot;Helvetica Neue&quot;, sans-serif; font-size: 12px; font-weight: 200;" fill="rgb(50, 49, 63)" stroke="none" stroke-width="1px">3</text><text x="0" y="35.599999999999994" dx="0em" dy="0.3em" style="text-anchor: end; visibility: hidden; font-family: &quot;Helvetica Neue&quot;, sans-serif; font-size: 12px; font-weight: 200;" fill="rgb(50, 49, 63)" stroke="none" stroke-width="1px">3.5</text><text x="0" y="17.799999999999983" dx="0em" dy="0.3em" style="text-anchor: end; visibility: inherit; font-family: &quot;Helvetica Neue&quot;, sans-serif; font-size: 12px; font-weight: 200;" fill="rgb(50, 49, 63)" stroke="none" stroke-width="1px">4</text><text x="0" y="0" dx="0em" dy="0.3em" style="text-anchor: end; visibility: hidden; font-family: &quot;Helvetica Neue&quot;, sans-serif; font-size: 12px; font-weight: 200;" fill="rgb(50, 49, 63)" stroke="none" stroke-width="1px">4.5</text></g><line x1="50" y1="0" x2="50" y2="178" fill="rgb(0, 0, 0)" stroke="rgb(204, 204, 204)" stroke-width="1px"></line></g></g><g transform="translate(50, 0)" clip-path="url(#clip_0)"><clipPath id="clip_0"><rect width="280" height="178"></rect></clipPath><g><g><g><line x1="0" y1="0" x2="0" y2="178" fill="rgb(0, 0, 0)" stroke="rgb(60, 60, 60)" stroke-width="1px" opacity="0.25"></line><line x1="21.53846153846154" y1="0" x2="21.53846153846154" y2="178" fill="rgb(0, 0, 0)" stroke="rgb(60, 60, 60)" stroke-width="1px" opacity="0.25"></line><line x1="43.07692307692308" y1="0" x2="43.07692307692308" y2="178" fill="rgb(0, 0, 0)" stroke="rgb(60, 60, 60)" stroke-width="1px" opacity="0.25"></line><line x1="64.61538461538461" y1="0" x2="64.61538461538461" y2="178" fill="rgb(0, 0, 0)" stroke="rgb(60, 60, 60)" stroke-width="1px" opacity="0.25"></line><line x1="86.15384615384616" y1="0" x2="86.15384615384616" y2="178" fill="rgb(0, 0, 0)" stroke="rgb(60, 60, 60)" stroke-width="1px" opacity="0.25"></line><line x1="107.6923076923077" y1="0" x2="107.6923076923077" y2="178" fill="rgb(0, 0, 0)" stroke="rgb(60, 60, 60)" stroke-width="1px" opacity="0.25"></line><line x1="129.23076923076923" y1="0" x2="129.23076923076923" y2="178" fill="rgb(0, 0, 0)" stroke="rgb(60, 60, 60)" stroke-width="1px" opacity="0.25"></line><line x1="150.76923076923077" y1="0" x2="150.76923076923077" y2="178" fill="rgb(0, 0, 0)" stroke="rgb(60, 60, 60)" stroke-width="1px" opacity="0.25"></line><line x1="172.30769230769232" y1="0" x2="172.30769230769232" y2="178" fill="rgb(0, 0, 0)" stroke="rgb(60, 60, 60)" stroke-width="1px" opacity="0.25"></line><line x1="193.84615384615384" y1="0" x2="193.84615384615384" y2="178" fill="rgb(0, 0, 0)" stroke="rgb(60, 60, 60)" stroke-width="1px" opacity="0.25"></line><line x1="215.3846153846154" y1="0" x2="215.3846153846154" y2="178" fill="rgb(0, 0, 0)" stroke="rgb(60, 60, 60)" stroke-width="1px" opacity="0.25"></line><line x1="236.92307692307693" y1="0" x2="236.92307692307693" y2="178" fill="rgb(0, 0, 0)" stroke="rgb(60, 60, 60)" stroke-width="1px" opacity="0.25"></line><line x1="258.46153846153845" y1="0" x2="258.46153846153845" y2="178" fill="rgb(0, 0, 0)" stroke="rgb(60, 60, 60)" stroke-width="1px" opacity="0.25"></line><line x1="280" y1="0" x2="280" y2="178" fill="rgb(0, 0, 0)" stroke="rgb(60, 60, 60)" stroke-width="1px" opacity="0.25"></line></g><g><line x1="0" y1="178" x2="280" y2="178" fill="rgb(0, 0, 0)" stroke="rgb(60, 60, 60)" stroke-width="1px" opacity="0.25"></line><line x1="0" y1="160.2" x2="280" y2="160.2" fill="rgb(0, 0, 0)" stroke="rgb(60, 60, 60)" stroke-width="1px" opacity="0.25"></line><line x1="0" y1="142.4" x2="280" y2="142.4" fill="rgb(0, 0, 0)" stroke="rgb(60, 60, 60)" stroke-width="1px" opacity="0.25"></line><line x1="0" y1="124.6" x2="280" y2="124.6" fill="rgb(0, 0, 0)" stroke="rgb(60, 60, 60)" stroke-width="1px" opacity="0.25"></line><line x1="0" y1="106.8" x2="280" y2="106.8" fill="rgb(0, 0, 0)" stroke="rgb(60, 60, 60)" stroke-width="1px" opacity="0.25"></line><line x1="0" y1="89" x2="280" y2="89" fill="rgb(0, 0, 0)" stroke="rgb(60, 60, 60)" stroke-width="1px" opacity="0.25"></line><line x1="0" y1="71.2" x2="280" y2="71.2" fill="rgb(0, 0, 0)" stroke="rgb(60, 60, 60)" stroke-width="1px" opacity="0.25"></line><line x1="0" y1="53.400000000000006" x2="280" y2="53.400000000000006" fill="rgb(0, 0, 0)" stroke="rgb(60, 60, 60)" stroke-width="1px" opacity="0.25"></line><line x1="0" y1="35.599999999999994" x2="280" y2="35.599999999999994" fill="rgb(0, 0, 0)" stroke="rgb(60, 60, 60)" stroke-width="1px" opacity="0.25"></line><line x1="0" y1="17.799999999999983" x2="280" y2="17.799999999999983" fill="rgb(0, 0, 0)" stroke="rgb(60, 60, 60)" stroke-width="1px" opacity="0.25"></line><line x1="0" y1="0" x2="280" y2="0" fill="rgb(0, 0, 0)" stroke="rgb(60, 60, 60)" stroke-width="1px" opacity="0.25"></line></g></g></g><g><g><line x1="0" y1="160.2" x2="280" y2="160.2" fill="rgb(0, 0, 0)" stroke="rgb(153, 153, 153)" stroke-width="1.5px"></line></g></g><g><g><line x1="21.53846153846154" y1="0" x2="21.53846153846154" y2="178" fill="rgb(0, 0, 0)" stroke="rgb(153, 153, 153)" stroke-width="1.5px"></line></g></g><g><g><g><g><g><path stroke="rgb(0, 119, 187)" stroke-width="2px" d="M32.84615384615385,-5.919296370962769L33.38461538461539,4.806996796225803L34.46153846153847,13.689792790355597L35.53846153846153,21.96295222796485L36.61538461538462,29.480146681924424L37.69230769230769,35.65934213252271L38.769230769230774,42.07011162905229L39.30769230769231,47.7496941432282L40.38461538461538,52.52931503248284L41.46153846153846,57.13743044113606L42.53846153846153,61.56162840430484L43.61538461538461,65.09157850876537L44.692307692307686,68.95532263769329L45.23076923076923,72.46762233310523L46.30769230769231,75.43322879756667L47.38461538461539,78.37356822232734L48.46153846153846,81.2878755439026L49.53846153846154,83.5265282214621L50.61538461538461,86.11355775492618L51.15384615384615,88.47767248466151L52.23076923076923,90.47877217442776L53.30769230769231,92.52605690394789L54.38461538461539,94.58600454275927L55.46153846153846,96.08760845144849L56.53846153846154,97.93047202086714L57.07692307692307,99.62187835237513L58.15384615384616,101.04110268473029L59.23076923076923,102.52329081198435L60.307692307692314,104.06903973325362L61.38461538461539,105.12902001200446L62.46153846153847,106.49540605446391L63,107.76436570722369L64.07692307692308,108.81315160557494L65.15384615384616,109.95593992437097L66.23076923076923,111.15407371399044L67.3076923076923,111.92519775320153L68.38461538461539,112.97907734934638L68.92307692307693,113.96318828407502L70,114.76024398373225L71.07692307692307,115.65803863509038L72.15384615384615,116.62604578926755L73.23076923076924,117.18163545425023L74.3076923076923,118.01895451883966L74.84615384615384,118.79902078007075L75.92307692307692,119.41954655963295L77,120.14507605151411L78.07692307692308,120.93361944761371L79.15384615384615,121.33036883911835L80.23076923076923,122.00152396607129L80.76923076923076,122.62834005964245L81.84615384615385,123.11583351832576L82.92307692307692,123.70560991787812L84,124.37144491583075L85.07692307692307,124.66748778956631L86.15384615384616,125.21576523205422L86.6923076923077,125.7285884895463L87.76923076923077,126.11652510292797L88.84615384615384,126.61222133021695L89.92307692307693,127.17522755954482L91,127.39187028012503L92.07692307692308,127.85252066420165L92.61538461538461,128.27589267953329L93.69230769230768,128.57930421148768L94.76923076923077,128.99680442643324L95.84615384615385,129.48257810387787L96.92307692307692,129.62415525952105L98,130.01155759063928L98.53846153846155,130.3650492847667L99.61538461538461,130.61316968415736L100.6923076923077,130.97173349277318L101.76923076923076,131.39881552373922L102.84615384615385,131.4924902525477L103.92307692307693,131.8169423218664L104.46153846153847,132.11600369857945L105.53846153846153,132.31485322539552L106.61538461538461,132.6294593000994L107.6923076923077,133.00990477686497L108.76923076923077,133.0695083762224L109.84615384615384,133.35183206022836L110.38461538461539,133.6100775128645L111.46153846153845,133.7745003446238L112.53846153846155,134.0560155631066L113.61538461538461,134.40161614528685L114.6923076923077,134.42013077082777L115.76923076923076,134.66422783559233L116.30769230769232,134.88252545445732L117.38461538461539,135.01485264136497L118.46153846153847,135.2617491657474L119.53846153846153,135.57176790865353L120.61538461538463,135.5678902768658L121.6923076923077,135.7795494969951L122.23076923076923,135.97109591042647L123.3076923076923,136.0789727329753L124.38461538461537,136.29923274183548L125.46153846153847,136.5858501010889L126.53846153846153,136.56441268614162L127.61538461538461,136.7543989153788L128.15384615384616,136.92221098383183L129.23076923076923,137.01077426462723L130.30769230769232,137.21479345292647L131.3846153846154,137.4805297428377L132.46153846153845,137.44138495891826L133.53846153846155,137.6095723694823L134.0769230769231,137.7529226162771L135.15384615384616,137.8181369586066L136.23076923076923,137.99979959382603L137.3076923076923,138.2425745880446L138.3846153846154,138.18470605775082L139.46153846153845,138.3346378585694" style="fill: none;" fill="none"></path></g></g></g></g><g opacity="0.2"><g><g><g><path stroke="rgb(0, 119, 187)" stroke-width="2px" d="M24.76923076923077,-43.99279193878175L25.846153846153847,14.538702583312983L26.923076923076923,49.955351257324224L27.46153846153846,53.41356334686279L28.538461538461537,62.45762510299683L29.615384615384617,80.34269733428955L30.692307692307693,84.47323722839356L31.76923076923077,87.22163133621216L32.84615384615385,104.29905633926391L33.38461538461539,103.88505172729492L34.46153846153847,100.89414701461793L35.53846153846153,107.78633456230163L36.61538461538462,111.47312469482422L37.69230769230769,106.22073559761047L38.769230769230774,118.42238354682922L39.30769230769231,118.06685070991516L40.38461538461538,113.86180577278138L41.46153846153846,118.26393089294433L42.53846153846153,122.0851152896881L43.61538461538461,114.78699069023132L44.692307692307686,124.82511081695557L45.23076923076923,124.54151124954224L46.30769230769231,120.44306759834289L47.38461538461539,123.99002709388733L48.46153846153846,127.44157633781433L49.53846153846154,119.67320761680602L50.61538461538461,128.65366466045379L51.15384615384615,128.02558324337005L52.23076923076923,124.50058355331421L53.30769230769231,127.8693437576294L54.38461538461539,130.66534962654114L55.46153846153846,122.74946889877319L56.53846153846154,131.07733840942382L57.07692307692307,130.41927206516266L58.15384615384616,127.18409979343414L59.23076923076923,130.12812268733978L60.307692307692314,133.15969197750093L61.38461538461539,125.27624275684357L62.46153846153847,132.71208243370057L63,132.330424451828L64.07692307692308,129.29015526771545L65.15384615384616,132.4494199037552L66.23076923076923,134.91903121471404L67.3076923076923,127.33282978534699L68.38461538461539,134.18369708061218L68.92307692307693,133.89595339298248L70,131.00675256252288L71.07692307692307,134.06861445903778L72.15384615384615,136.5908834695816L73.23076923076924,128.70349171161652L74.3076923076923,135.47438364028932L74.84615384615384,135.14225776195525L75.92307692307692,132.48229277133942L77,135.48784725666047L78.07692307692308,137.6814703464508L79.15384615384615,129.79191210269929L80.23076923076923,136.37213630676268L80.76923076923076,136.10042164325714L81.84615384615385,133.63139386177062L82.92307692307692,136.47148060798645L84,138.83126106262208L85.07692307692307,131.1169080734253L86.15384615384616,137.19629848003387L86.6923076923077,136.9667634487152L87.76923076923077,134.64136879444123L88.84615384615384,137.53383102416993L89.92307692307693,139.6112023115158L91,132.1887498617172L92.07692307692308,138.07576863765718L92.61538461538461,137.69259984493254L93.69230769230768,135.34211342334748L94.76923076923077,138.3214090824127L95.84615384615385,140.35305712223052L96.92307692307692,132.79819865226744L98,138.7122231721878L98.53846153846155,138.3176129579544L99.61538461538461,136.20426230430604L100.6923076923077,139.06412539482116L101.76923076923076,141.05197052955629L102.84615384615385,133.61280579566954L103.92307692307693,139.17092189788818L104.46153846153847,138.90336408615113L105.53846153846153,136.83351502418517L106.61538461538461,139.78716933727264L107.6923076923077,141.67551527023315L108.76923076923077,134.4286288022995L109.84615384615384,139.79636363983155L110.38461538461539,139.51094770431519L111.46153846153845,137.53518056869507L112.53846153846155,140.50081527233124L113.61538461538461,142.32058057785034L114.6923076923077,134.84472987651824L115.76923076923076,140.26672234535218L116.30769230769232,139.8967964887619L117.38461538461539,138.0566734313965L118.46153846153847,140.9412696838379L119.53846153846153,142.70824360847473L120.61538461538463,135.47857019901275L121.6923076923077,140.65814118385316L122.23076923076923,140.38877973556518L123.3076923076923,138.5684096813202L124.38461538461537,141.38493032455443L125.46153846153847,143.20724087953568L126.53846153846153,136.0689152956009L127.61538461538461,141.1478327512741L128.15384615384616,140.80469195842744L129.23076923076923,139.06068787574767L130.30769230769232,141.93912630081178L131.3846153846154,143.63655200004578L132.46153846153845,136.5342004776001L133.53846153846155,141.5088168144226L134.0769230769231,141.07755670547485L135.15384615384616,139.33114211559297L136.23076923076923,142.21587629318236L137.3076923076923,143.8787750840187L138.3846153846154,136.8408314228058L139.46153846153845,141.81751663684844" style="fill: none;" fill="none"></path></g></g></g></g></g></g><g transform="translate(50, 178)" clip-path="url(#clip_1)"><clipPath id="clip_1"><rect width="280" height="22"></rect></clipPath><g><g><line x1="0" y1="0" x2="0" y2="5" style="visibility: inherit;" fill="rgb(0, 0, 0)" stroke="rgb(204, 204, 204)" stroke-width="1px"></line><line x1="21.53846153846154" y1="0" x2="21.53846153846154" y2="5" style="visibility: inherit;" fill="rgb(0, 0, 0)" stroke="rgb(204, 204, 204)" stroke-width="1px"></line><line x1="43.07692307692308" y1="0" x2="43.07692307692308" y2="5" style="visibility: inherit;" fill="rgb(0, 0, 0)" stroke="rgb(204, 204, 204)" stroke-width="1px"></line><line x1="64.61538461538461" y1="0" x2="64.61538461538461" y2="5" style="visibility: inherit;" fill="rgb(0, 0, 0)" stroke="rgb(204, 204, 204)" stroke-width="1px"></line><line x1="86.15384615384616" y1="0" x2="86.15384615384616" y2="5" style="visibility: inherit;" fill="rgb(0, 0, 0)" stroke="rgb(204, 204, 204)" stroke-width="1px"></line><line x1="107.6923076923077" y1="0" x2="107.6923076923077" y2="5" style="visibility: inherit;" fill="rgb(0, 0, 0)" stroke="rgb(204, 204, 204)" stroke-width="1px"></line><line x1="129.23076923076923" y1="0" x2="129.23076923076923" y2="5" style="visibility: inherit;" fill="rgb(0, 0, 0)" stroke="rgb(204, 204, 204)" stroke-width="1px"></line><line x1="150.76923076923077" y1="0" x2="150.76923076923077" y2="5" style="visibility: inherit;" fill="rgb(0, 0, 0)" stroke="rgb(204, 204, 204)" stroke-width="1px"></line><line x1="172.30769230769232" y1="0" x2="172.30769230769232" y2="5" style="visibility: inherit;" fill="rgb(0, 0, 0)" stroke="rgb(204, 204, 204)" stroke-width="1px"></line><line x1="193.84615384615384" y1="0" x2="193.84615384615384" y2="5" style="visibility: inherit;" fill="rgb(0, 0, 0)" stroke="rgb(204, 204, 204)" stroke-width="1px"></line><line x1="215.3846153846154" y1="0" x2="215.3846153846154" y2="5" style="visibility: inherit;" fill="rgb(0, 0, 0)" stroke="rgb(204, 204, 204)" stroke-width="1px"></line><line x1="236.92307692307693" y1="0" x2="236.92307692307693" y2="5" style="visibility: inherit;" fill="rgb(0, 0, 0)" stroke="rgb(204, 204, 204)" stroke-width="1px"></line><line x1="258.46153846153845" y1="0" x2="258.46153846153845" y2="5" style="visibility: inherit;" fill="rgb(0, 0, 0)" stroke="rgb(204, 204, 204)" stroke-width="1px"></line><line x1="280" y1="0" x2="280" y2="5" style="visibility: inherit;" fill="rgb(0, 0, 0)" stroke="rgb(204, 204, 204)" stroke-width="1px"></line></g><g transform="translate(0, 8)"><text x="0" y="0" dx="0em" dy="0.95em" style="text-anchor: middle; visibility: hidden; font-family: &quot;Helvetica Neue&quot;, sans-serif; font-size: 12px; font-weight: 200;" fill="rgb(50, 49, 63)" stroke="none" stroke-width="1px">-200</text><text x="21.53846153846154" y="0" dx="0em" dy="0.95em" style="text-anchor: middle; visibility: inherit; font-family: &quot;Helvetica Neue&quot;, sans-serif; font-size: 12px; font-weight: 200;" fill="rgb(50, 49, 63)" stroke="none" stroke-width="1px">0</text><text x="43.07692307692308" y="0" dx="0em" dy="0.95em" style="text-anchor: middle; visibility: hidden; font-family: &quot;Helvetica Neue&quot;, sans-serif; font-size: 12px; font-weight: 200;" fill="rgb(50, 49, 63)" stroke="none" stroke-width="1px">200</text><text x="64.61538461538461" y="0" dx="0em" dy="0.95em" style="text-anchor: middle; visibility: inherit; font-family: &quot;Helvetica Neue&quot;, sans-serif; font-size: 12px; font-weight: 200;" fill="rgb(50, 49, 63)" stroke="none" stroke-width="1px">400</text><text x="86.15384615384616" y="0" dx="0em" dy="0.95em" style="text-anchor: middle; visibility: hidden; font-family: &quot;Helvetica Neue&quot;, sans-serif; font-size: 12px; font-weight: 200;" fill="rgb(50, 49, 63)" stroke="none" stroke-width="1px">600</text><text x="107.6923076923077" y="0" dx="0em" dy="0.95em" style="text-anchor: middle; visibility: inherit; font-family: &quot;Helvetica Neue&quot;, sans-serif; font-size: 12px; font-weight: 200;" fill="rgb(50, 49, 63)" stroke="none" stroke-width="1px">800</text><text x="129.23076923076923" y="0" dx="0em" dy="0.95em" style="text-anchor: middle; visibility: hidden; font-family: &quot;Helvetica Neue&quot;, sans-serif; font-size: 12px; font-weight: 200;" fill="rgb(50, 49, 63)" stroke="none" stroke-width="1px">1k</text><text x="150.76923076923077" y="0" dx="0em" dy="0.95em" style="text-anchor: middle; visibility: inherit; font-family: &quot;Helvetica Neue&quot;, sans-serif; font-size: 12px; font-weight: 200;" fill="rgb(50, 49, 63)" stroke="none" stroke-width="1px">1.2k</text><text x="172.30769230769232" y="0" dx="0em" dy="0.95em" style="text-anchor: middle; visibility: hidden; font-family: &quot;Helvetica Neue&quot;, sans-serif; font-size: 12px; font-weight: 200;" fill="rgb(50, 49, 63)" stroke="none" stroke-width="1px">1.4k</text><text x="193.84615384615384" y="0" dx="0em" dy="0.95em" style="text-anchor: middle; visibility: inherit; font-family: &quot;Helvetica Neue&quot;, sans-serif; font-size: 12px; font-weight: 200;" fill="rgb(50, 49, 63)" stroke="none" stroke-width="1px">1.6k</text><text x="215.3846153846154" y="0" dx="0em" dy="0.95em" style="text-anchor: middle; visibility: hidden; font-family: &quot;Helvetica Neue&quot;, sans-serif; font-size: 12px; font-weight: 200;" fill="rgb(50, 49, 63)" stroke="none" stroke-width="1px">1.8k</text><text x="236.92307692307693" y="0" dx="0em" dy="0.95em" style="text-anchor: middle; visibility: inherit; font-family: &quot;Helvetica Neue&quot;, sans-serif; font-size: 12px; font-weight: 200;" fill="rgb(50, 49, 63)" stroke="none" stroke-width="1px">2k</text><text x="258.46153846153845" y="0" dx="0em" dy="0.95em" style="text-anchor: middle; visibility: hidden; font-family: &quot;Helvetica Neue&quot;, sans-serif; font-size: 12px; font-weight: 200;" fill="rgb(50, 49, 63)" stroke="none" stroke-width="1px">2.2k</text><text x="280" y="0" dx="0em" dy="0.95em" style="text-anchor: middle; visibility: hidden; font-family: &quot;Helvetica Neue&quot;, sans-serif; font-size: 12px; font-weight: 200;" fill="rgb(50, 49, 63)" stroke="none" stroke-width="1px">2.4k</text></g><line x1="0" y1="0" x2="280" y2="0" fill="rgb(0, 0, 0)" stroke="rgb(204, 204, 204)" stroke-width="1px"></line></g></g></g></g></svg>