<svg viewBox="0 0 330 200" xmlns="http://www.w3.org/2000/svg"><g><g><g><g><g><line x1="50" y1="178" x2="45" y2="178" style="visibility: inherit;" fill="rgb(0, 0, 0)" stroke="rgb(204, 204, 204)" stroke-width="1px"></line><line x1="50" y1="158.22222222222226" x2="45" y2="158.22222222222226" style="visibility: inherit;" fill="rgb(0, 0, 0)" stroke="rgb(204, 204, 204)" stroke-width="1px"></line><line x1="50" y1="138.44444444444446" x2="45" y2="138.44444444444446" style="visibility: inherit;" fill="rgb(0, 0, 0)" stroke="rgb(204, 204, 204)" stroke-width="1px"></line><line x1="50" y1="118.6666666666667" x2="45" y2="118.6666666666667" style="visibility: inherit;" fill="rgb(0, 0, 0)" stroke="rgb(204, 204, 204)" stroke-width="1px"></line><line x1="50" y1="98.8888888888889" x2="45" y2="98.8888888888889" style="visibility: inherit;" fill="rgb(0, 0, 0)" stroke="rgb(204, 204, 204)" stroke-width="1px"></line><line x1="50" y1="79.1111111111111" x2="45" y2="79.1111111111111" style="visibility: inherit;" fill="rgb(0, 0, 0)" stroke="rgb(204, 204, 204)" stroke-width="1px"></line><line x1="50" y1="59.33333333333334" x2="45" y2="59.33333333333334" style="visibility: inherit;" fill="rgb(0, 0, 0)" stroke="rgb(204, 204, 204)" stroke-width="1px"></line><line x1="50" y1="39.55555555555554" x2="45" y2="39.55555555555554" style="visibility: inherit;" fill="rgb(0, 0, 0)" stroke="rgb(204, 204, 204)" stroke-width="1px"></line><line x1="50" y1="19.7777777777778" x2="45" y2="19.7777777777778" style="visibility: inherit;" fill="rgb(0, 0, 0)" stroke="rgb(204, 204, 204)" stroke-width="1px"></line><line x1="50" y1="0" x2="45" y2="0" style="visibility: inherit;" fill="rgb(0, 0, 0)" stroke="rgb(204, 204, 204)" stroke-width="1px"></line></g><g transform="translate(40, 0)"><text x="0" y="178" dx="0em" dy="0.3em" style="text-anchor: end; visibility: hidden; font-family: &quot;Helvetica Neue&quot;, sans-serif; font-size: 12px; font-weight: 200;" fill="rgb(50, 49, 63)" stroke="none" stroke-width="1px">0.55</text><text x="0" y="158.22222222222226" dx="0em" dy="0.3em" style="text-anchor: end; visibility: inherit; font-family: &quot;Helvetica Neue&quot;, sans-serif; font-size: 12px; font-weight: 200;" fill="rgb(50, 49, 63)" stroke="none" stroke-width="1px">0.6</text><text x="0" y="138.44444444444446" dx="0em" dy="0.3em" style="text-anchor: end; visibility: hidden; font-family: &quot;Helvetica Neue&quot;, sans-serif; font-size: 12px; font-weight: 200;" fill="rgb(50, 49, 63)" stroke="none" stroke-width="1px">0.65</text><text x="0" y="118.6666666666667" dx="0em" dy="0.3em" style="text-anchor: end; visibility: inherit; font-family: &quot;Helvetica Neue&quot;, sans-serif; font-size: 12px; font-weight: 200;" fill="rgb(50, 49, 63)" stroke="none" stroke-width="1px">0.7</text><text x="0" y="98.8888888888889" dx="0em" dy="0.3em" style="text-anchor: end; visibility: hidden; font-family: &quot;Helvetica Neue&quot;, sans-serif; font-size: 12px; font-weight: 200;" fill="rgb(50, 49, 63)" stroke="none" stroke-width="1px">0.75</text><text x="0" y="79.1111111111111" dx="0em" dy="0.3em" style="text-anchor: end; visibility: inherit; font-family: &quot;Helvetica Neue&quot;, sans-serif; font-size: 12px; font-weight: 200;" fill="rgb(50, 49, 63)" stroke="none" stroke-width="1px">0.8</text><text x="0" y="59.33333333333334" dx="0em" dy="0.3em" style="text-anchor: end; visibility: hidden; font-family: &quot;Helvetica Neue&quot;, sans-serif; font-size: 12px; font-weight: 200;" fill="rgb(50, 49, 63)" stroke="none" stroke-width="1px">0.85</text><text x="0" y="39.55555555555554" dx="0em" dy="0.3em" style="text-anchor: end; visibility: inherit; font-family: &quot;Helvetica Neue&quot;, sans-serif; font-size: 12px; font-weight: 200;" fill="rgb(50, 49, 63)" stroke="none" stroke-width="1px">0.9</text><text x="0" y="19.7777777777778" dx="0em" dy="0.3em" style="text-anchor: end; visibility: hidden; font-family: &quot;Helvetica Neue&quot;, sans-serif; font-size: 12px; font-weight: 200;" fill="rgb(50, 49, 63)" stroke="none" stroke-width="1px">0.95</text><text x="0" y="0" dx="0em" dy="0.3em" style="text-anchor: end; visibility: hidden; font-family: &quot;Helvetica Neue&quot;, sans-serif; font-size: 12px; font-weight: 200;" fill="rgb(50, 49, 63)" stroke="none" stroke-width="1px">1</text></g><line x1="50" y1="0" x2="50" y2="178" fill="rgb(0, 0, 0)" stroke="rgb(204, 204, 204)" stroke-width="1px"></line></g></g><g transform="translate(50, 0)" clip-path="url(#clip_0)"><clipPath id="clip_0"><rect width="280" height="178"></rect></clipPath><g><g><g><line x1="0" y1="0" x2="0" y2="178" fill="rgb(0, 0, 0)" stroke="rgb(60, 60, 60)" stroke-width="1px" opacity="0.25"></line><line x1="23.333333333333332" y1="0" x2="23.333333333333332" y2="178" fill="rgb(0, 0, 0)" stroke="rgb(60, 60, 60)" stroke-width="1px" opacity="0.25"></line><line x1="46.666666666666664" y1="0" x2="46.666666666666664" y2="178" fill="rgb(0, 0, 0)" stroke="rgb(60, 60, 60)" stroke-width="1px" opacity="0.25"></line><line x1="70" y1="0" x2="70" y2="178" fill="rgb(0, 0, 0)" stroke="rgb(60, 60, 60)" stroke-width="1px" opacity="0.25"></line><line x1="93.33333333333333" y1="0" x2="93.33333333333333" y2="178" fill="rgb(0, 0, 0)" stroke="rgb(60, 60, 60)" stroke-width="1px" opacity="0.25"></line><line x1="116.66666666666667" y1="0" x2="116.66666666666667" y2="178" fill="rgb(0, 0, 0)" stroke="rgb(60, 60, 60)" stroke-width="1px" opacity="0.25"></line><line x1="140" y1="0" x2="140" y2="178" fill="rgb(0, 0, 0)" stroke="rgb(60, 60, 60)" stroke-width="1px" opacity="0.25"></line><line x1="163.33333333333334" y1="0" x2="163.33333333333334" y2="178" fill="rgb(0, 0, 0)" stroke="rgb(60, 60, 60)" stroke-width="1px" opacity="0.25"></line><line x1="186.66666666666666" y1="0" x2="186.66666666666666" y2="178" fill="rgb(0, 0, 0)" stroke="rgb(60, 60, 60)" stroke-width="1px" opacity="0.25"></line><line x1="210" y1="0" x2="210" y2="178" fill="rgb(0, 0, 0)" stroke="rgb(60, 60, 60)" stroke-width="1px" opacity="0.25"></line><line x1="233.33333333333334" y1="0" x2="233.33333333333334" y2="178" fill="rgb(0, 0, 0)" stroke="rgb(60, 60, 60)" stroke-width="1px" opacity="0.25"></line><line x1="256.66666666666663" y1="0" x2="256.66666666666663" y2="178" fill="rgb(0, 0, 0)" stroke="rgb(60, 60, 60)" stroke-width="1px" opacity="0.25"></line><line x1="280" y1="0" x2="280" y2="178" fill="rgb(0, 0, 0)" stroke="rgb(60, 60, 60)" stroke-width="1px" opacity="0.25"></line></g><g><line x1="0" y1="178" x2="280" y2="178" fill="rgb(0, 0, 0)" stroke="rgb(60, 60, 60)" stroke-width="1px" opacity="0.25"></line><line x1="0" y1="158.22222222222226" x2="280" y2="158.22222222222226" fill="rgb(0, 0, 0)" stroke="rgb(60, 60, 60)" stroke-width="1px" opacity="0.25"></line><line x1="0" y1="138.44444444444446" x2="280" y2="138.44444444444446" fill="rgb(0, 0, 0)" stroke="rgb(60, 60, 60)" stroke-width="1px" opacity="0.25"></line><line x1="0" y1="118.6666666666667" x2="280" y2="118.6666666666667" fill="rgb(0, 0, 0)" stroke="rgb(60, 60, 60)" stroke-width="1px" opacity="0.25"></line><line x1="0" y1="98.8888888888889" x2="280" y2="98.8888888888889" fill="rgb(0, 0, 0)" stroke="rgb(60, 60, 60)" stroke-width="1px" opacity="0.25"></line><line x1="0" y1="79.1111111111111" x2="280" y2="79.1111111111111" fill="rgb(0, 0, 0)" stroke="rgb(60, 60, 60)" stroke-width="1px" opacity="0.25"></line><line x1="0" y1="59.33333333333334" x2="280" y2="59.33333333333334" fill="rgb(0, 0, 0)" stroke="rgb(60, 60, 60)" stroke-width="1px" opacity="0.25"></line><line x1="0" y1="39.55555555555554" x2="280" y2="39.55555555555554" fill="rgb(0, 0, 0)" stroke="rgb(60, 60, 60)" stroke-width="1px" opacity="0.25"></line><line x1="0" y1="19.7777777777778" x2="280" y2="19.7777777777778" fill="rgb(0, 0, 0)" stroke="rgb(60, 60, 60)" stroke-width="1px" opacity="0.25"></line><line x1="0" y1="0" x2="280" y2="0" fill="rgb(0, 0, 0)" stroke="rgb(60, 60, 60)" stroke-width="1px" opacity="0.25"></line></g></g></g><g><g><line x1="0" y1="395.5555555555556" x2="280" y2="395.5555555555556" fill="rgb(0, 0, 0)" stroke="rgb(153, 153, 153)" stroke-width="1.5px"></line></g></g><g><g><line x1="23.333333333333332" y1="0" x2="23.333333333333332" y2="178" fill="rgb(0, 0, 0)" stroke="rgb(153, 153, 153)" stroke-width="1.5px"></line></g></g><g><g><g><g><g><path stroke="rgb(204, 51, 17)" stroke-width="2px" d="M24.5,182.57895341324988L24.616666666666667,158.89052761964396L24.849999999999998,146.25532471405504L24.96666666666667,141.82666926248157L25.083333333333332,136.34720958619016L25.31666666666667,140.5346444513045L25.433333333333334,134.39117960208L25.55,126.90316894530805L25.666666666666664,127.18662705966156L26.133333333333333,122.94199532294938L27.18333333333333,115.85016816614502L27.3,115.11325151413322L27.53333333333333,111.31554208374543L27.883333333333333,109.21495399793591L28,105.05368283415557L28.233333333333334,103.04418832004811L28.46666666666667,100.7180757094713L28.583333333333332,98.11609633703804L28.816666666666666,96.78381218441157L29.049999999999997,94.60014024789649L29.166666666666668,95.00381700486795L29.51666666666667,90.25426995882879L29.633333333333333,90.00460401054238L29.75,87.55294518705153L29.866666666666667,84.42872786583987L29.983333333333334,81.97714137684862L30.333333333333336,80.55168305424161L30.45,81.29368949408548L30.683333333333334,79.95356217785135L30.916666666666664,77.50966380915673L31.033333333333335,79.17249547424761L31.150000000000002,78.39229264871801L31.266666666666666,78.81407233648645L31.616666666666667,79.20850540288818L31.73333333333333,76.95691416868073L31.85,75.58654206590361L31.966666666666665,75.39966490665559L32.2,73.0468640363245L32.550000000000004,71.55263239023456L33.13333333333333,72.2833243527837L33.25,71.91218804948576L33.36666666666667,70.16049468062178L33.483333333333334,69.89780463937326L33.6,67.23334509067382L33.71666666666667,68.1422582170899L34.3,67.29953212206249L35.233333333333334,65.14829005985447L35.58333333333333,65.80127215690582L35.7,64.7481110249512L36.516666666666666,65.07972671018084L36.86666666666666,65.06351344869603L37.1,64.38972712311936L37.21666666666666,62.439301417381046L37.333333333333336,63.52150250184583L37.800000000000004,62.601739889956875L37.916666666666664,61.08035358717336L38.03333333333333,60.9215781064388L38.38333333333333,61.412285488339364L38.5,60.920180734391494L38.85,60.45157491000708L39.31666666666666,59.05243509146413L39.55,59.618833083272065L39.78333333333333,58.264846573747064L39.9,58.23292264913495L40.016666666666666,57.574757844729774L40.13333333333333,57.57304240160606L40.599999999999994,57.25916013472832L40.833333333333336,57.27112216937297L41.18333333333334,55.728665632532184L41.3,55.80656303421736L41.416666666666664,54.952641553356955L41.65,54.137111934256595L41.766666666666666,53.97453294454867L41.88333333333334,55.049771938504165L42.233333333333334,55.46300206840144L42.46666666666667,54.9381934454897L42.58333333333333,54.13049592012182L42.81666666666667,54.27517512843504L42.93333333333333,54.71864534401844L43.28333333333333,55.752111300047744L43.86666666666667,54.001805134636726L43.983333333333334,54.151114868720754L44.1,55.507990447426664L44.33333333333333,55.89659613005544L44.45,55.359991689032114L44.68333333333333,54.241611764152935L44.91666666666667,54.68213695467432L45.03333333333333,53.59451626543242L45.15,53.759751239201364L45.266666666666666,51.507751633663844L45.5,51.459021640908475L45.61666666666666,51.412370920018674L46.43333333333333,49.264207302723264L46.900000000000006,47.80794117641457L47.36666666666667,47.613679911834964L47.483333333333334,50.42589905968566L47.6,50.42246351619359L48.06666666666666,51.0180137840493L48.416666666666664,50.092254670496956L48.766666666666666,49.80364998866514L48.88333333333333,48.3317044277764L49.233333333333334,48.415259576588994L49.349999999999994,48.79385104513085L49.583333333333336,47.36615959799113L49.699999999999996,47.19137749347729L49.81666666666667,47.91825399065624L50.05,48.614686985389966L50.166666666666664,48.090586241837286L50.4,48.48157133553997L50.516666666666666,47.368192457198575L50.63333333333334,47.49126290578596L50.983333333333334,46.7170465870407L51.33333333333333,46.27238346599435L51.91666666666667,45.84624353172424L52.15,46.923269826606486L52.38333333333333,47.36150038090315L52.5,46.89079213139024L53.08333333333333,46.43964404694114L53.43333333333333,46.30397489234002L53.550000000000004,47.65725680215567L53.66666666666667,47.47144327497682L53.78333333333333,49.072448325843226L54.016666666666666,48.53193603474361L54.483333333333334,48.01381765236732L54.71666666666666,49.59141880702532L54.95,50.8074503531663L55.18333333333333,50.19592722178788L55.766666666666666,51.68275491525095L56,52.515908014205664L56.46666666666667,53.01857575156481L57.05,52.90847451457152L57.28333333333333,52.50696919884243L57.4,51.82613560325285L57.75,51.46927461785707L57.983333333333334,50.239669405086616L58.099999999999994,48.17344346602866L58.21666666666667,47.07968979514459L58.449999999999996,46.32675241612259L58.56666666666667,45.013506027452905L58.68333333333334,44.05003451192479L59.15,46.673604080302994L59.266666666666666,46.82443046236389L59.5,45.19573418505692L59.85,44.81621115823802L60.31666666666667,47.11178587691154L60.43333333333333,46.65361200073457L60.55,45.327961079012056L60.66666666666667,47.01109278755325L60.9,46.852565436470485L61.25,45.51904962707411L61.36666666666667,44.5357494779945L61.483333333333334,45.06957911857029L61.83333333333333,44.40018338754814L61.95,43.463015834420446L62.18333333333333,42.564382037851146L62.88333333333333,44.064809398040325L63.11666666666666,43.436819360092585L63.46666666666666,44.015572570747594L63.583333333333336,43.68488605835847L63.81666666666666,44.548603739668806L63.93333333333333,45.08163984664128L64.51666666666667,44.116892641064425L64.63333333333334,44.667600017750175L64.86666666666666,44.015077135739205L65.10000000000001,43.68449789154323L65.21666666666667,44.5480137505854L65.33333333333333,44.49070907720193L65.68333333333334,43.84554119162931L65.8,42.93176926820186L66.14999999999999,42.64569628243811L66.26666666666667,42.66644995169972L66.5,42.39127968247692L66.61666666666666,43.01259524830908L66.85,42.723239235308114L67.31666666666666,42.74080942727693L67.43333333333334,44.2328575571554L67.55,43.00836664328955L67.78333333333333,42.719212265668205L67.89999999999999,41.556867360001235L68.25,42.21230672718059L68.36666666666667,41.36580983302318L68.48333333333333,41.73405865411223L68.6,40.022221101404796L68.83333333333333,40.445566583673724L68.95,40.556554914356354L69.06666666666666,40.36800715997515L69.18333333333334,39.892219222804215L70.23333333333333,38.846008599670085L70.35,38.137689878922856L70.58333333333333,38.63828704855388L70.93333333333334,39.11834674409104L71.75,38.3988870054292L71.86666666666666,39.18370537857683L72.33333333333334,41.41107506845114L72.44999999999999,40.302668389926254L72.56666666666666,40.41950070585156L72.8,39.64672116965127L73.03333333333333,39.49551365891128L73.5,39.35050846289781L74.55,40.686108387280655L74.66666666666667,39.90242442214608L74.78333333333333,39.44581037309783L74.9,39.892696675879165L75.13333333333333,40.91109770555926L75.25,40.7080506961789L75.60000000000001,41.39808385803397L75.95,41.76490134133914L76.76666666666667,41.52684719174246L76.88333333333334,42.773115106165875L77,43.378451198705534L77.11666666666666,44.84368652023025L77.35,44.47939152588711L77.46666666666667,44.13003638907608L77.58333333333334,43.79500827336213L77.81666666666666,43.4737194928891L77.93333333333334,43.46050792410267L78.05,45.21723408969845L78.28333333333333,46.31212396116669L78.51666666666667,45.88762915588936L78.63333333333333,45.77543840757423L79.1,46.847426956413756L79.91666666666666,47.28566870484124L80.26666666666667,45.34679898558164L80.38333333333334,45.55167694054788L80.61666666666666,45.158371834636256L80.85000000000001,44.48630508870389L81.19999999999999,43.54690830076123L82.48333333333332,46.18468859937789L82.83333333333333,44.58588387187933L82.95,43.34752546255959L83.06666666666668,44.22414634952062L83.3,43.000626024318336L83.53333333333333,43.596581347575125L83.65,45.34763491791338L83.88333333333333,43.783173489544566L84.46666666666667,42.87262669234937L84.58333333333333,41.40965135190481L85.28333333333333,40.59642661927859L85.51666666666667,39.521666279041085L85.63333333333334,39.37561514077646L85.75,41.00483249801212L85.86666666666666,40.20821137549791L85.98333333333333,39.444254062293965L86.1,38.71162115399835L86.21666666666667,40.07317562079484L86.33333333333334,39.31475811181821L86.45,38.88231477269184L86.56666666666666,39.05735722077375L86.8,39.814975450951096L87.15,39.951777408841764L87.26666666666667,40.3778460130207L87.38333333333333,41.08132045526557L87.61666666666667,41.16620064520163L88.08333333333333,40.65784974315119L88.31666666666666,40.17034213288892L88.55,41.17719717588406L89.01666666666667,40.963270905596744L89.13333333333334,40.16836808328111L89.25,39.9958048850867L89.48333333333333,39.53544353859968L89.71666666666667,40.86319925893656L89.94999999999999,41.54676810454754L90.18333333333334,41.0228172359015L90.3,41.1100953689909L90.64999999999999,40.89892150119218L90.88333333333334,39.81178892058196L91,41.12820945918156L91.11666666666667,41.21116626162558L91.23333333333332,40.11123321492582L91.35,39.056398467937925L91.46666666666667,39.81404354969041L91.7,39.06626614821724L91.81666666666668,39.82350598916821L92.4,39.66508371888838L92.51666666666668,38.923414647221875L92.75,38.801896569593964L92.86666666666666,37.80074811808933L92.98333333333333,36.54577566864731L93.33333333333333,36.226870974169L93.56666666666666,35.62617096552222L93.80000000000001,37.4090660764256L94.03333333333333,37.34963695441266L94.26666666666667,37.58751577207215L94.5,36.3412881657097L94.61666666666666,35.146156522950434L94.73333333333333,35.76924849512696L95.08333333333334,35.18731225114891L95.55,34.03949472721476L95.66666666666667,35.59257035069882L95.9,35.60761803515092L96.01666666666667,36.21178931317908L96.25,34.72709924776623L96.71666666666667,35.95711205548278L97.3,35.9572134565839L98.11666666666666,35.95731070020602L98.23333333333333,36.252274455221624L98.46666666666667,37.12488357697447L98.58333333333334,37.077106177468494L98.69999999999999,36.736418265974464L98.81666666666666,37.29430769205197L98.93333333333334,37.82932350692079L99.05,38.34240354026585L99.28333333333333,38.244707711745434L99.39999999999999,37.26640980074825L99.86666666666667,36.62309149701534L99.98333333333332,36.00614937911652L100.21666666666667,36.59397944395306L100.45,37.7474475031255L100.8,37.084406869776416L101.03333333333333,37.333159084040346L101.15,36.981973435140475L101.26666666666668,37.52979436796264L101.61666666666666,37.465415673159896L101.73333333333333,36.519069707435364L101.85000000000001,36.20126189087361L101.96666666666667,35.896484238793875L102.08333333333333,36.48881009699966L102.31666666666666,36.467111844987784L102.43333333333334,37.62578049964657L102.55000000000001,36.67285994469427L102.78333333333333,36.348746841639695L102.89999999999999,35.44818484101725L103.01666666666667,34.584545975437095L103.13333333333334,34.935792373124684L103.25,35.56750637523794L103.36666666666666,34.993844173524224L103.6,33.5590950658374L103.71666666666667,33.952384928824785L104.06666666666666,33.73981153211403L104.53333333333333,33.24108498411459L104.88333333333333,32.46793759562442L105,32.02135795999362L105.11666666666667,31.887956764687345L105.35,31.465156391976535L105.46666666666667,33.41864179987246L105.58333333333333,33.817690138918834L105.7,33.610639290421034L105.93333333333334,34.001815704237146L106.05,33.78721571420965L106.16666666666666,32.696807615573675L106.63333333333334,32.24084442229557L107.10000000000001,31.803575741200177L107.21666666666667,31.089366532505096L107.44999999999999,30.404439931990538L107.56666666666666,30.927070518645564L107.68333333333334,31.133403719486324L107.8,30.446671634876935L107.91666666666667,29.198357557296333L108.03333333333333,29.4755680075194L108.38333333333334,31.21575736879643L108.5,31.410254385912197L109.2,30.712171478386324L109.43333333333332,30.04270999060489L109.55,31.46477791090453L109.66666666666667,31.0593280692199L109.78333333333333,31.260238675576005L110.01666666666668,31.45291194207246L110.36666666666666,31.342817110375847L110.48333333333333,31.826974108402993L110.83333333333333,31.701542726387686L110.95,31.876122513428726L111.06666666666666,30.86406965215815L111.30000000000001,31.957592227717612L111.53333333333333,31.237068564673137L111.88333333333334,32.610167596256645L112,33.0423631801701L112.23333333333333,33.45683873806783L112.58333333333334,33.55945136399657L112.7,33.95272629603926L112.81666666666666,33.74013907054777L113.05,35.30548058401112L113.16666666666667,35.33229887927348L113.28333333333333,35.35801762408863L113.51666666666667,35.38268190005223L113.63333333333333,35.70120435396032L113.75,36.301535828882976L114.33333333333333,37.17212215044876L114.8,37.712145981811574L114.91666666666666,38.23002883073917L115.15,39.316416322806646L115.38333333333334,39.473655637944944L115.61666666666666,38.444973427457455L115.73333333333333,38.04820406653465L115.85000000000001,37.66770225259771L115.96666666666667,36.71306415038674L116.08333333333334,36.682171512450054L116.19999999999999,36.062808611668146L116.43333333333334,34.58423333861214L116.66666666666667,34.34575434246614L116.89999999999999,33.8221845589876L117.25,34.20468738671343L117.48333333333332,37.225325362692246L117.6,37.46829940608387L117.71666666666667,36.81670527294051L118.18333333333332,37.37130116325062L118.41666666666667,36.723683961597686L118.53333333333333,37.282093723188865L118.76666666666668,36.63813402979329L119.11666666666666,35.72570826583137L119.35000000000001,35.73529722235793L119.46666666666667,35.449624612084676L119.58333333333333,34.2910583563328L119.93333333333334,34.064599543211244L120.28333333333333,32.66795090393779L120.39999999999999,33.09777730126456L120.63333333333334,33.509980814926024L120.86666666666666,33.02067776722683L121.1,32.25656772990527L121.68333333333334,32.408391453048324L121.91666666666667,33.14372820015794L122.03333333333333,32.964309927687964L122.15,33.381985600331575L122.26666666666667,33.48766718868396L122.61666666666667,33.589015831672015L123.31666666666666,33.09647235330198L123.55,34.68820398338002L123.66666666666666,34.7403306162725L123.78333333333333,35.96979564032384L123.9,36.264246392866255L124.01666666666667,35.9568868735208L124.48333333333333,35.367260683322854L124.71666666666667,36.27615219166282L124.83333333333334,36.263172946516164L125.18333333333334,36.25072585044012L125.3,36.53365846271964L125.41666666666667,37.09985924803914L125.53333333333333,35.87363340508702L125.64999999999999,35.87715743048693L125.88333333333334,34.99593174096174L126,35.92004773109508L126.11666666666667,36.21653814536609L126.23333333333332,35.6162662573208L126.46666666666667,35.630342335899115L126.81666666666668,36.8233168651424L127.05,37.08277324388436L127.16666666666667,37.62646031972912L127.4,37.55811844086213L127.51666666666668,36.902841761866L127.86666666666666,36.56929983572434L127.98333333333333,35.95456472043844L128.21666666666667,35.36503374533356L128.33333333333331,35.094541948780886L129.15,37.194089513802936L129.26666666666668,37.43834421290754L129.38333333333333,36.78797827895943L129.5,35.57453956649741L129.61666666666667,34.41085184194387L129.73333333333332,35.064087693653676L129.85,35.98540928261929L130.08333333333334,35.68948208953532L130.20000000000002,36.29029410028207L130.31666666666666,36.86647281830801L130.66666666666666,38.30363439699505L130.78333333333333,37.61779156684145L130.9,37.844674480984736L131.01666666666665,38.06225519555866L131.25,36.50170272549349L131.95,35.00513290726707L132.06666666666666,35.04426545318651L132.18333333333334,34.492056751041304L132.41666666666666,36.32143779346072L132.88333333333333,36.89633961896442L133.23333333333332,36.85793268940682L133.58333333333334,37.11596981728016L134.05,37.36342742284083L134.4,36.421264673560216L134.51666666666665,35.222861224043584L134.63333333333333,34.958198502398574L134.86666666666667,34.40951854593578L134.98333333333332,33.883334467808425L135.1,34.26333012285298L135.45000000000002,35.51235214173073L135.56666666666666,35.82555807191338L135.79999999999998,35.536184779618424L136.03333333333333,35.8484135715874L136.15,35.26323479759432L136.38333333333333,35.58665453879496L136.61666666666667,35.601944697687856L136.73333333333335,34.732002741493545L136.96666666666667,34.78233362413391L137.2,33.65112634933408L137.31666666666666,33.74577316411629L137.43333333333334,35.31088342333206L137.55,34.74774338578911L137.9,33.91282368377898L138.01666666666668,32.817266316934735L138.13333333333333,32.6512329870217L138.48333333333332,34.26121939310423L138.6,32.85650939632535L139.53333333333333,32.39399869418614L139.88333333333333,31.655582524896147L140,31.24230982457911L140.23333333333335,30.845981305009673L140.46666666666667,32.52998302968456L140.58333333333334,32.965466093137934L140.93333333333334,33.38309435095752L141.05,32.898993665793455L141.28333333333336,31.845003330300557L141.4,32.60343896727824L141.51666666666665,33.03591033721236L141.63333333333333,32.56604419668514L141.98333333333332,34.17952334229315L142.91666666666666,32.778162884336695L143.03333333333333,32.02399598357766L143.15,32.48022451579695L143.38333333333333,34.09722226815259L143.61666666666667,32.69923615438L143.73333333333332,32.83291046707666L143.85000000000002,32.37136732132501L144.08333333333331,33.40309044024701L144.31666666666666,33.21303832140225L144.43333333333334,32.14617215540298L144.54999999999998,32.89225987028428L144.89999999999998,33.01802021060976L145.01666666666668,33.138624376977646L145.13333333333333,34.13888995649333L145.71666666666667,34.80327624145019L145.95,35.14555428294079L146.06666666666666,34.29432433502828L146.29999999999998,34.65746940467923L146.41666666666669,33.826250936804655L146.65,33.618849237628865L147.35,33.419951008124315L147.46666666666664,32.63947079455281L147.7,33.07046485935885L147.93333333333334,33.483788167498744L148.4,32.99555903614842L148.63333333333335,32.82221570492118L148.86666666666665,31.77137326644649L149.1,33.122565513713994L149.33333333333334,34.41835887882041L149.56666666666666,33.596943942603104L149.68333333333334,32.51433764641342L149.8,32.655592797890705L149.91666666666666,33.38079426623196L150.03333333333336,32.89678788487123L150.5,33.31723194892794L150.73333333333332,33.13070002828846L150.85,32.65694751069438L151.55,32.202618846327226L151.78333333333333,32.061786062903735L152.01666666666668,31.631859017904247L152.13333333333333,32.98877134924206L152.25,32.81570631319755L152.95000000000002,31.76513075989729L153.29999999999998,31.347366582330892L153.53333333333333,32.126205325466316L153.88333333333333,31.103899312679943L154.23333333333332,31.00811403014569L154.35,31.505993722225327L154.58333333333334,30.214247979500044L154.7,30.154938401630403L154.81666666666666,30.687798294476522L154.93333333333334,30.90394155937466L155.16666666666669,31.40609232274747L155.28333333333333,30.70818031543979L155.51666666666668,30.628619511796103L155.63333333333333,30.84718910678174L155.75,32.236272904396L156.1,31.20945412091359L156.21666666666664,31.993947274931458L156.45,32.156538431623176L157.38333333333335,32.60733272322045L157.5,31.860169859504992L157.61666666666665,32.02824589022839L157.73333333333335,31.304825586669892L158.08333333333334,30.905933921233185L158.2,30.22852840840821L158.31666666666666,29.873764927283588L158.66666666666666,30.41815293255638L158.78333333333336,31.529957840953728L158.9,31.711572564436125L159.25,31.590872678584873L160.65,31.76998989372376L161,32.82636948670492L161.23333333333332,32.365094521370594L161.35000000000002,31.332994051623672L161.58333333333331,32.11242206845907L161.70000000000002,31.680418947275257L162.04999999999998,32.15073413771907L162.39999999999998,32.01202862736395L162.51666666666668,31.584141637266583L162.63333333333333,30.584060235775553L162.75,30.214719949735382L162.86666666666667,29.86052261542352L162.98333333333332,28.93110959383219L163.1,27.744934100461933L163.21666666666667,26.902260207987183L163.45,26.978742128755982L163.68333333333334,26.757219885107986L163.79999999999998,28.31399242074886L164.03333333333333,28.627461726457994L164.26666666666668,29.222948162952008L164.5,28.319675693917787L164.61666666666667,27.748306768434077L164.73333333333335,28.96957536953437L164.85,29.551035146660638L164.96666666666664,28.634311111296284L165.08333333333334,28.344910539364548L165.55,27.772506985218996L166.13333333333335,27.22357197679392L166.25,26.107405525733782L166.48333333333335,26.806214266455385L166.6,26.886634070826346L167.06666666666666,26.963756663217993L167.18333333333334,26.742848823659017L167.3,26.82586661118455L167.53333333333336,26.315743858096738L167.88333333333333,27.006010727189818L168.23333333333332,27.37310728233271L168.46666666666667,28.020022251031378L168.70000000000002,27.75580752237215L168.81666666666666,28.681900186890715L169.05,29.57002305216355L169.16666666666666,28.652520512679303L169.51666666666668,28.067504949630973L169.63333333333333,28.096211835991085L169.75,27.534004928687295L169.98333333333332,27.28971691024472L170.10000000000002,27.645181511881304L170.21666666666667,28.575809842828306L170.45000000000002,29.76315081786737L170.56666666666666,30.017204629290802L170.68333333333334,29.965973828784485L170.79999999999998,29.032237307460605L170.91666666666669,28.726521761488414L171.03333333333333,29.317946736539284L171.61666666666667,29.295385509635935L171.73333333333332,28.97888088737463L171.96666666666667,28.9702213602871L172.43333333333334,30.436260835424434L172.54999999999998,29.778111919144976L172.78333333333333,30.32642169773132L173.25,31.147119181056354L173.48333333333335,32.523905845541236L173.71666666666664,33.549374884466346L173.95,33.058456697836846L174.06666666666666,32.88253456251999L174.18333333333334,32.71382523475114L174.3,31.667426805784118L174.53333333333333,31.253668490381017L174.88333333333335,30.562005860248917L175,30.19356980361283L175.23333333333335,29.545371219638497L175.35,29.218617183267526L175.46666666666667,30.969340835321077L175.7,31.17394085602811L176.16666666666666,30.19067768658951L176.4,30.722072268709837L176.51666666666665,31.231679672963196L176.75,30.835786990006028L176.86666666666667,31.635600496346513L177.21666666666667,30.928278653970295L177.33333333333331,32.01916840774854L177.91666666666666,30.706382503029317L178.03333333333333,30.33202700403956L178.15,30.857626264144244L178.26666666666668,30.77193817660907L178.5,30.689763300662918L178.73333333333332,30.610957594630463L178.85000000000002,30.535382922545438L178.96666666666667,30.46290681201583L179.08333333333331,31.867746183628896L179.20000000000002,31.15090636807443L179.31666666666666,30.463456984957702L179.66666666666669,30.099061432209055L180.01666666666668,30.339342908443456L180.25,31.159510622127613L180.48333333333332,31.651183053890406L180.6,32.12269691595091L180.71666666666667,32.86974711532716L180.83333333333334,32.40669366723333L180.95,32.552362221831714L181.41666666666669,31.80745314871112L181.88333333333333,32.27255993688391L182.11666666666667,33.6032035303769L182.23333333333335,33.69981518058637L182.58333333333334,33.20272894181696L182.7,33.61062942247233L182.81666666666666,33.41206820544576L183.16666666666666,33.51651640397742L183.51666666666665,33.32181382070905L183.63333333333335,32.25048785971961L183.75,32.99229863040111L183.98333333333335,33.11395738150958L184.1,34.410103679772675L184.21666666666667,33.58902720687658L184.56666666666666,32.80161486936933L184.8,32.931091654680046L184.91666666666666,33.64499766976812L185.03333333333336,32.85529054328234L185.15,34.45691058757271L185.26666666666665,33.04417725348188L185.38333333333333,33.45857835335897L185.61666666666667,32.676514418845926L185.73333333333332,32.51625191696809L186.08333333333331,32.362560177667206L186.66666666666666,31.9203013940176L188.06666666666666,32.380781404132705L188.18333333333334,32.82238173383311L188.29999999999998,31.771532488405768L188.41666666666669,31.648374245675967L188.88333333333333,31.23539708523805L189.23333333333332,31.134220394038095L189.35,31.33206035283746L189.58333333333334,30.04744587837098L189.7,29.994975186652567L189.81666666666666,30.534393571269646L189.93333333333334,30.461958024142376L190.16666666666669,30.097623928787385L190.4,30.337964342661962L190.51666666666668,30.273582393907645L190.63333333333333,30.506708510712315L190.86666666666667,29.55080186743305L190.98333333333335,28.928956768843108L191.1,28.037737946980485L191.33333333333334,27.77279687478915L191.56666666666666,28.108455197877618L192.26666666666665,29.020089307694434L192.5,28.42000342405379L193.08333333333334,27.84452106164241L193.2,27.587501881749944L193.66666666666666,27.93075729955305L194.25,27.670202433906184L194.36666666666667,28.30493650138581L194.83333333333331,28.618777099783898L195.3,28.03514501666757L195.65,28.360047065939057L196,29.556234314825332L196.11666666666667,30.113641075187303L196.23333333333332,29.468719569079468L196.58333333333331,30.324582839676935L196.70000000000002,29.96588112688505L197.04999999999998,30.506492367952518L197.28333333333333,29.845463958841265L197.39999999999998,29.50640612016366L197.51666666666668,29.18124965287174L198.33333333333334,28.86942460073888L198.45,28.86525278140337L198.56666666666666,28.271515195340754L198.68333333333334,27.99698925596661L198.91666666666669,28.028587285766804L199.03333333333333,28.353758202005224L199.15,30.43480947794771L199.26666666666668,30.661325284306713L199.38333333333333,29.69907935331014L199.5,28.776285505484395L199.61666666666667,27.891326205419546L199.73333333333335,28.516994198267014L199.85,28.822140431092947L200.2,29.409645040687877L200.43333333333334,29.08845577765453L201.01666666666665,29.370172085725585L201.13333333333335,29.050601213845653L201.25,28.15439496973798L201.48333333333335,28.769277143248445L202.3,29.358949147645006L202.53333333333336,28.74497001056642L203.11666666666667,29.040769235088106L203.23333333333332,29.324440691404305L203.70000000000002,29.301613212351583L203.93333333333334,30.164327843574938L204.05,30.69680276925814L204.28333333333333,30.617708445013363L204.4,29.95212017674271L204.63333333333333,30.198426244451042L204.75,29.550028546403468L205.45000000000002,30.697426554590635L205.56666666666666,31.208044433122154L205.68333333333334,31.107989200658977L206.26666666666668,31.60177401070166L206.38333333333333,32.66505045485266L207.43333333333334,34.274470342768325L207.54999999999998,33.458954836689685L207.9,32.676875466360315L208.01666666666668,31.631991977899503L208.13333333333333,32.10429267407534L208.36666666666667,31.37775445241317L208.6,30.091266519864178L208.83333333333334,30.331867587504604L209.18333333333334,29.97286720005181L209.3,29.333717422824577L209.53333333333333,29.01564119212364L209.65,28.4157376812214L209.88333333333335,27.545560841951357L210.11666666666665,27.595667436726217L210.23333333333335,27.05398284979529L210.46666666666667,28.893456509518273L210.58333333333334,28.888299381922906L211.05,27.99874751292407L211.16666666666666,27.145667270554185L211.4,27.801907279731182L211.51666666666665,28.43124144853192L211.63333333333333,27.855298327117026L211.75,27.59783727934007L211.98333333333332,28.53040672381684L212.1,28.24526623177522L212.21666666666667,27.676948094247308L212.33333333333331,28.606273995312904L212.8,28.023154539479975L213.03333333333333,27.463942981336174L213.15,27.517395908396253L213.26666666666668,27.273788859786805L213.5,27.335038105830392L213.73333333333332,27.688644538446198L213.96666666666667,28.02775310732477L214.20000000000002,28.058089819219276L214.31666666666666,27.792314320266115L214.43333333333334,26.94769783879522L214.66666666666669,26.727448411039433L214.78333333333333,27.105966021141683L214.89999999999998,27.468964409229756L215.01666666666668,27.817079863406178L215.13333333333333,29.330398139911125L215.25,30.191932589104482L215.48333333333332,31.31301253154092L215.6,32.09325979067748L215.95,32.25177913421459L216.06666666666666,31.519193967686647L216.29999999999998,31.406381604306375L216.41666666666669,30.7084577365047L216.76666666666668,32.10322952021261L216.88333333333333,33.145946288473596L217,33.261305485601014L217.11666666666667,34.551410511595975L217.23333333333335,34.60914567557538L217.46666666666664,33.779908480851645L217.93333333333334,34.1641446004065L218.16666666666666,34.2377576667447L218.28333333333333,34.60322196967792L218.4,33.77422764689604L218.75,34.453565086303L218.86666666666665,33.335837323424585L219.1,34.622886544068734L219.56666666666666,33.793085973736765L219.68333333333334,32.702437854473544L219.8,32.541112491734964L219.91666666666666,33.56587605816355L220.15,35.13836209634343L220.61666666666667,34.287427028368285L220.73333333333332,33.76624870383998L220.96666666666667,32.67670091264256L221.08333333333331,32.51643076451904L221.20000000000002,32.0678632868086L221.31666666666666,31.047949297709465L221.55,30.364721154478303L221.9,29.709505365119554L222.01666666666668,29.376021828784502L222.13333333333333,30.825423484708892L222.25,30.446187305470687L222.36666666666667,30.67223662090126L222.71666666666667,30.299281103079153L222.83333333333331,29.351878983512876L223.29999999999998,28.73818972316377L223.41666666666669,28.44453012814887L223.64999999999998,29.34238516582451L223.76666666666668,29.023953557660548L223.88333333333333,28.423709239771313L224.35,28.732680155895565L224.7,28.14437804747871L224.93333333333334,27.8750647311669L225.28333333333333,27.02705548284905L225.4,27.3932892030071L225.51666666666668,27.44963893497865L225.63333333333333,27.798546733599352L225.75,29.017755496111533L225.98333333333335,28.71263370440576L226.1,27.830284128185156L226.21666666666664,28.458454846199288L226.56666666666666,28.76600119246001L226.68333333333334,29.060938138523994L226.91666666666666,28.754045858479373L227.03333333333333,28.45973616191654L227.15,29.062099346547683L227.5,28.4602910513141L227.73333333333335,27.883156896185085L227.85,27.3296852414164L227.96666666666667,27.388642735813164L228.08333333333334,26.560576789304832L228.9,27.24080550821307L229.01666666666665,27.303407071671188L229.36666666666667,27.95317974900243L229.95000000000002,27.986573968588175L230.41666666666666,28.903205208805815L230.65,29.192516790199647L230.88333333333333,28.585361379776288L231.11666666666667,29.477442336135226L231.23333333333332,28.85860497832857L231.35000000000002,27.97027057987711L231.46666666666667,28.297832481057014L231.93333333333334,27.137621349333642L232.04999999999998,27.794191241280714L232.16666666666669,28.128972395343112L232.39999999999998,28.155159116428905L232.51666666666668,27.88540377629016L232.63333333333333,27.036970627122287L233.1,25.92845483141025L233.33333333333334,25.74999436695728L233.56666666666666,25.28398237588692L233.79999999999998,26.60628827706526L233.91666666666669,26.10516823568048L234.15,28.278411700242202L234.61666666666667,27.413865226192257L234.85,28.059109119188122L234.96666666666664,27.793291828936248L235.31666666666666,28.71784763687961L235.66666666666666,29.604496656697307L236.13333333333335,28.98045007174761L236.36666666666665,28.381989396780824L236.48333333333335,28.397802420807693L236.83333333333334,28.41296711084945L237.3,28.722378454259484L237.41666666666666,29.608841710564633L237.53333333333336,28.984616978406336L237.65,28.38598546026654L238,28.106766240030453L238.11666666666667,28.428731819144048L238.23333333333332,28.73749680951397L238.46666666666667,29.62334021325364L238.58333333333331,29.883126259465087L238.70000000000002,29.542524266461868L238.93333333333334,30.100493138806684L239.05,30.34071591507049L239.4,29.391614968212593L239.51666666666668,28.481427160175883L239.75,27.60855705226865L239.98333333333332,27.950949208080544L240.10000000000002,28.574172657818963L240.21666666666667,29.466712351778142L241.03333333333333,29.732920140310085L241.14999999999998,29.693345003852215L241.26666666666668,30.245130225964004L241.38333333333333,30.774292253969236L242.08333333333334,31.57662704448623L242.2,30.57685374132231L242.31666666666666,30.797545732882952L242.43333333333334,32.18866490873933L242.54999999999998,31.4586674254559L242.78333333333333,31.938074428281908L243.13333333333333,32.10295637167721L243.48333333333335,33.44055371134303L243.95,32.95409719281281L244.06666666666666,32.78245379720235L244.18333333333334,32.61784778081193L244.3,31.57538442745863L244.41666666666666,31.165399849567677L244.65,29.887618455735435L244.76666666666665,28.662226099050258L245.23333333333335,28.07681260696407L245.58333333333334,27.81026947371339L245.7,27.849523014585998L246.05,27.002560976648L246.16666666666666,26.19032438226543L246.28333333333336,25.706258860567402L246.4,26.126645242238993L246.51666666666665,26.824665154576934L246.75,26.314591661214166L246.86666666666667,27.00490577037411L246.98333333333332,28.25665381237846L247.1,27.982737189705773L247.21666666666667,27.425182742902734L247.68333333333334,28.069962617713486L247.8,27.5088319283621L247.91666666666666,26.380969819299253L248.26666666666668,26.18395624034278L248.5,26.584757029443608L248.61666666666667,25.494781991236437L248.73333333333332,25.92383892455061L248.96666666666667,26.040436117938924L249.08333333333331,27.331727415693138L249.20000000000002,26.800864369624577L249.43333333333334,25.99689733612999L249.54999999999998,26.995105318278405L249.89999999999998,27.36264899518386L250.13333333333333,28.30486115931106L250.36666666666667,28.32383644107415L250.48333333333332,28.93177151425982L250.71666666666667,29.514781249444923L251.06666666666666,28.599543623877707L251.29999999999998,28.606436924593538L251.41666666666669,27.728441416345248L251.53333333333333,27.181313096249966L251.76666666666668,28.130960032233446L252,28.451933665866733L252.11666666666667,29.349485158495924L252.23333333333335,29.91536863426731L252.7,31.047787698852062L252.81666666666666,30.95430299249398L253.05,31.749257342731454L253.28333333333333,31.62701238097432L253.86666666666665,30.920042651329283L254.33333333333334,32.01127008121449L254.45,32.468020375154424L254.56666666666666,31.72656931774796L254.68333333333334,30.7206483813803L256.0833333333333,30.345707981378553L256.31666666666666,29.39640235980201L256.55,28.780887641025004" style="fill: none;" fill="none"></path></g></g></g></g><g opacity="0.2"><g><g><g><path stroke="rgb(204, 51, 17)" stroke-width="2px" d="M24.03333333333333,208.56565806600784L24.5,100.68686697218153L24.616666666666667,93.49495463901097L24.849999999999998,100.68686697218153L24.96666666666667,122.26262754864165L25.083333333333332,107.87877930535211L25.31666666666667,165.41414870156183L25.433333333333334,93.49495463901097L25.55,71.91919406255087L25.666666666666664,129.4545398818122L26.133333333333333,86.30301872889203L27.18333333333333,50.343433486090774L27.3,107.87877930535211L27.53333333333333,71.91919406255087L27.883333333333333,86.30301872889203L28,57.53534581926134L28.233333333333334,79.11110639572144L28.46666666666667,71.91919406255087L28.583333333333332,64.72728172938031L28.816666666666666,79.11110639572144L29.049999999999997,64.72728172938031L29.166666666666668,100.68686697218153L29.51666666666667,21.575760576460084L29.633333333333333,86.30301872889203L29.75,50.343433486090774L29.866666666666667,35.95958524280124L29.983333333333334,43.151521152920196L30.333333333333336,57.53534581926134L30.45,93.49495463901097L30.683333333333334,57.53534581926134L30.916666666666664,35.95958524280124L31.033333333333335,107.87877930535211L31.150000000000002,64.72728172938031L31.266666666666666,86.30301872889203L31.616666666666667,86.30301872889203L31.73333333333333,35.95958524280124L31.85,50.343433486090774L31.966666666666665,71.91919406255087L32.2,28.767672909630676L32.550000000000004,43.151521152920196L33.13333333333333,86.30301872889203L33.25,64.72728172938031L33.36666666666667,35.95958524280124L33.483333333333334,64.72728172938031L33.6,14.38384824328952L33.71666666666667,86.30301872889203L34.3,50.343433486090774L35.233333333333334,21.575760576460084L35.58333333333333,79.11110639572144L35.7,43.151521152920196L36.516666666666666,71.91919406255087L36.86666666666666,64.72728172938031L37.1,50.343433486090774L37.21666666666666,21.575760576460084L37.333333333333336,86.30301872889203L37.800000000000004,43.151521152920196L37.916666666666664,28.767672909630676L38.03333333333333,57.53534581926134L38.38333333333333,71.91919406255087L38.5,50.343433486090774L38.85,50.343433486090774L39.31666666666666,28.767672909630676L39.55,71.91919406255087L39.78333333333333,28.767672909630676L39.9,57.53534581926134L40.016666666666666,43.151521152920196L40.13333333333333,57.53534581926134L40.599999999999994,50.343433486090774L40.833333333333336,57.53534581926134L41.18333333333334,21.575760576460084L41.3,57.53534581926134L41.416666666666664,35.95958524280124L41.65,35.95958524280124L41.766666666666666,50.343433486090774L41.88333333333334,79.11110639572144L42.233333333333334,64.72728172938031L42.46666666666667,43.151521152920196L42.58333333333333,35.95958524280124L42.81666666666667,57.53534581926134L42.93333333333333,64.72728172938031L43.28333333333333,79.11110639572144L43.86666666666667,14.38384824328952L43.983333333333334,57.53534581926134L44.1,86.30301872889203L44.33333333333333,64.72728172938031L44.45,43.151521152920196L44.68333333333333,28.767672909630676L44.91666666666667,64.72728172938031L45.03333333333333,28.767672909630676L45.15,57.53534581926134L45.266666666666666,0L45.5,50.343433486090774L45.61666666666666,50.343433486090774L46.43333333333333,0L46.900000000000006,14.38384824328952L47.36666666666667,43.151521152920196L47.483333333333334,115.07071521547107L47.6,50.343433486090774L48.06666666666666,64.72728172938031L48.416666666666664,28.767672909630676L48.766666666666666,43.151521152920196L48.88333333333333,14.38384824328952L49.233333333333334,50.343433486090774L49.349999999999994,57.53534581926134L49.583333333333336,14.38384824328952L49.699999999999996,43.151521152920196L49.81666666666667,64.72728172938031L50.05,64.72728172938031L50.166666666666664,35.95958524280124L50.4,57.53534581926134L50.516666666666666,21.575760576460084L50.63333333333334,50.343433486090774L50.983333333333334,28.767672909630676L51.33333333333333,35.95958524280124L51.91666666666667,35.95958524280124L52.15,71.91919406255087L52.38333333333333,57.53534581926134L52.5,35.95958524280124L53.08333333333333,35.95958524280124L53.43333333333333,43.151521152920196L53.550000000000004,79.11110639572144L53.66666666666667,43.151521152920196L53.78333333333333,86.30301872889203L54.016666666666666,35.95958524280124L54.483333333333334,35.95958524280124L54.71666666666666,86.30301872889203L54.95,79.11110639572144L55.18333333333333,35.95958524280124L55.766666666666666,86.30301872889203L56,71.91919406255087L56.46666666666667,64.72728172938031L57.05,50.343433486090774L57.28333333333333,43.151521152920196L57.4,35.95958524280124L57.75,43.151521152920196L57.983333333333334,21.575760576460084L58.099999999999994,0L58.21666666666667,21.575760576460084L58.449999999999996,28.767672909630676L58.56666666666667,14.38384824328952L58.68333333333334,21.575760576460084L59.15,107.87877930535211L59.266666666666666,50.343433486090774L59.5,7.191912333170563L59.85,35.95958524280124L60.31666666666667,100.68686697218153L60.43333333333333,35.95958524280124L60.55,14.38384824328952L60.66666666666667,86.30301872889203L60.9,43.151521152920196L61.25,14.38384824328952L61.36666666666667,21.575760576460084L61.483333333333334,57.53534581926134L61.83333333333333,28.767672909630676L61.95,21.575760576460084L62.18333333333333,21.575760576460084L62.88333333333333,79.11110639572144L63.11666666666666,28.767672909630676L63.46666666666666,57.53534581926134L63.583333333333336,35.95958524280124L63.81666666666666,64.72728172938031L63.93333333333333,57.53534581926134L64.51666666666667,21.575760576460084L64.63333333333334,57.53534581926134L64.86666666666666,28.767672909630676L65.10000000000001,35.95958524280124L65.21666666666667,64.72728172938031L65.33333333333333,43.151521152920196L65.68333333333334,28.767672909630676L65.8,21.575760576460084L66.14999999999999,35.95958524280124L66.26666666666667,43.151521152920196L66.5,35.95958524280124L66.61666666666666,57.53534581926134L66.85,35.95958524280124L67.31666666666666,43.151521152920196L67.43333333333334,79.11110639572144L67.55,14.38384824328952L67.78333333333333,35.95958524280124L67.89999999999999,14.38384824328952L68.25,57.53534581926134L68.36666666666667,21.575760576460084L68.48333333333333,50.343433486090774L68.6,0L68.83333333333333,50.343433486090774L68.95,43.151521152920196L69.06666666666666,35.95958524280124L69.18333333333334,28.767672909630676L70.23333333333333,14.38384824328952L70.35,21.575760576460084L70.58333333333333,50.343433486090774L70.93333333333334,50.343433486090774L71.75,21.575760576460084L71.86666666666666,57.53534581926134L72.33333333333334,93.49495463901097L72.44999999999999,14.38384824328952L72.56666666666666,43.151521152920196L72.8,21.575760576460084L73.03333333333333,35.95958524280124L73.5,35.95958524280124L74.55,71.91919406255087L74.66666666666667,21.575760576460084L74.78333333333333,28.767672909630676L74.9,50.343433486090774L75.13333333333333,64.72728172938031L75.25,35.95958524280124L75.60000000000001,57.53534581926134L75.95,50.343433486090774L76.76666666666667,35.95958524280124L76.88333333333334,71.91919406255087L77,57.53534581926134L77.11666666666666,79.11110639572144L77.35,35.95958524280124L77.46666666666667,35.95958524280124L77.58333333333334,35.95958524280124L77.81666666666666,35.95958524280124L77.93333333333334,43.151521152920196L78.05,86.30301872889203L78.28333333333333,71.91919406255087L78.51666666666667,35.95958524280124L78.63333333333333,43.151521152920196L79.1,71.91919406255087L79.91666666666666,57.53534581926134L80.26666666666667,0L80.38333333333334,50.343433486090774L80.61666666666666,35.95958524280124L80.85000000000001,28.767672909630676L81.19999999999999,21.575760576460084L82.48333333333332,107.87877930535211L82.83333333333333,7.191912333170563L82.95,14.38384824328952L83.06666666666668,64.72728172938031L83.3,14.38384824328952L83.53333333333333,57.53534581926134L83.65,86.30301872889203L83.88333333333333,7.191912333170563L84.46666666666667,21.575760576460084L84.58333333333333,7.191912333170563L85.28333333333333,21.575760576460084L85.51666666666667,14.38384824328952L85.63333333333334,35.95958524280124L85.75,79.11110639572144L85.86666666666666,21.575760576460084L85.98333333333333,21.575760576460084L86.1,21.575760576460084L86.21666666666667,71.91919406255087L86.33333333333334,21.575760576460084L86.45,28.767672909630676L86.56666666666666,43.151521152920196L86.8,57.53534581926134L87.15,43.151521152920196L87.26666666666667,50.343433486090774L87.38333333333333,57.53534581926134L87.61666666666667,43.151521152920196L88.08333333333333,28.767672909630676L88.31666666666666,28.767672909630676L88.55,64.72728172938031L89.01666666666667,35.95958524280124L89.13333333333334,21.575760576460084L89.25,35.95958524280124L89.48333333333333,28.767672909630676L89.71666666666667,71.91919406255087L89.94999999999999,57.53534581926134L90.18333333333334,28.767672909630676L90.3,43.151521152920196L90.64999999999999,35.95958524280124L90.88333333333334,14.38384824328952L91,71.91919406255087L91.11666666666667,43.151521152920196L91.23333333333332,14.38384824328952L91.35,14.38384824328952L91.46666666666667,57.53534581926134L91.7,21.575760576460084L91.81666666666668,57.53534581926134L92.4,35.95958524280124L92.51666666666668,21.575760576460084L92.75,35.95958524280124L92.86666666666666,14.38384824328952L92.98333333333333,7.191912333170563L93.33333333333333,28.767672909630676L93.56666666666666,21.575760576460084L93.80000000000001,79.11110639572144L94.03333333333333,35.95958524280124L94.26666666666667,43.151521152920196L94.5,7.191912333170563L94.61666666666666,7.191912333170563L94.73333333333333,50.343433486090774L95.08333333333334,21.575760576460084L95.55,7.191912333170563L95.66666666666667,71.91919406255087L95.9,35.95958524280124L96.01666666666667,50.343433486090774L96.25,0L96.71666666666667,64.72728172938031L97.3,35.95958524280124L98.11666666666666,35.95958524280124L98.23333333333333,43.151521152920196L98.46666666666667,57.53534581926134L98.58333333333334,35.95958524280124L98.69999999999999,28.767672909630676L98.81666666666666,50.343433486090774L98.93333333333334,50.343433486090774L99.05,50.343433486090774L99.28333333333333,35.95958524280124L99.39999999999999,14.38384824328952L99.86666666666667,21.575760576460084L99.98333333333332,21.575760576460084L100.21666666666667,50.343433486090774L100.45,64.72728172938031L100.8,21.575760576460084L101.03333333333333,43.151521152920196L101.15,28.767672909630676L101.26666666666668,50.343433486090774L101.61666666666666,35.95958524280124L101.73333333333333,14.38384824328952L101.85000000000001,28.767672909630676L101.96666666666667,28.767672909630676L102.08333333333333,50.343433486090774L102.31666666666666,35.95958524280124L102.43333333333334,64.72728172938031L102.55000000000001,14.38384824328952L102.78333333333333,28.767672909630676L102.89999999999999,14.38384824328952L103.01666666666667,14.38384824328952L103.13333333333334,43.151521152920196L103.25,50.343433486090774L103.36666666666666,21.575760576460084L103.6,0L103.71666666666667,43.151521152920196L104.06666666666666,28.767672909630676L104.53333333333333,21.575760576460084L104.88333333333333,14.38384824328952L105,21.575760576460084L105.11666666666667,28.767672909630676L105.35,21.575760576460084L105.46666666666667,79.11110639572144L105.58333333333333,43.151521152920196L105.7,28.767672909630676L105.93333333333334,43.151521152920196L106.05,28.767672909630676L106.16666666666666,7.191912333170563L106.63333333333334,21.575760576460084L107.10000000000001,21.575760576460084L107.21666666666667,14.38384824328952L107.44999999999999,14.38384824328952L107.56666666666666,43.151521152920196L107.68333333333334,35.95958524280124L107.8,14.38384824328952L107.91666666666667,0L108.03333333333333,35.95958524280124L108.38333333333334,71.91919406255087L108.5,35.95958524280124L109.2,14.38384824328952L109.43333333333332,14.38384824328952L109.55,64.72728172938031L109.66666666666667,21.575760576460084L109.78333333333333,35.95958524280124L110.01666666666668,35.95958524280124L110.36666666666666,28.767672909630676L110.48333333333333,43.151521152920196L110.83333333333333,28.767672909630676L110.95,35.95958524280124L111.06666666666666,7.191912333170563L111.30000000000001,57.53534581926134L111.53333333333333,14.38384824328952L111.88333333333334,64.72728172938031L112,43.151521152920196L112.23333333333333,43.151521152920196L112.58333333333334,35.95958524280124L112.7,43.151521152920196L112.81666666666666,28.767672909630676L113.05,71.91919406255087L113.16666666666667,35.95958524280124L113.28333333333333,35.95958524280124L113.51666666666667,35.95958524280124L113.63333333333333,43.151521152920196L113.75,50.343433486090774L114.33333333333333,57.53534581926134L114.8,50.343433486090774L114.91666666666666,50.343433486090774L115.15,64.72728172938031L115.38333333333334,43.151521152920196L115.61666666666666,14.38384824328952L115.73333333333333,28.767672909630676L115.85000000000001,28.767672909630676L115.96666666666667,14.38384824328952L116.08333333333334,35.95958524280124L116.19999999999999,21.575760576460084L116.43333333333334,0L116.66666666666667,28.767672909630676L116.89999999999999,21.575760576460084L117.25,43.151521152920196L117.48333333333332,107.87877930535211L117.6,43.151521152920196L117.71666666666667,21.575760576460084L118.18333333333332,50.343433486090774L118.41666666666667,21.575760576460084L118.53333333333333,50.343433486090774L118.76666666666668,21.575760576460084L119.11666666666666,14.38384824328952L119.35000000000001,35.95958524280124L119.46666666666667,28.767672909630676L119.58333333333333,7.191912333170563L119.93333333333334,28.767672909630676L120.28333333333333,0L120.39999999999999,43.151521152920196L120.63333333333334,43.151521152920196L120.86666666666666,21.575760576460084L121.1,14.38384824328952L121.68333333333334,35.95958524280124L121.91666666666667,50.343433486090774L122.03333333333333,28.767672909630676L122.15,43.151521152920196L122.26666666666667,35.95958524280124L122.61666666666667,35.95958524280124L123.31666666666666,21.575760576460084L123.55,71.91919406255087L123.66666666666666,35.95958524280124L123.78333333333333,64.72728172938031L123.9,43.151521152920196L124.01666666666667,28.767672909630676L124.48333333333333,21.575760576460084L124.71666666666667,57.53534581926134L124.83333333333334,35.95958524280124L125.18333333333334,35.95958524280124L125.3,43.151521152920196L125.41666666666667,50.343433486090774L125.53333333333333,7.191912333170563L125.64999999999999,35.95958524280124L125.88333333333334,14.38384824328952L126,57.53534581926134L126.11666666666667,43.151521152920196L126.23333333333332,21.575760576460084L126.46666666666667,35.95958524280124L126.81666666666668,64.72728172938031L127.05,43.151521152920196L127.16666666666667,50.343433486090774L127.4,35.95958524280124L127.51666666666668,21.575760576460084L127.86666666666666,28.767672909630676L127.98333333333333,21.575760576460084L128.21666666666667,21.575760576460084L128.33333333333331,28.767672909630676L129.15,86.30301872889203L129.26666666666668,43.151521152920196L129.38333333333333,21.575760576460084L129.5,7.191912333170563L129.61666666666667,7.191912333170563L129.73333333333332,50.343433486090774L129.85,57.53534581926134L130.08333333333334,28.767672909630676L130.20000000000002,50.343433486090774L130.31666666666666,50.343433486090774L130.66666666666666,71.91919406255087L130.78333333333333,21.575760576460084L130.9,43.151521152920196L131.01666666666665,43.151521152920196L131.25,0L131.95,0L132.06666666666666,35.95958524280124L132.18333333333334,21.575760576460084L132.41666666666666,79.11110639572144L132.88333333333333,50.343433486090774L133.23333333333332,35.95958524280124L133.58333333333334,43.151521152920196L134.05,43.151521152920196L134.4,14.38384824328952L134.51666666666665,7.191912333170563L134.63333333333333,28.767672909630676L134.86666666666667,21.575760576460084L134.98333333333332,21.575760576460084L135.1,43.151521152920196L135.45000000000002,64.72728172938031L135.56666666666666,43.151521152920196L135.79999999999998,28.767672909630676L136.03333333333333,43.151521152920196L136.15,21.575760576460084L136.38333333333333,43.151521152920196L136.61666666666667,35.95958524280124L136.73333333333335,14.38384824328952L136.96666666666667,35.95958524280124L137.2,7.191912333170563L137.31666666666666,35.95958524280124L137.43333333333334,71.91919406255087L137.55,21.575760576460084L137.9,14.38384824328952L138.01666666666668,7.191912333170563L138.13333333333333,28.767672909630676L138.48333333333332,71.91919406255087L138.6,0L139.53333333333333,21.575760576460084L139.88333333333333,14.38384824328952L140,21.575760576460084L140.23333333333335,21.575760576460084L140.46666666666667,71.91919406255087L140.58333333333334,43.151521152920196L140.93333333333334,43.151521152920196L141.05,21.575760576460084L141.28333333333336,7.191912333170563L141.4,50.343433486090774L141.51666666666665,43.151521152920196L141.63333333333333,21.575760576460084L141.98333333333332,71.91919406255087L142.91666666666666,0L143.03333333333333,14.38384824328952L143.15,43.151521152920196L143.38333333333333,71.91919406255087L143.61666666666667,0L143.73333333333332,35.95958524280124L143.85000000000002,21.575760576460084L144.08333333333331,57.53534581926134L144.31666666666666,28.767672909630676L144.43333333333334,7.191912333170563L144.54999999999998,50.343433486090774L144.89999999999998,35.95958524280124L145.01666666666668,35.95958524280124L145.13333333333333,57.53534581926134L145.71666666666667,50.343433486090774L145.95,43.151521152920196L146.06666666666666,14.38384824328952L146.29999999999998,43.151521152920196L146.41666666666669,14.38384824328952L146.65,28.767672909630676L147.35,28.767672909630676L147.46666666666664,14.38384824328952L147.7,43.151521152920196L147.93333333333334,43.151521152920196L148.4,21.575760576460084L148.63333333333335,28.767672909630676L148.86666666666665,7.191912333170563L149.1,64.72728172938031L149.33333333333334,64.72728172938031L149.56666666666666,14.38384824328952L149.68333333333334,7.191912333170563L149.8,35.95958524280124L149.91666666666666,50.343433486090774L150.03333333333336,21.575760576460084L150.5,43.151521152920196L150.73333333333332,28.767672909630676L150.85,21.575760576460084L151.55,21.575760576460084L151.78333333333333,28.767672909630676L152.01666666666668,21.575760576460084L152.13333333333333,64.72728172938031L152.25,28.767672909630676L152.95000000000002,7.191912333170563L153.29999999999998,21.575760576460084L153.53333333333333,50.343433486090774L153.88333333333333,7.191912333170563L154.23333333333332,28.767672909630676L154.35,43.151521152920196L154.58333333333334,0L154.7,28.767672909630676L154.81666666666666,43.151521152920196L154.93333333333334,35.95958524280124L155.16666666666669,43.151521152920196L155.28333333333333,14.38384824328952L155.51666666666668,28.767672909630676L155.63333333333333,35.95958524280124L155.75,64.72728172938031L156.1,7.191912333170563L156.21666666666664,50.343433486090774L156.45,35.95958524280124L157.38333333333335,43.151521152920196L157.5,14.38384824328952L157.61666666666665,35.95958524280124L157.73333333333335,14.38384824328952L158.08333333333334,21.575760576460084L158.2,14.38384824328952L158.31666666666666,21.575760576460084L158.66666666666666,43.151521152920196L158.78333333333336,57.53534581926134L158.9,35.95958524280124L159.25,28.767672909630676L160.65,35.95958524280124L161,57.53534581926134L161.23333333333332,21.575760576460084L161.35000000000002,7.191912333170563L161.58333333333331,50.343433486090774L161.70000000000002,21.575760576460084L162.04999999999998,43.151521152920196L162.39999999999998,28.767672909630676L162.51666666666668,21.575760576460084L162.63333333333333,7.191912333170563L162.75,21.575760576460084L162.86666666666667,21.575760576460084L162.98333333333332,7.191912333170563L163.1,0L163.21666666666667,7.191912333170563L163.45,28.767672909630676L163.68333333333334,21.575760576460084L163.79999999999998,64.72728172938031L164.03333333333333,35.95958524280124L164.26666666666668,43.151521152920196L164.5,7.191912333170563L164.61666666666667,14.38384824328952L164.73333333333335,57.53534581926134L164.85,43.151521152920196L164.96666666666664,7.191912333170563L165.08333333333334,21.575760576460084L165.55,14.38384824328952L166.13333333333335,14.38384824328952L166.25,0L166.48333333333335,43.151521152920196L166.6,28.767672909630676L167.06666666666666,28.767672909630676L167.18333333333334,21.575760576460084L167.3,28.767672909630676L167.53333333333336,14.38384824328952L167.88333333333333,43.151521152920196L168.23333333333332,35.95958524280124L168.46666666666667,43.151521152920196L168.70000000000002,21.575760576460084L168.81666666666666,50.343433486090774L169.05,50.343433486090774L169.16666666666666,7.191912333170563L169.51666666666668,14.38384824328952L169.63333333333333,28.767672909630676L169.75,14.38384824328952L169.98333333333332,21.575760576460084L170.10000000000002,35.95958524280124L170.21666666666667,50.343433486090774L170.45000000000002,57.53534581926134L170.56666666666666,35.95958524280124L170.68333333333334,28.767672909630676L170.79999999999998,7.191912333170563L170.91666666666669,21.575760576460084L171.03333333333333,43.151521152920196L171.61666666666667,28.767672909630676L171.73333333333332,21.575760576460084L171.96666666666667,28.767672909630676L172.43333333333334,64.72728172938031L172.54999999999998,14.38384824328952L172.78333333333333,43.151521152920196L173.25,50.343433486090774L173.48333333333335,64.72728172938031L173.71666666666664,57.53534581926134L173.95,21.575760576460084L174.06666666666666,28.767672909630676L174.18333333333334,28.767672909630676L174.3,7.191912333170563L174.53333333333333,21.575760576460084L174.88333333333335,14.38384824328952L175,21.575760576460084L175.23333333333335,14.38384824328952L175.35,21.575760576460084L175.46666666666667,71.91919406255087L175.7,35.95958524280124L176.16666666666666,7.191912333170563L176.4,43.151521152920196L176.51666666666665,43.151521152920196L176.75,21.575760576460084L176.86666666666667,50.343433486090774L177.21666666666667,14.38384824328952L177.33333333333331,57.53534581926134L177.91666666666666,0L178.03333333333333,21.575760576460084L178.15,43.151521152920196L178.26666666666668,28.767672909630676L178.5,28.767672909630676L178.73333333333332,28.767672909630676L178.85000000000002,28.767672909630676L178.96666666666667,28.767672909630676L179.08333333333331,64.72728172938031L179.20000000000002,14.38384824328952L179.31666666666666,14.38384824328952L179.66666666666669,21.575760576460084L180.01666666666668,35.95958524280124L180.25,50.343433486090774L180.48333333333332,43.151521152920196L180.6,43.151521152920196L180.71666666666667,50.343433486090774L180.83333333333334,21.575760576460084L180.95,35.95958524280124L181.41666666666669,14.38384824328952L181.88333333333333,43.151521152920196L182.11666666666667,64.72728172938031L182.23333333333335,35.95958524280124L182.58333333333334,21.575760576460084L182.7,43.151521152920196L182.81666666666666,28.767672909630676L183.16666666666666,35.95958524280124L183.51666666666665,28.767672909630676L183.63333333333335,7.191912333170563L183.75,50.343433486090774L183.98333333333335,35.95958524280124L184.1,64.72728172938031L184.21666666666667,14.38384824328952L184.56666666666666,14.38384824328952L184.8,35.95958524280124L184.91666666666666,50.343433486090774L185.03333333333336,14.38384824328952L185.15,71.91919406255087L185.26666666666665,0L185.38333333333333,43.151521152920196L185.61666666666667,14.38384824328952L185.73333333333332,28.767672909630676L186.08333333333331,28.767672909630676L186.66666666666666,21.575760576460084L188.06666666666666,43.151521152920196L188.18333333333334,43.151521152920196L188.29999999999998,7.191912333170563L188.41666666666669,28.767672909630676L188.88333333333333,21.575760576460084L189.23333333333332,28.767672909630676L189.35,35.95958524280124L189.58333333333334,0L189.7,28.767672909630676L189.81666666666666,43.151521152920196L189.93333333333334,28.767672909630676L190.16666666666669,21.575760576460084L190.4,35.95958524280124L190.51666666666668,28.767672909630676L190.63333333333333,35.95958524280124L190.86666666666667,7.191912333170563L190.98333333333335,14.38384824328952L191.1,7.191912333170563L191.33333333333334,21.575760576460084L191.56666666666666,35.95958524280124L192.26666666666665,50.343433486090774L192.5,14.38384824328952L193.08333333333334,14.38384824328952L193.2,21.575760576460084L193.66666666666666,35.95958524280124L194.25,21.575760576460084L194.36666666666667,43.151521152920196L194.83333333333331,35.95958524280124L195.3,14.38384824328952L195.65,35.95958524280124L196,57.53534581926134L196.11666666666667,43.151521152920196L196.23333333333332,14.38384824328952L196.58333333333331,50.343433486090774L196.70000000000002,21.575760576460084L197.04999999999998,43.151521152920196L197.28333333333333,14.38384824328952L197.39999999999998,21.575760576460084L197.51666666666668,21.575760576460084L198.33333333333334,21.575760576460084L198.45,28.767672909630676L198.56666666666666,14.38384824328952L198.68333333333334,21.575760576460084L198.91666666666669,28.767672909630676L199.03333333333333,35.95958524280124L199.15,79.11110639572144L199.26666666666668,35.95958524280124L199.38333333333333,7.191912333170563L199.5,7.191912333170563L199.61666666666667,7.191912333170563L199.73333333333335,43.151521152920196L199.85,35.95958524280124L200.2,43.151521152920196L200.43333333333334,21.575760576460084L201.01666666666665,35.95958524280124L201.13333333333335,21.575760576460084L201.25,7.191912333170563L201.48333333333335,43.151521152920196L202.3,43.151521152920196L202.53333333333336,14.38384824328952L203.11666666666667,35.95958524280124L203.23333333333332,35.95958524280124L203.70000000000002,28.767672909630676L203.93333333333334,50.343433486090774L204.05,43.151521152920196L204.28333333333333,28.767672909630676L204.4,14.38384824328952L204.63333333333333,35.95958524280124L204.75,14.38384824328952L205.45000000000002,57.53534581926134L205.56666666666666,43.151521152920196L205.68333333333334,28.767672909630676L206.26666666666668,43.151521152920196L206.38333333333333,57.53534581926134L207.43333333333334,71.91919406255087L207.54999999999998,14.38384824328952L207.9,14.38384824328952L208.01666666666668,7.191912333170563L208.13333333333333,43.151521152920196L208.36666666666667,14.38384824328952L208.6,0L208.83333333333334,35.95958524280124L209.18333333333334,21.575760576460084L209.3,14.38384824328952L209.53333333333333,21.575760576460084L209.65,14.38384824328952L209.88333333333335,7.191912333170563L210.11666666666665,28.767672909630676L210.23333333333335,14.38384824328952L210.46666666666667,71.91919406255087L210.58333333333334,28.767672909630676L211.05,7.191912333170563L211.16666666666666,7.191912333170563L211.4,43.151521152920196L211.51666666666665,43.151521152920196L211.63333333333333,14.38384824328952L211.75,21.575760576460084L211.98333333333332,50.343433486090774L212.1,21.575760576460084L212.21666666666667,14.38384824328952L212.33333333333331,50.343433486090774L212.8,14.38384824328952L213.03333333333333,14.38384824328952L213.15,28.767672909630676L213.26666666666668,21.575760576460084L213.5,28.767672909630676L213.73333333333332,35.95958524280124L213.96666666666667,35.95958524280124L214.20000000000002,28.767672909630676L214.31666666666666,21.575760576460084L214.43333333333334,7.191912333170563L214.66666666666669,21.575760576460084L214.78333333333333,35.95958524280124L214.89999999999998,35.95958524280124L215.01666666666668,35.95958524280124L215.13333333333333,64.72728172938031L215.25,50.343433486090774L215.48333333333332,57.53534581926134L215.6,50.343433486090774L215.95,35.95958524280124L216.06666666666666,14.38384824328952L216.29999999999998,28.767672909630676L216.41666666666669,14.38384824328952L216.76666666666668,64.72728172938031L216.88333333333333,57.53534581926134L217,35.95958524280124L217.11666666666667,64.72728172938031L217.23333333333335,35.95958524280124L217.46666666666664,14.38384824328952L217.93333333333334,43.151521152920196L218.16666666666666,35.95958524280124L218.28333333333333,43.151521152920196L218.4,14.38384824328952L218.75,50.343433486090774L218.86666666666665,7.191912333170563L219.1,64.72728172938031L219.56666666666666,14.38384824328952L219.68333333333334,7.191912333170563L219.8,28.767672909630676L219.91666666666666,57.53534581926134L220.15,71.91919406255087L220.61666666666667,14.38384824328952L220.73333333333332,21.575760576460084L220.96666666666667,7.191912333170563L221.08333333333331,28.767672909630676L221.20000000000002,21.575760576460084L221.31666666666666,7.191912333170563L221.55,14.38384824328952L221.9,14.38384824328952L222.01666666666668,21.575760576460084L222.13333333333333,64.72728172938031L222.25,21.575760576460084L222.36666666666667,35.95958524280124L222.71666666666667,21.575760576460084L222.83333333333331,7.191912333170563L223.29999999999998,14.38384824328952L223.41666666666669,21.575760576460084L223.64999999999998,50.343433486090774L223.76666666666668,21.575760576460084L223.88333333333333,14.38384824328952L224.35,35.95958524280124L224.7,14.38384824328952L224.93333333333334,21.575760576460084L225.28333333333333,7.191912333170563L225.4,35.95958524280124L225.51666666666668,28.767672909630676L225.63333333333333,35.95958524280124L225.75,57.53534581926134L225.98333333333335,21.575760576460084L226.1,7.191912333170563L226.21666666666664,43.151521152920196L226.56666666666666,35.95958524280124L226.68333333333334,35.95958524280124L226.91666666666666,21.575760576460084L227.03333333333333,21.575760576460084L227.15,43.151521152920196L227.5,14.38384824328952L227.73333333333335,14.38384824328952L227.85,14.38384824328952L227.96666666666667,28.767672909630676L228.08333333333334,7.191912333170563L228.9,43.151521152920196L229.01666666666665,28.767672909630676L229.36666666666667,43.151521152920196L229.95000000000002,28.767672909630676L230.41666666666666,50.343433486090774L230.65,35.95958524280124L230.88333333333333,14.38384824328952L231.11666666666667,50.343433486090774L231.23333333333332,14.38384824328952L231.35000000000002,7.191912333170563L231.46666666666667,35.95958524280124L231.93333333333334,0L232.04999999999998,43.151521152920196L232.16666666666669,35.95958524280124L232.39999999999998,28.767672909630676L232.51666666666668,21.575760576460084L232.63333333333333,7.191912333170563L233.1,0L233.33333333333334,21.575760576460084L233.56666666666666,14.38384824328952L233.79999999999998,57.53534581926134L233.91666666666669,14.38384824328952L234.15,79.11110639572144L234.61666666666667,7.191912333170563L234.85,43.151521152920196L234.96666666666664,21.575760576460084L235.31666666666666,50.343433486090774L235.66666666666666,50.343433486090774L236.13333333333335,14.38384824328952L236.36666666666665,14.38384824328952L236.48333333333335,28.767672909630676L236.83333333333334,28.767672909630676L237.3,35.95958524280124L237.41666666666666,50.343433486090774L237.53333333333336,14.38384824328952L237.65,14.38384824328952L238,21.575760576460084L238.11666666666667,35.95958524280124L238.23333333333332,35.95958524280124L238.46666666666667,50.343433486090774L238.58333333333331,35.95958524280124L238.70000000000002,21.575760576460084L238.93333333333334,43.151521152920196L239.05,35.95958524280124L239.4,7.191912333170563L239.51666666666668,7.191912333170563L239.75,7.191912333170563L239.98333333333332,35.95958524280124L240.10000000000002,43.151521152920196L240.21666666666667,50.343433486090774L241.03333333333333,35.95958524280124L241.14999999999998,28.767672909630676L241.26666666666668,43.151521152920196L241.38333333333333,43.151521152920196L242.08333333333334,50.343433486090774L242.2,7.191912333170563L242.31666666666666,35.95958524280124L242.43333333333334,64.72728172938031L242.54999999999998,14.38384824328952L242.78333333333333,43.151521152920196L243.13333333333333,35.95958524280124L243.48333333333335,64.72728172938031L243.95,21.575760576460084L244.06666666666666,28.767672909630676L244.18333333333334,28.767672909630676L244.3,7.191912333170563L244.41666666666666,21.575760576460084L244.65,0L244.76666666666665,0L245.23333333333335,14.38384824328952L245.58333333333334,21.575760576460084L245.7,28.767672909630676L246.05,7.191912333170563L246.16666666666666,7.191912333170563L246.28333333333336,14.38384824328952L246.4,35.95958524280124L246.51666666666665,43.151521152920196L246.75,14.38384824328952L246.86666666666667,43.151521152920196L246.98333333333332,57.53534581926134L247.1,21.575760576460084L247.21666666666667,14.38384824328952L247.68333333333334,43.151521152920196L247.8,14.38384824328952L247.91666666666666,0L248.26666666666668,21.575760576460084L248.5,35.95958524280124L248.61666666666667,0L248.73333333333332,35.95958524280124L248.96666666666667,28.767672909630676L249.08333333333331,57.53534581926134L249.20000000000002,14.38384824328952L249.43333333333334,7.191912333170563L249.54999999999998,50.343433486090774L249.89999999999998,35.95958524280124L250.13333333333333,50.343433486090774L250.36666666666667,28.767672909630676L250.48333333333332,43.151521152920196L250.71666666666667,43.151521152920196L251.06666666666666,7.191912333170563L251.29999999999998,28.767672909630676L251.41666666666669,7.191912333170563L251.53333333333333,14.38384824328952L251.76666666666668,50.343433486090774L252,35.95958524280124L252.11666666666667,50.343433486090774L252.23333333333335,43.151521152920196L252.7,57.53534581926134L252.81666666666666,28.767672909630676L253.05,50.343433486090774L253.28333333333333,28.767672909630676L253.86666666666665,14.38384824328952L254.33333333333334,57.53534581926134L254.45,43.151521152920196L254.56666666666666,14.38384824328952L254.68333333333334,7.191912333170563L256.0833333333333,21.575760576460084L256.31666666666666,7.191912333170563L256.55,14.38384824328952" style="fill: none;" fill="none"></path></g></g></g></g></g></g><g transform="translate(50, 178)" clip-path="url(#clip_1)"><clipPath id="clip_1"><rect width="280" height="22"></rect></clipPath><g><g><line x1="0" y1="0" x2="0" y2="5" style="visibility: inherit;" fill="rgb(0, 0, 0)" stroke="rgb(204, 204, 204)" stroke-width="1px"></line><line x1="23.333333333333332" y1="0" x2="23.333333333333332" y2="5" style="visibility: inherit;" fill="rgb(0, 0, 0)" stroke="rgb(204, 204, 204)" stroke-width="1px"></line><line x1="46.666666666666664" y1="0" x2="46.666666666666664" y2="5" style="visibility: inherit;" fill="rgb(0, 0, 0)" stroke="rgb(204, 204, 204)" stroke-width="1px"></line><line x1="70" y1="0" x2="70" y2="5" style="visibility: inherit;" fill="rgb(0, 0, 0)" stroke="rgb(204, 204, 204)" stroke-width="1px"></line><line x1="93.33333333333333" y1="0" x2="93.33333333333333" y2="5" style="visibility: inherit;" fill="rgb(0, 0, 0)" stroke="rgb(204, 204, 204)" stroke-width="1px"></line><line x1="116.66666666666667" y1="0" x2="116.66666666666667" y2="5" style="visibility: inherit;" fill="rgb(0, 0, 0)" stroke="rgb(204, 204, 204)" stroke-width="1px"></line><line x1="140" y1="0" x2="140" y2="5" style="visibility: inherit;" fill="rgb(0, 0, 0)" stroke="rgb(204, 204, 204)" stroke-width="1px"></line><line x1="163.33333333333334" y1="0" x2="163.33333333333334" y2="5" style="visibility: inherit;" fill="rgb(0, 0, 0)" stroke="rgb(204, 204, 204)" stroke-width="1px"></line><line x1="186.66666666666666" y1="0" x2="186.66666666666666" y2="5" style="visibility: inherit;" fill="rgb(0, 0, 0)" stroke="rgb(204, 204, 204)" stroke-width="1px"></line><line x1="210" y1="0" x2="210" y2="5" style="visibility: inherit;" fill="rgb(0, 0, 0)" stroke="rgb(204, 204, 204)" stroke-width="1px"></line><line x1="233.33333333333334" y1="0" x2="233.33333333333334" y2="5" style="visibility: inherit;" fill="rgb(0, 0, 0)" stroke="rgb(204, 204, 204)" stroke-width="1px"></line><line x1="256.66666666666663" y1="0" x2="256.66666666666663" y2="5" style="visibility: inherit;" fill="rgb(0, 0, 0)" stroke="rgb(204, 204, 204)" stroke-width="1px"></line><line x1="280" y1="0" x2="280" y2="5" style="visibility: inherit;" fill="rgb(0, 0, 0)" stroke="rgb(204, 204, 204)" stroke-width="1px"></line></g><g transform="translate(0, 8)"><text x="0" y="0" dx="0em" dy="0.95em" style="text-anchor: middle; visibility: hidden; font-family: &quot;Helvetica Neue&quot;, sans-serif; font-size: 12px; font-weight: 200;" fill="rgb(50, 49, 63)" stroke="none" stroke-width="1px">-2k</text><text x="23.333333333333332" y="0" dx="0em" dy="0.95em" style="text-anchor: middle; visibility: inherit; font-family: &quot;Helvetica Neue&quot;, sans-serif; font-size: 12px; font-weight: 200;" fill="rgb(50, 49, 63)" stroke="none" stroke-width="1px">0</text><text x="46.666666666666664" y="0" dx="0em" dy="0.95em" style="text-anchor: middle; visibility: hidden; font-family: &quot;Helvetica Neue&quot;, sans-serif; font-size: 12px; font-weight: 200;" fill="rgb(50, 49, 63)" stroke="none" stroke-width="1px">2k</text><text x="70" y="0" dx="0em" dy="0.95em" style="text-anchor: middle; visibility: inherit; font-family: &quot;Helvetica Neue&quot;, sans-serif; font-size: 12px; font-weight: 200;" fill="rgb(50, 49, 63)" stroke="none" stroke-width="1px">4k</text><text x="93.33333333333333" y="0" dx="0em" dy="0.95em" style="text-anchor: middle; visibility: hidden; font-family: &quot;Helvetica Neue&quot;, sans-serif; font-size: 12px; font-weight: 200;" fill="rgb(50, 49, 63)" stroke="none" stroke-width="1px">6k</text><text x="116.66666666666667" y="0" dx="0em" dy="0.95em" style="text-anchor: middle; visibility: inherit; font-family: &quot;Helvetica Neue&quot;, sans-serif; font-size: 12px; font-weight: 200;" fill="rgb(50, 49, 63)" stroke="none" stroke-width="1px">8k</text><text x="140" y="0" dx="0em" dy="0.95em" style="text-anchor: middle; visibility: hidden; font-family: &quot;Helvetica Neue&quot;, sans-serif; font-size: 12px; font-weight: 200;" fill="rgb(50, 49, 63)" stroke="none" stroke-width="1px">10k</text><text x="163.33333333333334" y="0" dx="0em" dy="0.95em" style="text-anchor: middle; visibility: inherit; font-family: &quot;Helvetica Neue&quot;, sans-serif; font-size: 12px; font-weight: 200;" fill="rgb(50, 49, 63)" stroke="none" stroke-width="1px">12k</text><text x="186.66666666666666" y="0" dx="0em" dy="0.95em" style="text-anchor: middle; visibility: hidden; font-family: &quot;Helvetica Neue&quot;, sans-serif; font-size: 12px; font-weight: 200;" fill="rgb(50, 49, 63)" stroke="none" stroke-width="1px">14k</text><text x="210" y="0" dx="0em" dy="0.95em" style="text-anchor: middle; visibility: inherit; font-family: &quot;Helvetica Neue&quot;, sans-serif; font-size: 12px; font-weight: 200;" fill="rgb(50, 49, 63)" stroke="none" stroke-width="1px">16k</text><text x="233.33333333333334" y="0" dx="0em" dy="0.95em" style="text-anchor: middle; visibility: hidden; font-family: &quot;Helvetica Neue&quot;, sans-serif; font-size: 12px; font-weight: 200;" fill="rgb(50, 49, 63)" stroke="none" stroke-width="1px">18k</text><text x="256.66666666666663" y="0" dx="0em" dy="0.95em" style="text-anchor: middle; visibility: inherit; font-family: &quot;Helvetica Neue&quot;, sans-serif; font-size: 12px; font-weight: 200;" fill="rgb(50, 49, 63)" stroke="none" stroke-width="1px">20k</text><text x="280" y="0" dx="0em" dy="0.95em" style="text-anchor: middle; visibility: hidden; font-family: &quot;Helvetica Neue&quot;, sans-serif; font-size: 12px; font-weight: 200;" fill="rgb(50, 49, 63)" stroke="none" stroke-width="1px">22k</text></g><line x1="0" y1="0" x2="280" y2="0" fill="rgb(0, 0, 0)" stroke="rgb(204, 204, 204)" stroke-width="1px"></line></g></g></g></g></svg>