<svg viewBox="0 0 330 200" xmlns="http://www.w3.org/2000/svg"><g><g><g><g><g><line x1="50" y1="178" x2="45" y2="178" style="visibility: inherit;" fill="rgb(0, 0, 0)" stroke="rgb(204, 204, 204)" stroke-width="1px"></line><line x1="50" y1="155.75" x2="45" y2="155.75" style="visibility: inherit;" fill="rgb(0, 0, 0)" stroke="rgb(204, 204, 204)" stroke-width="1px"></line><line x1="50" y1="133.5" x2="45" y2="133.5" style="visibility: inherit;" fill="rgb(0, 0, 0)" stroke="rgb(204, 204, 204)" stroke-width="1px"></line><line x1="50" y1="111.25" x2="45" y2="111.25" style="visibility: inherit;" fill="rgb(0, 0, 0)" stroke="rgb(204, 204, 204)" stroke-width="1px"></line><line x1="50" y1="89" x2="45" y2="89" style="visibility: inherit;" fill="rgb(0, 0, 0)" stroke="rgb(204, 204, 204)" stroke-width="1px"></line><line x1="50" y1="66.75" x2="45" y2="66.75" style="visibility: inherit;" fill="rgb(0, 0, 0)" stroke="rgb(204, 204, 204)" stroke-width="1px"></line><line x1="50" y1="44.5" x2="45" y2="44.5" style="visibility: inherit;" fill="rgb(0, 0, 0)" stroke="rgb(204, 204, 204)" stroke-width="1px"></line><line x1="50" y1="22.25" x2="45" y2="22.25" style="visibility: inherit;" fill="rgb(0, 0, 0)" stroke="rgb(204, 204, 204)" stroke-width="1px"></line><line x1="50" y1="0" x2="45" y2="0" style="visibility: inherit;" fill="rgb(0, 0, 0)" stroke="rgb(204, 204, 204)" stroke-width="1px"></line></g><g transform="translate(40, 0)"><text x="0" y="178" dx="0em" dy="0.3em" style="text-anchor: end; visibility: hidden; font-family: &quot;Helvetica Neue&quot;, sans-serif; font-size: 12px; font-weight: 200;" fill="rgb(50, 49, 63)" stroke="none" stroke-width="1px">-0.5</text><text x="0" y="155.75" dx="0em" dy="0.3em" style="text-anchor: end; visibility: inherit; font-family: &quot;Helvetica Neue&quot;, sans-serif; font-size: 12px; font-weight: 200;" fill="rgb(50, 49, 63)" stroke="none" stroke-width="1px">0</text><text x="0" y="133.5" dx="0em" dy="0.3em" style="text-anchor: end; visibility: hidden; font-family: &quot;Helvetica Neue&quot;, sans-serif; font-size: 12px; font-weight: 200;" fill="rgb(50, 49, 63)" stroke="none" stroke-width="1px">0.5</text><text x="0" y="111.25" dx="0em" dy="0.3em" style="text-anchor: end; visibility: inherit; font-family: &quot;Helvetica Neue&quot;, sans-serif; font-size: 12px; font-weight: 200;" fill="rgb(50, 49, 63)" stroke="none" stroke-width="1px">1</text><text x="0" y="89" dx="0em" dy="0.3em" style="text-anchor: end; visibility: hidden; font-family: &quot;Helvetica Neue&quot;, sans-serif; font-size: 12px; font-weight: 200;" fill="rgb(50, 49, 63)" stroke="none" stroke-width="1px">1.5</text><text x="0" y="66.75" dx="0em" dy="0.3em" style="text-anchor: end; visibility: inherit; font-family: &quot;Helvetica Neue&quot;, sans-serif; font-size: 12px; font-weight: 200;" fill="rgb(50, 49, 63)" stroke="none" stroke-width="1px">2</text><text x="0" y="44.5" dx="0em" dy="0.3em" style="text-anchor: end; visibility: hidden; font-family: &quot;Helvetica Neue&quot;, sans-serif; font-size: 12px; font-weight: 200;" fill="rgb(50, 49, 63)" stroke="none" stroke-width="1px">2.5</text><text x="0" y="22.25" dx="0em" dy="0.3em" style="text-anchor: end; visibility: inherit; font-family: &quot;Helvetica Neue&quot;, sans-serif; font-size: 12px; font-weight: 200;" fill="rgb(50, 49, 63)" stroke="none" stroke-width="1px">3</text><text x="0" y="0" dx="0em" dy="0.3em" style="text-anchor: end; visibility: hidden; font-family: &quot;Helvetica Neue&quot;, sans-serif; font-size: 12px; font-weight: 200;" fill="rgb(50, 49, 63)" stroke="none" stroke-width="1px">3.5</text></g><line x1="50" y1="0" x2="50" y2="178" fill="rgb(0, 0, 0)" stroke="rgb(204, 204, 204)" stroke-width="1px"></line></g></g><g transform="translate(50, 0)" clip-path="url(#clip_0)"><clipPath id="clip_0"><rect width="280" height="178"></rect></clipPath><g><g><g><line x1="0" y1="0" x2="0" y2="178" fill="rgb(0, 0, 0)" stroke="rgb(60, 60, 60)" stroke-width="1px" opacity="0.25"></line><line x1="23.333333333333332" y1="0" x2="23.333333333333332" y2="178" fill="rgb(0, 0, 0)" stroke="rgb(60, 60, 60)" stroke-width="1px" opacity="0.25"></line><line x1="46.666666666666664" y1="0" x2="46.666666666666664" y2="178" fill="rgb(0, 0, 0)" stroke="rgb(60, 60, 60)" stroke-width="1px" opacity="0.25"></line><line x1="70" y1="0" x2="70" y2="178" fill="rgb(0, 0, 0)" stroke="rgb(60, 60, 60)" stroke-width="1px" opacity="0.25"></line><line x1="93.33333333333333" y1="0" x2="93.33333333333333" y2="178" fill="rgb(0, 0, 0)" stroke="rgb(60, 60, 60)" stroke-width="1px" opacity="0.25"></line><line x1="116.66666666666667" y1="0" x2="116.66666666666667" y2="178" fill="rgb(0, 0, 0)" stroke="rgb(60, 60, 60)" stroke-width="1px" opacity="0.25"></line><line x1="140" y1="0" x2="140" y2="178" fill="rgb(0, 0, 0)" stroke="rgb(60, 60, 60)" stroke-width="1px" opacity="0.25"></line><line x1="163.33333333333334" y1="0" x2="163.33333333333334" y2="178" fill="rgb(0, 0, 0)" stroke="rgb(60, 60, 60)" stroke-width="1px" opacity="0.25"></line><line x1="186.66666666666666" y1="0" x2="186.66666666666666" y2="178" fill="rgb(0, 0, 0)" stroke="rgb(60, 60, 60)" stroke-width="1px" opacity="0.25"></line><line x1="210" y1="0" x2="210" y2="178" fill="rgb(0, 0, 0)" stroke="rgb(60, 60, 60)" stroke-width="1px" opacity="0.25"></line><line x1="233.33333333333334" y1="0" x2="233.33333333333334" y2="178" fill="rgb(0, 0, 0)" stroke="rgb(60, 60, 60)" stroke-width="1px" opacity="0.25"></line><line x1="256.66666666666663" y1="0" x2="256.66666666666663" y2="178" fill="rgb(0, 0, 0)" stroke="rgb(60, 60, 60)" stroke-width="1px" opacity="0.25"></line><line x1="280" y1="0" x2="280" y2="178" fill="rgb(0, 0, 0)" stroke="rgb(60, 60, 60)" stroke-width="1px" opacity="0.25"></line></g><g><line x1="0" y1="178" x2="280" y2="178" fill="rgb(0, 0, 0)" stroke="rgb(60, 60, 60)" stroke-width="1px" opacity="0.25"></line><line x1="0" y1="155.75" x2="280" y2="155.75" fill="rgb(0, 0, 0)" stroke="rgb(60, 60, 60)" stroke-width="1px" opacity="0.25"></line><line x1="0" y1="133.5" x2="280" y2="133.5" fill="rgb(0, 0, 0)" stroke="rgb(60, 60, 60)" stroke-width="1px" opacity="0.25"></line><line x1="0" y1="111.25" x2="280" y2="111.25" fill="rgb(0, 0, 0)" stroke="rgb(60, 60, 60)" stroke-width="1px" opacity="0.25"></line><line x1="0" y1="89" x2="280" y2="89" fill="rgb(0, 0, 0)" stroke="rgb(60, 60, 60)" stroke-width="1px" opacity="0.25"></line><line x1="0" y1="66.75" x2="280" y2="66.75" fill="rgb(0, 0, 0)" stroke="rgb(60, 60, 60)" stroke-width="1px" opacity="0.25"></line><line x1="0" y1="44.5" x2="280" y2="44.5" fill="rgb(0, 0, 0)" stroke="rgb(60, 60, 60)" stroke-width="1px" opacity="0.25"></line><line x1="0" y1="22.25" x2="280" y2="22.25" fill="rgb(0, 0, 0)" stroke="rgb(60, 60, 60)" stroke-width="1px" opacity="0.25"></line><line x1="0" y1="0" x2="280" y2="0" fill="rgb(0, 0, 0)" stroke="rgb(60, 60, 60)" stroke-width="1px" opacity="0.25"></line></g></g></g><g><g><line x1="0" y1="155.75" x2="280" y2="155.75" fill="rgb(0, 0, 0)" stroke="rgb(153, 153, 153)" stroke-width="1.5px"></line></g></g><g><g><line x1="23.333333333333332" y1="0" x2="23.333333333333332" y2="178" fill="rgb(0, 0, 0)" stroke="rgb(153, 153, 153)" stroke-width="1.5px"></line></g></g><g><g><g><g><g><path stroke="rgb(204, 51, 17)" stroke-width="2px" d="M24.03333333333333,-0.6316787748693002L24.5,37.821582886231596L24.616666666666667,56.896314626273394L24.849999999999998,61.538584026419926L24.96666666666667,68.77173733466978L25.083333333333332,68.63875676325085L25.31666666666667,64.23633895019148L25.433333333333334,70.40813545340626L25.55,74.40912205538405L25.666666666666664,73.35642747738027L26.133333333333333,78.41074453015902L27.18333333333333,83.05857061523756L27.3,82.74820350390617L27.53333333333333,85.20328117464749L27.883333333333333,84.31922187433159L28,88.44503899013804L28.233333333333334,89.56103176237814L28.46666666666667,90.0796714070433L28.583333333333332,92.5129783377453L28.816666666666666,92.53355218096591L29.049999999999997,95.13328264419808L29.166666666666668,95.90398991261021L29.51666666666667,99.03728197370658L29.633333333333333,99.9520245390076L29.75,102.00970638681873L29.866666666666667,104.18033789950714L29.983333333333334,105.43388437076983L30.333333333333336,106.18827768076329L30.45,105.36719698201362L30.683333333333334,106.13156956355373L30.916666666666664,107.87571903940335L31.033333333333335,107.1382438794714L31.150000000000002,108.58380516306705L31.266666666666666,107.37703718091589L31.616666666666667,108.00725236516634L31.73333333333333,109.9229585427964L31.85,110.98050605884652L31.966666666666665,111.76909373372789L32.2,113.28352211050176L32.550000000000004,114.76922888196385L33.13333333333333,114.9824924242921L33.25,115.10274259492591L33.36666666666667,116.24841685618361L33.483333333333334,116.06965583981543L33.6,117.69773258742444L33.71666666666667,117.25765590333661L34.3,118.44029694398064L35.233333333333334,119.30851195713507L35.58333333333333,119.2792436948522L35.7,119.74425354269754L36.516666666666666,119.32862056527767L36.86666666666666,119.20470825093386L37.1,120.05846093379041L37.21666666666666,120.72141476459252L37.333333333333336,120.45871481747764L37.800000000000004,121.30669730549195L37.916666666666664,122.53452448577104L38.03333333333333,123.46065824965686L38.38333333333333,123.00239379182605L38.5,123.66578697339011L38.85,124.40913791910066L39.31666666666666,125.1113628799423L39.55,124.04190215471712L39.78333333333333,125.08704960071233L39.9,124.84793484880397L40.016666666666666,124.99174823918008L40.13333333333333,124.4997616631833L40.599999999999994,124.7552084015336L40.833333333333336,124.91833912295914L41.18333333333334,125.94140848608708L41.3,126.29433162701216L41.416666666666664,127.03136335322435L41.65,127.47710594791417L41.766666666666666,127.83905736757055L41.88333333333334,126.84807294221508L42.233333333333334,127.43069685693425L42.46666666666667,127.70428203420632L42.58333333333333,128.18342380296906L42.81666666666667,128.71435095752568L42.93333333333333,127.87441437440967L43.28333333333333,128.02068697391806L43.86666666666667,128.92369056476042L43.983333333333334,128.70999358132997L44.1,127.71013714344033L44.33333333333333,126.84356778310755L44.45,126.5687817953434L44.68333333333333,127.17720396174983L44.91666666666667,126.96303676188003L45.03333333333333,127.65558893536587L45.15,127.28574538377896L45.266666666666666,128.4321334941208L45.5,128.34075440378894L45.61666666666666,128.6865936347048L46.43333333333333,129.73576925289314L46.900000000000006,130.04420989040608L47.36666666666667,130.2663182073843L47.483333333333334,128.95819071868024L47.6,128.32462053783402L48.06666666666666,128.17337998579163L48.416666666666664,128.44376034468502L48.766666666666666,128.85593819979346L48.88333333333333,129.25841226058392L49.233333333333334,128.81259058106133L49.349999999999994,128.7573041129853L49.583333333333336,129.65755908324485L49.699999999999996,130.3576987516985L49.81666666666667,130.43423426651455L50.05,129.97504848644746L50.166666666666664,130.55108885740208L50.4,130.22705499421346L50.516666666666666,130.78044747731633L50.63333333333334,130.29026039107254L50.983333333333334,130.67428199597947L51.33333333333333,131.3661659622689L51.91666666666667,131.8857265534263L52.15,131.50657873586374L52.38333333333333,131.77118758499125L52.5,132.1078694365686L53.08333333333333,132.58889869623476L53.43333333333333,132.83804735901265L53.550000000000004,131.6893361799205L53.66666666666667,131.66421936963698L53.78333333333333,130.8895788855874L54.016666666666666,130.87606178928195L54.483333333333334,131.4474793972613L54.71666666666666,131.05944392969167L54.95,131.20420649451935L55.18333333333333,131.44434458488075L55.766666666666666,130.60468498884586L56,129.73995300234196L56.46666666666667,129.73232001469745L57.05,129.56374369092453L57.28333333333333,130.07531852304896L57.4,130.48745217504904L57.75,131.01483280587382L57.983333333333334,131.76906072984988L58.099999999999994,132.70127084926145L58.21666666666667,133.27504745680824L58.449999999999996,133.56877128214182L58.56666666666667,133.7788265203109L58.68333333333334,134.27284582044487L59.15,133.17241159028094L59.266666666666666,132.5600801474107L59.5,133.3850620928331L59.85,133.1844938577977L60.31666666666667,132.38314902849493L60.43333333333333,132.73442362111942L60.55,133.09116715520977L60.66666666666667,132.6558664297117L60.9,132.29744966654675L61.25,133.0773687150307L61.36666666666667,133.70559658357357L61.483333333333334,133.87418357681887L61.83333333333333,134.23204181603504L61.95,134.76813528830075L62.18333333333333,135.21142573412956L62.88333333333333,134.33682542886936L63.11666666666666,134.81546277664685L63.46666666666666,134.32966223707865L63.583333333333336,134.67871028891852L63.81666666666666,134.41814423904754L63.93333333333333,134.47718697072196L64.51666666666667,135.13032033170754L64.63333333333334,135.28863246506984L64.86666666666666,135.65989448920044L65.10000000000001,135.8885923448159L65.21666666666667,134.94568074429017L65.33333333333333,134.85523158992126L65.68333333333334,134.83021627052815L65.8,135.2463311662079L66.14999999999999,135.67477201731833L66.26666666666667,134.9873619809676L66.5,135.23364402565113L66.61666666666666,135.27480652831136L66.85,135.47626790177554L67.31666666666666,135.28294792440582L67.43333333333334,134.4627536402911L67.55,135.0314481459181L67.78333333333333,134.69968182483598L67.89999999999999,135.06431465924527L68.25,134.6800253924432L68.36666666666667,135.14414895005905L68.48333333333333,134.76931633475047L68.6,135.59227869216917L68.83333333333333,135.35609859634013L68.95,135.72907154268847L69.06666666666666,135.95721682880753L69.18333333333334,136.37889581394296L70.23333333333333,136.5115709810403L70.35,136.91949139997226L70.58333333333333,136.97252304165744L70.93333333333334,136.4120374391023L71.75,136.58220696597795L71.86666666666666,136.24804165374925L72.33333333333334,135.81593865190092L72.44999999999999,135.75370651025617L72.56666666666666,135.42434347499812L72.8,135.82057274007295L73.03333333333333,136.32715503965534L73.5,136.60012076478648L74.55,135.9060952543667L74.66666666666667,136.47297247772516L74.78333333333333,136.78793349404663L74.9,136.7489852700872L75.13333333333333,136.29023171338667L75.25,136.6365060171574L75.60000000000001,136.59246419835125L75.95,136.74140424568293L76.76666666666667,136.9436771288808L76.88333333333334,136.15072499836552L77,136.12308102937766L77.11666666666666,135.58875120955642L77.35,135.45550228912398L77.46666666666667,135.90566393198253L77.58333333333334,136.19183597930498L77.81666666666666,136.60929784763823L77.93333333333334,136.05255334296967L78.05,135.57583918660578L78.28333333333333,135.58727495194086L78.51666666666667,135.81906983818726L78.63333333333333,136.16581125181415L79.1,135.2802853610552L79.91666666666666,134.96347331960442L80.26666666666667,135.75590993129842L80.38333333333334,135.4653728178136L80.61666666666666,135.90325593621094L80.85000000000001,136.35205488042135L81.19999999999999,136.81634844414862L82.48333333333332,135.8913631621905L82.83333333333333,136.61022861370367L82.95,136.98655834518368L83.06666666666668,136.79823901569034L83.3,137.0870334241388L83.53333333333333,136.89908998834454L83.65,136.1394792814252L83.88333333333333,136.440015270504L84.46666666666667,136.7787278690231L84.58333333333333,137.4424642864189L85.28333333333333,137.9986614997634L85.51666666666667,138.34862866538336L85.63333333333334,137.91501172685895L85.75,137.4966208445705L85.86666666666666,137.947080400949L85.98333333333333,138.29896743426178L86.1,138.6542444429361L86.21666666666667,138.0428430093666L86.33333333333334,138.5406615047724L86.45,138.848805216002L86.56666666666666,138.89931028645393L86.8,138.52831831064245L87.15,138.34400319338368L87.26666666666667,138.27061995789936L87.38333333333333,138.33915301381563L87.61666666666667,138.45472110099874L88.08333333333333,138.84008346897912L88.31666666666666,139.11637139531103L88.55,138.334268442911L89.01666666666667,138.22901523345632L89.13333333333334,138.57769110706136L89.25,138.75913470800515L89.48333333333333,139.05257518290853L89.71666666666667,138.72334528856612L89.94999999999999,138.76294297068043L90.18333333333334,138.99679209769658L90.3,139.22409155283674L90.64999999999999,139.161745379781L90.88333333333334,139.54978612334313L91,138.5046584790809L91.11666666666667,138.16245156780937L91.23333333333332,138.41112284236652L91.35,138.88651392031022L91.46666666666667,138.83573682671374L91.7,139.1744647892669L91.81666666666668,138.83072348115192L92.4,139.01640584580474L92.51666666666668,139.33424145032077L92.75,139.64117408960283L92.86666666666666,139.96151840155466L92.98333333333333,140.40440636506838L93.33333333333333,140.33680039962618L93.56666666666666,140.3558247895613L93.80000000000001,140.01055036105055L94.03333333333333,140.02923881413147L94.26666666666667,139.58979741790944L94.5,140.1659767965372L94.61666666666666,140.39772999724642L94.73333333333333,140.17383935274466L95.08333333333334,140.22103530940205L95.55,140.42433813168327L95.66666666666667,139.9148714859677L95.9,139.52639323971943L96.01666666666667,139.48513649370744L96.25,140.0359002161504L96.71666666666667,139.4949841921775L97.3,139.16138629781585L98.11666666666666,139.46613724117051L98.23333333333333,139.40434832101715L98.46666666666667,139.0901183847644L98.58333333333334,139.2662225203145L98.69999999999999,139.3333882476719L98.81666666666666,139.14823778673528L98.93333333333334,139.12741947140782L99.05,139.18095837706406L99.28333333333333,139.31524578631084L99.39999999999999,139.78034933043372L99.86666666666667,140.14484093391735L99.98333333333332,140.42713901603554L100.21666666666667,139.6187266243769L100.45,139.1899378332L100.8,139.55343743235048L101.03333333333333,139.31088307842674L101.15,139.6005968617269L101.26666666666668,138.906434101284L101.61666666666666,138.99813668582166L101.73333333333333,139.42630529243544L101.85000000000001,139.6195049372659L101.96666666666667,139.94100805708334L102.08333333333333,138.88867421187985L102.31666666666666,138.92474985804205L102.43333333333334,138.22620184047452L102.55000000000001,138.68048860217016L102.78333333333333,138.4203517937926L102.89999999999999,138.68294624574838L103.01666666666667,139.1661239032955L103.13333333333334,139.14614703323113L103.25,138.80330032338534L103.36666666666666,139.16303724588943L103.6,139.79444677365643L103.71666666666667,139.39798995745406L104.06666666666666,139.63753259295106L104.53333333333333,140.00482616404497L104.88333333333333,140.32377444015128L105,140.35572784466143L105.11666666666667,140.40399786372944L105.35,140.71370706724693L105.46666666666667,140.42651898929196L105.58333333333333,140.5529463077758L105.7,140.58598659857L105.93333333333334,140.0980783941817L106.05,140.43678261100035L106.16666666666666,140.97803100085966L106.63333333333334,141.11557846942873L107.10000000000001,141.16771145839328L107.21666666666667,141.345615919413L107.44999999999999,141.09299800941136L107.56666666666666,140.77066281962354L107.68333333333334,140.71724350258134L107.8,140.89933174804347L107.91666666666667,141.3913101078098L108.03333333333333,141.65591902765576L108.38333333333334,141.16640443345347L108.5,141.4054287744325L109.2,141.78416637500354L109.43333333333332,142.05225318312665L109.55,141.49027420318623L109.66666666666667,141.8236379959919L109.78333333333333,142.04420900941932L110.01666666666668,141.8719416216727L110.36666666666666,141.82442140681013L110.48333333333333,141.58711566037456L110.83333333333333,141.71025103097216L110.95,141.7424742238547L111.06666666666666,142.10826007235892L111.30000000000001,142.10650415569478L111.53333333333333,142.3868151223517L111.88333333333334,141.45155302015638L112,141.39363320030677L112.23333333333333,141.5879722062404L112.58333333333334,141.6783855278332L112.7,141.35849603191983L112.81666666666666,141.57666954184702L113.05,141.22339132703945L113.16666666666667,141.16575247612906L113.28333333333333,141.15208292612763L113.51666666666667,141.17825782408858L113.63333333333333,141.43982987900534L113.75,140.28364528801256L114.33333333333333,139.2250738733739L114.8,139.16356676110397L114.91666666666666,138.75922633182918L115.15,138.39611218883726L115.38333333333334,138.1406562970173L115.61666666666666,138.57831754777578L115.73333333333333,138.82437912801282L115.85000000000001,139.04098849941167L115.96666666666667,139.45453149129366L116.08333333333334,139.73451789974285L116.19999999999999,140.06645027663268L116.43333333333334,140.6610612629543L116.66666666666667,140.66938626642082L116.89999999999999,140.69723321779932L117.25,140.82811989902592L117.48333333333332,139.8828818904896L117.6,139.44832344523192L117.71666666666667,139.84690308745587L118.18333333333332,139.44873865072435L118.41666666666667,139.5748726909307L118.53333333333333,139.39704959473144L118.76666666666668,139.51099074382927L119.11666666666666,139.3658174844898L119.35000000000001,139.34280087296924L119.46666666666667,139.59300312618325L119.58333333333333,140.1378661350159L119.93333333333334,140.38315458949546L120.28333333333333,140.8191779556853L120.39999999999999,140.46943863207565L120.63333333333334,140.0423495660075L120.86666666666666,140.42466676747824L121.1,140.73683585247068L121.68333333333334,140.61232948484647L121.91666666666667,140.7270450773903L122.03333333333333,140.80340929320727L122.15,140.6034950968151L122.26666666666667,140.4801857929022L122.61666666666667,140.53653975397415L123.31666666666666,140.81205926329585L123.55,139.93595773646138L123.66666666666666,139.9879864072769L123.78333333333333,139.50470508315L123.9,139.79385953014497L124.01666666666667,139.69626810767372L124.48333333333333,139.99145467006616L124.71666666666667,139.74423882046483L124.83333333333334,139.7814661018952L125.18333333333334,139.96917955323607L125.3,140.23196191753772L125.41666666666667,139.11625803228364L125.53333333333333,139.67747622206838L125.64999999999999,139.6633532565528L125.88333333333334,140.01216652748298L126,139.08700472343872L126.11666666666667,138.74200937202363L126.23333333333332,139.01877941433858L126.46666666666667,139.03005728974205L126.81666666666668,138.64982031003143L127.05,138.40502865971285L127.16666666666667,138.15787111582569L127.4,138.4965861997187L127.51666666666668,138.81109048031215L127.86666666666666,139.18694933078925L127.98333333333333,139.64489875441092L128.21666666666667,139.96283018830934L128.33333333333331,139.991530109152L129.15,139.19032671275053L129.26666666666668,138.78654997989426L129.38333333333333,139.25815437549423L129.5,139.8444325420852L129.61666666666667,140.1148489660836L129.73333333333332,139.9446502760768L129.85,139.5321216548525L130.08333333333334,139.64227395774805L130.20000000000002,139.42313052135626L130.31666666666666,138.80034724903368L130.66666666666666,138.43485815607016L130.78333333333333,138.35140829152277L130.9,138.21784616125L131.01666666666665,138.29835857848752L131.25,138.91123352477314L131.95,139.44876130278897L132.06666666666666,139.13560386355692L132.18333333333334,139.4599574889657L132.41666666666666,139.1192221316689L132.88333333333333,138.68125096427914L133.23333333333332,138.75893634359855L133.58333333333334,138.99611729924794L134.05,139.14320997874847L134.4,139.6213131731704L134.51666666666665,140.15147187354538L134.63333333333333,140.29200409735188L134.86666666666667,140.65316458189244L134.98333333333332,140.88829766130084L135.1,140.8785792168889L135.45000000000002,140.39162145603166L135.56666666666666,140.63848818748855L135.79999999999998,140.9224182637852L136.03333333333333,140.67780947722719L136.15,140.9092004850175L136.38333333333333,140.72032417791166L136.61666666666667,140.74050348526205L136.73333333333335,141.10249361467524L136.96666666666667,141.34855876041362L137.2,141.7952826356185L137.31666666666666,141.74601779784848L137.43333333333334,141.04909110870722L137.55,141.38885537429212L137.9,141.5660900864241L138.01666666666668,141.95891646704382L138.13333333333333,141.9018484674027L138.48333333333332,141.41053217206624L138.6,141.9491880673414L139.53333333333333,142.16643484878372L139.88333333333333,142.36123095224355L140,142.3519647881439L140.23333333333335,142.293899069329L140.46666666666667,141.9596039646297L140.58333333333334,142.06520971447992L140.93333333333334,141.52768808472754L141.05,141.871946496681L141.28333333333336,142.09214741567123L141.4,141.85949981882044L141.51666666666665,141.51810951642287L141.63333333333333,141.6453670197394L141.98333333333332,140.89783804642371L142.91666666666666,141.40872501464943L143.03333333333333,141.69439659972232L143.15,141.81370418703239L143.38333333333333,141.3148273374703L143.61666666666667,141.73156829612958L143.73333333333332,141.4063479693243L143.85000000000002,141.62128826749972L144.08333333333331,141.26983893983166L144.31666666666666,141.57917829109766L144.43333333333334,141.86907708632023L144.54999999999998,141.3405762851294L144.89999999999998,141.31064485312885L145.01666666666668,141.21439512254466L145.13333333333333,140.94576294148357L145.71666666666667,140.9921448568126L145.95,141.09910356516878L146.06666666666666,141.4805052644752L146.29999999999998,141.49890636775058L146.41666666666669,141.8577565456547L146.65,142.05186942854905L147.35,141.88564388539794L147.46666666666664,142.19275621352898L147.7,141.97247919876463L147.93333333333334,141.23529499185517L148.4,141.53553486559846L148.63333333333335,141.79813051426123L148.86666666666665,142.21635162935348L149.1,141.48168018780785L149.33333333333334,140.61470901895183L149.56666666666666,140.83270601084416L149.68333333333334,141.24695923439268L149.8,141.22231387258253L149.91666666666666,140.7491734479654L150.03333333333336,141.08868096116007L150.5,140.84264150883592L150.73333333333332,141.0077163426251L150.85,141.21909218946655L151.55,141.4269371467981L151.78333333333333,141.52453866362777L152.01666666666668,141.77338402058692L152.13333333333333,141.4611584861637L152.25,141.627489138512L152.95000000000002,141.87562113292805L153.29999999999998,141.98451673441315L153.53333333333333,141.82650889899278L153.88333333333333,142.00695488632203L154.23333333333332,141.78561747304443L154.35,141.79948819224998L154.58333333333334,142.27683264565454L154.7,142.46059377670954L154.81666666666666,142.5110902418015L154.93333333333334,142.6484042014453L155.16666666666669,142.8125017011374L155.28333333333333,143.14676821329275L155.51666666666668,143.30493018302968L155.63333333333333,142.8523902527832L155.75,142.52145475791463L156.1,142.7553190706197L156.21666666666664,142.32213077477925L156.45,142.51567152474894L157.38333333333335,142.58973521986854L157.5,142.78092083442976L157.61666666666665,142.84455485117064L157.73333333333335,143.16609363016798L158.08333333333334,143.44818262659305L158.2,143.71318053557908L158.31666666666666,143.8204937393452L158.66666666666666,143.74023192208892L158.78333333333336,143.26067156111884L158.9,143.41090190334714L159.25,143.46254659630767L160.65,143.43430142674708L161,142.50087626766958L161.23333333333332,142.62077068331348L161.35000000000002,142.97717771093627L161.58333333333331,142.53019298439935L161.70000000000002,142.7455750572975L162.04999999999998,142.31711283202787L162.39999999999998,142.50190571303546L162.51666666666668,142.67857154575725L162.63333333333333,143.05132896591874L162.75,143.23794550282602L162.86666666666667,143.4468157500018L162.98333333333332,143.8031030555408L163.1,144.2222246739685L163.21666666666667,144.33776495086562L163.45,144.22944194434973L163.68333333333334,144.36950746403804L163.79999999999998,143.99236606041342L164.03333333333333,143.94346484544874L164.26666666666668,143.445433621964L164.5,143.8551984371641L164.61666666666667,143.9891205075706L164.73333333333335,143.7140514256717L164.85,143.30028977296442L164.96666666666664,143.38970756248565L165.08333333333334,143.36503886361967L165.55,143.51589933347543L166.13333333333335,143.66955305930946L166.25,144.06622256206933L166.48333333333335,144.10337595777645L166.6,144.20774047359996L167.06666666666666,143.83185498212407L167.18333333333334,143.9619146376219L167.3,143.5752189075519L167.53333333333336,143.8213429433978L167.88333333333333,143.38522950917923L168.23333333333332,143.35397839422416L168.46666666666667,143.14835178929917L168.70000000000002,143.21027036291542L168.81666666666666,142.99504916042557L169.05,143.04172911482067L169.16666666666666,143.23228605644812L169.51666666666668,143.58530568412226L169.63333333333333,143.61846434961973L169.75,143.89063736569955L169.98333333333332,144.048501077046L170.10000000000002,144.02493745448902L170.21666666666667,143.35646601217513L170.45000000000002,142.96448774710547L170.56666666666666,143.15487716014184L170.68333333333334,142.96816682911322L170.79999999999998,143.26623010466193L170.91666666666669,143.31873718503314L171.03333333333333,143.0629584648845L171.61666666666667,143.08146349729935L171.73333333333332,143.33978606053552L171.96666666666667,143.53293687399577L172.43333333333334,142.8619057200749L172.54999999999998,143.1062307319068L172.78333333333333,142.70345331315295L173.25,142.25356526912773L173.48333333333335,141.84079499979828L173.71666666666664,141.39732922447087L173.95,141.70169825672912L174.06666666666666,141.89621685214829L174.18333333333334,142.03957543406173L174.3,142.42370889704205L174.53333333333333,142.69174669356772L174.88333333333335,142.8691859083412L175,142.88068087849214L175.23333333333335,142.83500859659517L175.35,143.0361840264723L175.46666666666667,142.74716682720333L175.7,142.746911411396L176.16666666666666,143.19471676981516L176.4,142.98557363457735L176.51666666666665,142.62059727320977L176.75,142.62903721200428L176.86666666666667,142.4934260475212L177.21666666666667,142.69910634958703L177.33333333333331,142.31013233947107L177.91666666666666,142.7522740452151L178.03333333333333,142.96984135386128L178.15,143.04766836937705L178.26666666666668,143.2126236225488L178.5,143.42419263188253L178.73333333333332,143.11433320680905L178.85000000000002,143.30001680378257L178.96666666666667,142.9372211106203L179.08333333333331,142.55809629436513L179.20000000000002,142.86083677586097L179.31666666666666,143.16977715167633L179.66666666666669,143.42674914678332L180.01666666666668,143.24786125870037L180.25,143.3077925404378L180.48333333333332,143.0710906005241L180.6,142.92163717179164L180.71666666666667,142.9286146164943L180.83333333333334,143.10469615647133L180.95,143.1723171980276L181.41666666666669,143.47335575859037L181.88333333333333,142.71061761305526L182.11666666666667,142.3723118471317L182.23333333333335,142.56014355576113L182.58333333333334,142.6302292601196L182.7,142.40304606542327L182.81666666666666,142.62182163354802L183.16666666666666,142.59338330873956L183.51666666666665,142.7269547305579L183.63333333333335,142.96843326697706L183.75,141.96116599541818L183.98333333333335,142.05699845713616L184.1,141.47342989605835L184.21666666666667,141.7876945218114L184.56666666666666,141.9719195412955L184.8,141.98363650634582L184.91666666666666,141.61755372709138L185.03333333333336,141.90532380420157L185.15,141.57686215566076L185.26666666666665,142.10204674178084L185.38333333333333,141.73552020660432L185.61666666666667,142.08611073505776L185.73333333333332,142.30015934836877L186.08333333333331,142.47359788751754L186.66666666666666,142.48875535520784L188.06666666666666,142.29373180117867L188.18333333333334,141.99780568279866L188.29999999999998,142.1639174917174L188.41666666666669,142.20707627408012L188.88333333333333,142.37054183298739L189.23333333333332,142.23495741165777L189.35,142.25000594570278L189.58333333333334,142.7012352880218L189.7,142.92048438759517L189.81666666666666,143.04399733243758L189.93333333333334,143.19940035108422L190.16666666666669,143.38301068915013L190.4,143.00306527238374L190.51666666666668,143.1777152888354L190.63333333333333,142.80224734525467L190.86666666666667,143.09163866873962L190.98333333333335,143.4072567403552L191.1,143.65484501614893L191.33333333333334,143.92994466604284L191.56666666666666,143.82139544153264L192.26666666666665,143.6134361506256L192.5,143.71703892987387L193.08333333333334,143.98912187999457L193.2,144.26352546973598L193.66666666666666,144.2243985355761L194.25,144.22968526513486L194.36666666666667,143.9009570007874L194.83333333333331,143.75657115312555L195.3,143.99021002939264L195.65,143.97131968133144L196,143.0173516233682L196.11666666666667,142.61521547966825L196.23333333333332,142.774391904139L196.58333333333331,142.34505942686624L196.70000000000002,142.58817290979408L197.04999999999998,142.1764051439996L197.28333333333333,142.4922955375023L197.39999999999998,142.73472429715565L197.51666666666668,142.88310423511217L198.33333333333334,142.88727607680076L198.45,142.9230978769685L198.56666666666666,142.8920426793831L198.68333333333334,143.10847780297618L198.91666666666669,143.28488465751326L199.03333333333333,143.33792824222948L199.15,142.69285859321215L199.26666666666668,142.32315452246183L199.38333333333333,142.65189850611276L199.5,143.1126021730478L199.61666666666667,143.31552785903312L199.73333333333335,143.16967610163516L199.85,142.9002321782277L200.2,142.67669875820883L200.43333333333334,142.73398097146045L201.01666666666665,142.7236508913851L201.13333333333335,142.90554905781227L201.25,143.32369606231293L201.48333333333335,143.39413198302904L202.3,143.00636335989256L202.53333333333336,143.2990146672147L203.11666666666667,143.490823192664L203.23333333333332,143.3733169772069L203.70000000000002,143.44106023906062L203.93333333333334,143.22237457603768L204.05,143.24556385549866L204.28333333333333,143.24983720224074L204.4,143.57665071688808L204.63333333333333,143.54219500956242L204.75,143.80772348363277L205.45000000000002,143.40131347262553L205.56666666666666,143.4523978644283L205.68333333333334,143.19883041517045L206.26666666666668,142.42794226026263L206.38333333333333,142.2793180698025L207.43333333333334,141.71717016238566L207.54999999999998,142.00477059168082L207.9,142.19828253904413L208.01666666666668,142.54109981065602L208.13333333333333,142.40428211390952L208.36666666666667,142.64336587056647L208.6,143.12885245679095L208.83333333333334,142.85560267461682L209.18333333333334,142.9421793986069L209.3,143.28490524409114L209.53333333333333,143.4638228353884L209.65,143.81053954311295L209.88333333333335,143.9440214664833L210.11666666666665,143.94391988043202L210.23333333333335,143.86494285904786L210.46666666666667,143.5008316644444L210.58333333333334,143.61193820587238L211.05,143.89915826884413L211.16666666666666,144.285868481455L211.4,144.03207664746125L211.51666666666665,143.6375349499404L211.63333333333333,143.7390276911559L211.75,143.7351757386845L211.98333333333332,142.98182745990567L212.1,143.00006026114025L212.21666666666667,143.1779559837407L212.33333333333331,142.7879329277202L212.8,142.9577416277723L213.03333333333333,143.11527851709502L213.15,143.2297730952053L213.26666666666668,143.41959281801752L213.5,143.55852709604005L213.73333333333332,143.17095806992648L213.96666666666667,142.82799538572073L214.20000000000002,143.06041350428623L214.31666666666666,143.39962182928696L214.43333333333334,143.64201496170213L214.66666666666669,143.9205198465444L214.78333333333333,144.0764788328963L214.89999999999998,144.01535944678326L215.01666666666668,143.82710383329174L215.13333333333333,143.5622676637784L215.25,143.60399482267675L215.48333333333332,143.3699610286331L215.6,143.1247384103723L215.95,143.1761441543481L216.06666666666666,143.4841526268907L216.29999999999998,143.48468737846207L216.41666666666669,143.78233857180277L216.76666666666668,143.7028379530842L216.88333333333333,143.00537364597105L217,143.0693123415457L217.11666666666667,142.6757383043128L217.23333333333335,142.83564518507131L217.46666666666664,143.1343645051649L217.93333333333334,142.37069200807952L218.16666666666666,142.3353783647313L218.28333333333333,142.3504196871003L218.4,142.66316960564896L218.75,141.65266111377744L218.86666666666665,142.04111354929958L219.1,141.45978878503104L219.56666666666666,141.67678673879945L219.68333333333334,142.0645594408615L219.8,142.0413367365075L219.91666666666666,141.58556208354113L220.15,141.21317834762596L220.61666666666667,141.53035795671184L220.73333333333332,141.76479947372934L220.96666666666667,142.172426587967L221.08333333333331,142.3411230928711L221.20000000000002,142.55894824727818L221.31666666666666,142.9578996651893L221.55,143.15768260524726L221.9,143.08568590062507L222.01666666666668,143.3059167487881L222.13333333333333,143.03000560521576L222.25,143.16581680048847L222.36666666666667,143.21303009666903L222.71666666666667,143.50209379229057L222.83333333333331,143.91141295042883L223.29999999999998,144.00953196380888L223.41666666666669,144.00122431028075L223.64999999999998,143.28943024932096L223.76666666666668,143.3550637212226L223.88333333333333,143.51823998271269L224.35,143.53633916968016L224.7,143.73838552306154L224.93333333333334,143.8826146947472L225.28333333333333,144.173873939974L225.4,143.7800422776883L225.51666666666668,143.9287747845337L225.63333333333333,143.598347658487L225.75,143.27057066619335L225.98333333333335,143.58662484804648L226.1,143.805980019995L226.21666666666664,143.38393443058538L226.56666666666666,143.37016398704202L226.68333333333334,143.2534289586674L226.91666666666666,143.34741487555976L227.03333333333333,143.49848014929833L227.15,143.25589090450967L227.5,143.4041954582674L227.73333333333335,143.7074540865863L227.85,144.07036352339853L227.96666666666667,144.04950388290433L228.08333333333334,144.33029798120097L228.9,144.4136626925706L229.01666666666665,144.15525725329093L229.36666666666667,143.89921622859498L229.95000000000002,143.89640090589415L230.41666666666666,142.80488106312333L230.65,142.84526614753105L230.88333333333333,143.1180118790267L231.11666666666667,142.70392147900532L231.23333333333332,142.87866861055636L231.35000000000002,143.22942801575934L231.46666666666667,143.10481917289766L231.93333333333334,143.57638458564924L232.04999999999998,143.15704402957053L232.16666666666669,142.93413746953217L232.39999999999998,143.10153124598764L232.51666666666668,143.25010052935042L232.63333333333333,143.59057271127293L233.1,144.02414515090578L233.33333333333334,144.02480704381782L233.56666666666666,143.9251213101162L233.79999999999998,143.6213667450926L233.91666666666669,143.764592407078L234.15,143.14886736386546L234.61666666666667,143.331942658372L234.85,143.0061043255941L234.96666666666664,143.1209568148182L235.31666666666666,142.50225934129435L235.66666666666666,142.184243622567L236.13333333333335,142.40551864754585L236.36666666666665,142.63518270896594L236.48333333333335,142.8081866669412L236.83333333333334,143.03951378680046L237.3,142.752000106117L237.41666666666666,142.53420735203574L237.53333333333336,142.8482136133739L237.65,143.2166356002565L238,143.5351866394576L238.11666666666667,143.72899805628504L238.23333333333332,143.70715008322094L238.46666666666667,143.48836772603096L238.58333333333331,143.5922926252047L238.70000000000002,143.68892401079103L238.93333333333334,143.5008514117137L239.05,143.5592588680642L239.4,143.86091521783453L239.51666666666668,144.21779579771533L239.75,144.48291624757775L239.98333333333332,144.63467549692126L240.10000000000002,144.55276351393957L240.21666666666667,143.83298369482765L241.03333333333333,143.60671640603692L241.14999999999998,143.80791396508886L241.26666666666668,143.05275899219762L241.38333333333333,142.862426209373L242.08333333333334,141.88424826931742L242.2,142.30333060266594L242.31666666666666,142.39482659546633L242.43333333333334,141.80987359375484L242.54999999999998,142.13125560956007L242.78333333333333,141.8216297832326L243.13333333333333,141.72331561783957L243.48333333333335,141.40047687548665L243.95,141.7480723405647L244.06666666666666,141.98615964865758L244.18333333333334,142.14109407766972L244.3,142.56304052459808L244.41666666666666,142.7957730351177L244.65,143.20830051459967L244.76666666666665,143.6685536245326L245.23333333333335,143.58331110363574L245.58333333333334,143.7590885703953L245.7,143.84997522514453L246.05,144.121352913224L246.16666666666666,144.5168238422654L246.28333333333336,144.67204872603568L246.4,144.4552227777849L246.51666666666665,144.10034510395263L246.75,144.1146407520163L246.86666666666667,143.9807889303542L246.98333333333332,143.27113846530486L247.1,143.31684532457868L247.21666666666667,143.47033639655325L247.68333333333334,143.50023997185306L247.8,143.72669993810615L247.91666666666666,144.12765725370687L248.26666666666668,144.28803253619736L248.5,144.432489235371L248.61666666666667,144.72890646565077L248.73333333333332,144.37107526983803L248.96666666666667,144.03000008263905L249.08333333333331,143.72673325708084L249.20000000000002,143.97884781178612L249.43333333333334,144.18520201248765L249.54999999999998,143.78155721068606L249.89999999999998,143.7540470044193L250.13333333333333,143.58104839443484L250.36666666666667,143.67853215277472L250.48333333333332,143.47894300357726L250.71666666666667,143.50385095520755L251.06666666666666,143.80463906096136L251.29999999999998,143.7834076520113L251.41666666666669,144.0706344448819L251.53333333333333,144.35423059557718L251.76666666666668,144.30849508148188L252,144.26673172415278L252.11666666666667,143.87676174048525L252.23333333333335,143.99144386357995L252.7,143.69905520217168L252.81666666666666,143.89017094763963L253.05,143.6206573000604L253.28333333333333,143.63314380737253L253.86666666666665,143.96341169565972L254.33333333333334,143.0971751558956L254.45,142.72954309000087L254.56666666666666,142.9310211612305L254.68333333333334,143.27020700192517L256.0833333333333,143.5016959832957L256.31666666666666,143.87066484084474L256.55,144.02076326753473" style="fill: none;" fill="none"></path></g></g></g></g><g opacity="0.2"><g><g><g><path stroke="rgb(204, 51, 17)" stroke-width="2px" d="M23.916666666666668,-43.932533502578735L24.03333333333333,40.89384090900421L24.5,110.06299495697021L24.616666666666667,109.5550696849823L24.849999999999998,78.28078109025955L24.96666666666667,100.72493726015091L25.083333333333332,67.94785869121552L25.31666666666667,38.07952070236206L25.433333333333334,111.49296045303345L25.55,103.78810626268387L25.666666666666664,64.93395018577576L26.133333333333333,122.03879418969154L27.18333333333333,125.99023032188416L27.3,79.70126157999039L27.53333333333333,110.67155253887177L27.883333333333333,74.67644155025482L28,135.55851957201958L28.233333333333334,102.85250693559647L28.46666666666667,96.50078862905502L28.583333333333332,123.73737421631813L28.816666666666666,92.80646353960037L29.049999999999997,130.69786494970322L29.166666666666668,106.75417596101761L29.51666666666667,144.34472416341305L29.633333333333333,113.51413679122925L29.75,133.2397193312645L29.866666666666667,137.85553957521915L29.983333333333334,125.28622058033943L30.333333333333336,118.36918157339096L30.45,91.86566549539566L30.683333333333334,118.91831728816032L30.916666666666664,137.5289765894413L31.033333333333335,94.40684616565704L31.150000000000002,133.90236346423626L31.266666666666666,85.95016199350357L31.616666666666667,119.34268644452095L31.73333333333333,144.804439291358L31.85,130.461190700531L31.966666666666665,126.45604863762856L32.2,141.78472864627838L32.550000000000004,143.00830639898777L33.13333333333333,119.074353069067L33.25,117.43069112300873L33.36666666666667,138.61711582541466L33.483333333333334,112.55110627412796L33.6,149.99059925228357L33.71666666666667,108.46459633111954L34.3,142.23566563427448L35.233333333333334,136.89385250210762L35.58333333333333,118.68266421556473L35.7,129.27995198965073L36.516666666666666,110.75632345676422L36.86666666666666,116.63500624895096L37.1,137.8564785271883L37.21666666666666,134.6110188961029L37.333333333333336,114.9285936653614L37.800000000000004,139.23898185789585L37.916666666666664,148.6123112589121L38.03333333333333,143.21247407794L38.38333333333333,113.19014531373978L38.5,137.9240154325962L38.85,140.44371558725834L39.31666666666666,140.3112132847309L39.55,100.81662034988403L39.78333333333333,147.8560325279832L39.9,119.62298482656479L40.016666666666666,128.143321454525L40.13333333333333,113.68843704462051L40.599999999999994,130.38343274593353L40.833333333333336,128.5216554403305L41.18333333333334,148.59409917145967L41.3,134.1267809420824L41.416666666666664,143.42453929781914L41.65,137.41236485540867L41.766666666666666,135.92301462590694L41.88333333333334,104.67215871810913L42.233333333333334,140.49264585971832L42.46666666666667,133.84872914850712L42.58333333333333,138.96275889873505L42.81666666666667,140.67815120518208L42.93333333333333,108.91796690225601L43.28333333333333,131.32682484388351L43.86666666666667,149.36306171119213L43.983333333333334,123.86637136340141L44.1,105.01785218715668L44.33333333333333,107.15162318944931L44.45,120.31703212857246L44.68333333333333,141.03556168079376L44.91666666666667,122.07945558428764L45.03333333333333,143.46430285274982L45.15,118.83487522602081L45.266666666666666,154.6523308325559L45.5,126.24878957867622L45.61666666666666,136.61102637648582L46.43333333333333,153.79669493623078L46.900000000000006,137.1235124617815L47.36666666666667,135.36812053620815L47.483333333333334,98.88810849189758L47.6,113.7501956820488L48.06666666666666,124.69189846515656L48.416666666666664,134.67189030349255L48.766666666666666,138.35633915662766L48.88333333333333,138.54077425599098L49.233333333333334,118.52451446652412L49.349999999999994,127.48076617717743L49.583333333333336,150.4551129154861L49.699999999999996,146.54049782454967L49.81666666666667,132.20411896705627L50.05,119.35137838125229L50.166666666666664,143.8843008428812L50.4,122.72362437844276L50.516666666666666,143.60028643906116L50.63333333333334,118.93012315034866L50.983333333333334,139.57741038501263L51.33333333333333,147.41260516643524L51.91666666666667,143.93979051709175L52.15,122.70721128582954L52.38333333333333,137.91427712142467L52.5,139.92659574747086L53.08333333333333,143.76308983564377L53.43333333333333,138.62734881043434L53.550000000000004,104.99025124311447L53.66666666666667,131.08028629422188L53.78333333333333,112.87570250034332L54.016666666666666,130.56165325641632L54.483333333333334,144.74173971265554L54.71666666666666,122.02965664863586L54.95,134.5736173093319L55.18333333333333,137.0347921103239L55.766666666666666,111.05350440740585L56,109.60122686624527L56.46666666666667,129.55452382564545L57.05,125.6364019215107L57.28333333333333,141.99548888206482L57.4,140.09205950796604L57.75,143.3070761412382L57.983333333333334,149.35122468322515L58.099999999999994,154.43547263089567L58.21666666666667,146.65425556898117L58.449999999999996,140.4186370819807L58.56666666666667,138.67807476222515L58.68333333333334,145.79651299864054L59.15,107.5004146695137L59.266666666666666,118.27348008751869L59.5,152.63510110974312L59.85,128.50399306416512L60.31666666666667,113.68102887272835L60.43333333333333,140.9333631247282L60.55,141.41848167777061L60.66666666666667,122.4939737021923L60.9,123.92970553040504L61.25,151.28707906603813L61.36666666666667,148.37467285990715L61.483333333333334,137.8109565973282L61.83333333333333,142.58916513621807L61.95,147.2884307578206L62.18333333333333,145.5649817660451L62.88333333333333,113.9083109498024L63.11666666666666,145.99589706212282L63.46666666666666,122.98127916455269L63.583333333333336,142.832962423563L63.81666666666666,128.33064767718315L63.93333333333333,135.85664477944374L64.51666666666667,150.39065512269735L64.63333333333334,138.98772998154163L64.86666666666666,144.33511847257614L65.10000000000001,141.23276016116142L65.21666666666667,112.91103520989418L65.33333333333333,132.74147003889084L65.68333333333334,134.2455968260765L65.8,144.97146399319172L66.14999999999999,145.68831138312817L66.26666666666667,118.92066997289658L66.5,140.99011932313442L66.61666666666666,136.2369468510151L66.85,140.1853976994753L67.31666666666666,130.76400005817413L67.43333333333334,115.28981962800026L67.55,148.32563118636608L67.78333333333333,126.94390580058098L67.89999999999999,143.58861319720745L68.25,125.69600680470467L68.36666666666667,145.99478305131197L68.48333333333333,126.00601744651794L68.6,154.83287858124822L68.83333333333333,129.8341803252697L68.95,144.44937752187252L69.06666666666666,141.29146587848663L69.18333333333334,146.2383038252592L70.23333333333333,139.61373907327652L70.35,146.4574987143278L70.58333333333333,138.21252831816673L70.93333333333334,123.30637669563293L71.75,140.56128086149693L71.86666666666666,128.43415519595146L72.33333333333334,125.71182310581207L72.44999999999999,134.29847918450832L72.56666666666666,127.7224799990654L72.8,145.08614344894886L73.03333333333333,148.17338370531797L73.5,142.98338040709496L74.55,119.67626637220383L74.66666666666667,149.72955137491226L74.78333333333333,144.1534471809864L74.9,135.8381548523903L75.13333333333333,125.56188520789146L75.25,144.73449068516493L75.60000000000001,135.56249287724495L75.95,140.22457242012024L76.76666666666667,141.67413920164108L76.88333333333334,117.60620087385178L77,135.47657611966133L77.11666666666666,123.0923937857151L77.35,132.33919543027878L77.46666666666667,146.43370065838099L77.58333333333334,142.88464456796646L77.81666666666666,146.37267806380987L77.93333333333334,123.03164041042328L78.05,124.42659148573875L78.28333333333333,135.85473239421844L78.51666666666667,141.2402664721012L78.63333333333333,144.2753995358944L79.1,114.56952410936356L79.91666666666666,127.5538161098957L80.26666666666667,154.2896274793893L80.38333333333334,128.67019021511078L80.61666666666666,146.14465198665857L80.85000000000001,146.84878838062286L81.19999999999999,147.67551105469465L82.48333333333332,114.25721648335457L82.83333333333333,153.42356033064425L82.95,145.78844702988863L83.06666666666668,132.39367055892944L83.3,143.84161300957203L83.53333333333333,132.50329187512398L83.65,118.37294799089432L83.88333333333333,143.4692655056715L84.46666666666667,144.7009092271328L84.58333333333333,152.96669007465243L85.28333333333333,151.00766260921955L85.51666666666667,146.5340915992856L85.63333333333334,127.77302691340446L85.75,127.71074575185776L85.86666666666666,148.48303693532944L85.98333333333333,146.52938954532146L86.1,146.96396847814322L86.21666666666667,123.74249601364136L86.33333333333334,150.1843814328313L86.45,146.056138522923L86.56666666666666,140.08060111105442L86.8,129.85097271203995L87.15,134.0329454243183L87.26666666666667,136.55421315133572L87.38333333333333,139.9421176314354L87.61666666666667,141.15782171487808L88.08333333333333,147.85359496623278L88.31666666666666,145.57867017388344L88.55,120.04107838869095L89.01666666666667,135.76716716587543L89.13333333333334,146.73314543813467L89.25,143.00306524336338L89.48333333333333,145.91609609127045L89.71666666666667,131.02271050214767L89.94999999999999,139.68912710249424L90.18333333333334,144.46649350225925L90.3,144.5406004190445L90.64999999999999,137.70347444713116L90.88333333333334,148.62602685391903L91,114.05919575691223L91.11666666666667,130.15825137495995L91.23333333333332,144.2275328785181L91.35,150.00589568167925L91.46666666666667,137.6480616927147L91.7,147.0973082780838L91.81666666666668,130.79061430692673L92.4,143.35951820015907L92.51666666666668,146.76842244714499L92.75,146.8203373402357L92.86666666666666,147.45438388735056L92.98333333333333,150.76357620954514L93.33333333333333,138.75549320876598L93.56666666666666,140.80080644786358L93.80000000000001,131.9345575273037L94.03333333333333,140.4663631618023L94.26666666666667,129.31122651696205L94.5,153.64286429993808L94.61666666666666,145.818459674716L94.73333333333333,134.93701426684856L95.08333333333334,141.32495383918285L95.55,145.17961426079273L95.66666666666667,127.99838599562645L95.9,130.43983882665634L96.01666666666667,138.5201358795166L96.25,152.91833736374974L96.71666666666667,126.84288358688354L97.3,131.35848397016525L98.11666666666666,146.59430653601885L98.23333333333333,137.95909616351128L98.46666666666667,131.74023160338402L98.58333333333334,143.38532611727715L98.69999999999999,140.90440547466278L98.81666666666666,134.81753793358803L98.93333333333334,138.64047557115555L99.05,140.43324255943298L99.28333333333333,142.4562517106533L99.39999999999999,150.65920367464423L99.86666666666667,148.6703651472926L99.98333333333332,147.03014270961285L100.21666666666667,120.70981112122536L100.45,129.1604875922203L100.8,148.05576206743717L101.03333333333333,133.63749015331268L101.15,146.37705851346254L101.26666666666668,122.66983091831207L101.61666666666666,141.1430783122778L101.73333333333333,149.44125466048717L101.85000000000001,144.13848362863064L101.96666666666667,147.46103148162365L102.08333333333333,114.274369597435L102.31666666666666,139.76856668293476L102.43333333333334,121.88701817393303L102.55000000000001,149.30635126680136L102.78333333333333,132.33569690585136L102.89999999999999,144.82508628815413L103.01666666666667,150.4677526280284L103.13333333333334,138.67888374626637L103.25,130.7840416431427L103.36666666666666,147.57736206054688L103.6,154.56325356662273L103.71666666666667,130.12477800250053L104.06666666666666,145.2404876574874L104.53333333333333,148.59590413421392L104.88333333333333,147.78404554724693L105,141.1031251102686L105.11666666666667,141.53304442763329L105.35,147.95787499845028L105.46666666666667,133.7091250270605L105.58333333333333,143.51010991632938L105.7,141.3588065057993L105.93333333333334,128.68579432368279L106.05,148.35915163904428L106.16666666666666,153.63795486092567L106.63333333333334,144.33284536004066L107.10000000000001,142.38711407780647L107.21666666666667,145.50684233754873L107.44999999999999,135.1842066347599L107.56666666666666,133.23116797208786L107.68333333333334,139.46775326132774L107.8,145.15841821581125L107.91666666666667,152.89879874140024L108.03333333333333,147.84518352150917L108.38333333333334,129.71654343605042L108.5,146.99626418203115L109.2,150.64292784407735L109.43333333333332,148.32286671549082L109.55,128.3454534113407L109.66666666666667,149.62109579145908L109.78333333333333,147.2034171447158L110.01666666666668,137.8425666540861L110.36666666666666,140.7129123210907L110.48333333333333,136.03647795319557L110.83333333333333,144.59041659533978L110.95,142.49618236720562L111.06666666666666,150.66407813504338L111.30000000000001,142.06543284654617L111.53333333333333,148.94335548579693L111.88333333333334,119.57554918527603L112,140.03887477517128L112.23333333333333,146.13360802829266L112.58333333333334,143.7931747585535L112.7,133.87620410323143L112.81666666666666,146.679800234735L113.05,132.96012914180756L113.16666666666667,139.81756591796875L113.28333333333333,140.83234886825085L113.51666666666667,141.7904949784279L113.63333333333333,147.5580631494522L113.75,113.2402094900608L114.33333333333333,114.46483361721039L114.8,137.7249005883932L114.91666666666666,129.30160623788834L115.15,129.90278482437134L115.38333333333334,132.16548135876656L115.61666666666666,148.81531983613968L115.73333333333333,144.57981890439987L115.85000000000001,144.10753402113914L115.96666666666667,149.1274020075798L116.08333333333334,146.28346768021584L116.19999999999999,147.83042884618044L116.43333333333334,154.56915608327836L116.66666666666667,140.86411011219025L116.89999999999999,141.34858015179634L117.25,143.8895910680294L117.48333333333332,117.77353590726852L117.6,129.28389611840248L117.71666666666667,149.16977752000093L118.18333333333332,130.13557595014572L118.41666666666667,142.52517847716808L118.53333333333333,135.23772424459457L118.76666666666668,142.17610186338425L119.11666666666666,135.97017972171307L119.35000000000001,138.80443674325943L119.46666666666667,145.4452945664525L119.58333333333333,152.88234420493245L119.93333333333334,146.12051110714674L120.28333333333333,151.01787039637566L120.39999999999999,132.28895089030266L120.63333333333334,130.0526325404644L120.86666666666666,149.36715901643038L121.1,148.03854662179947L121.68333333333334,137.7000952810049L121.91666666666667,143.4102706760168L122.03333333333333,142.58958686888218L122.15,135.92745342850685L122.26666666666667,137.5959511846304L122.61666666666667,141.85467261075974L123.31666666666666,147.25652761012316L123.55,119.44372987747192L123.66666666666666,141.2049496769905L123.78333333333333,128.20063731074333L123.9,146.55725241452456L124.01666666666667,137.41358098387718L124.48333333333333,146.89594021439552L124.71666666666667,133.96179991960526L124.83333333333334,140.65222127735615L125.18333333333334,144.35984288156033L125.3,146.3785054013133L125.41666666666667,113.0196724832058L125.53333333333333,152.80450634658337L125.64999999999999,139.3330136537552L125.88333333333334,148.17099388688803L126,117.44724479317665L126.11666666666667,130.67248407006264L126.23333333333332,145.49249812215567L126.46666666666667,139.293849542737L126.81666666666668,129.75598472356796L127.05,132.67929232120514L127.16666666666667,132.37679594755173L127.4,146.41921453922987L127.51666666666668,146.16742223501205L127.86666666666666,147.9783794283867L127.98333333333333,150.35644736513495L128.21666666666667,147.3993239030242L128.33333333333331,140.66282825171947L129.15,120.44998401403427L129.26666666666668,129.34211379289627L129.38333333333333,150.28909612819552L129.5,153.55762175098062L129.61666666666667,146.4399550333619L129.73333333333332,135.96366143226624L129.85,129.8829766511917L130.08333333333334,142.2187631726265L130.20000000000002,134.29731212556362L130.31666666666666,124.23329469561577L130.66666666666666,129.88597917556763L130.78333333333333,136.3994956165552L130.9,135.09379537403584L131.01666666666665,140.18156364560127L131.25,153.24652793258429L131.95,152.0216670781374L132.06666666666666,131.81077501177788L132.18333333333334,147.04666786640882L132.41666666666666,131.14933905005455L132.88333333333333,128.43699857592583L133.23333333333332,140.57601630687714L133.58333333333334,144.5438376814127L134.05,142.5837436169386L134.4,150.8042634651065L134.51666666666665,152.55201314389706L134.63333333333333,143.57908707857132L134.86666666666667,149.10079637914896L134.98333333333332,146.38811772316694L135.1,140.6512624323368L135.45000000000002,129.0015606880188L135.56666666666666,146.412761233747L135.79999999999998,147.56361198425293L136.03333333333333,134.95635031163692L136.15,146.32149258255959L136.38333333333333,136.30246129631996L136.61666666666667,141.21250240504742L136.73333333333335,149.56953101605177L136.96666666666667,147.10408252477646L137.2,152.24426301568747L137.31666666666666,140.5937012284994L137.43333333333334,124.74780589342117L137.55,149.33602440357208L137.9,145.71165322512388L138.01666666666668,151.14722130820155L138.13333333333333,140.56701403856277L138.48333333333332,129.91852420568466L138.6,154.5484808217734L139.53333333333333,147.24789004772902L139.88333333333333,146.91755931824446L140,142.1352269500494L140.23333333333335,140.93572774529457L140.46666666666667,134.14035993814468L140.58333333333334,144.53535395860672L140.93333333333334,128.95492607355118L141.05,149.92423471063375L141.28333333333336,147.24270061403513L141.4,136.41781578958035L141.51666666666665,133.53290708363056L141.63333333333333,144.62195105850697L141.98333333333332,123.41295304894447L142.91666666666666,153.3584957998246L143.03333333333333,148.3763246461749L143.15,144.6043377518654L143.38333333333333,129.64597615599632L143.61666666666667,151.47924095764756L143.73333333333332,133.7993652075529L143.85000000000002,146.6487942636013L144.08333333333331,133.04935345053673L144.31666666666666,148.81470116227865L144.43333333333334,148.6498806104064L144.54999999999998,128.97881364822388L144.89999999999998,140.61054135859013L145.01666666666668,138.9630904495716L145.13333333333333,134.66239070892334L145.71666666666667,142.0770291686058L145.95,143.60089384019375L146.06666666666666,150.40158403292298L146.29999999999998,141.92931266129017L146.41666666666669,150.2513497285545L146.65,146.59221710264683L147.35,137.9975878894329L147.46666666666664,149.37618847191334L147.7,136.82014609873295L147.93333333333334,123.99237659573555L148.4,148.55821873992682L148.63333333333335,147.94030678272247L148.86666666666665,151.9986455142498L149.1,124.29753598570824L149.33333333333334,120.33604192733765L149.56666666666666,145.9317088201642L149.68333333333334,150.93644316866994L149.8,140.64585284888744L149.91666666666666,129.68230351805687L150.03333333333336,149.02984450012445L150.5,135.0877187103033L150.73333333333332,144.8688569664955L150.85,146.16322480142117L151.55,146.28848139196634L151.78333333333333,143.80746194720268L152.01666666666668,147.59393761307L152.13333333333333,134.15812708437443L152.25,145.5180036649108L152.95000000000002,147.67948900163174L153.29999999999998,144.5316114127636L153.53333333333333,138.13066709041595L153.88333333333333,146.22763054072857L154.23333333333332,136.60848139226437L154.35,142.12392769753933L154.58333333333334,153.4420358352363L154.7,146.7588114514947L154.81666666666666,143.69221487641335L154.93333333333334,145.86021120846272L155.16666666666669,146.65078224241734L155.28333333333333,150.96534346044064L155.51666666666668,147.00437723100185L155.63333333333333,132.26737090945244L155.75,134.7807928174734L156.1,148.22546238452196L156.21666666666664,132.18975088000298L156.45,147.0426368713379L157.38333333333335,144.32210311293602L157.5,147.25279898941517L157.61666666666665,144.3329700231552L157.73333333333335,150.68696409463882L158.08333333333334,150.04631305485964L158.2,149.91154626011848L158.31666666666666,146.33057574927807L158.66666666666666,141.86288844048977L158.78333333333336,132.04363775253296L158.9,146.92482624948025L159.25,144.67052856087685L160.65,142.77364002168179L161,120.66783413290977L161.23333333333332,145.4251303076744L161.35000000000002,151.3136250153184L161.58333333333331,132.07511121034622L161.70000000000002,147.78341427445412L162.04999999999998,132.29527688026428L162.39999999999998,146.8242562711239L162.51666666666668,146.81082846224308L162.63333333333333,151.7702159397304L162.75,147.6029518172145L162.86666666666667,148.33234177529812L162.98333333333332,152.13675003126264L163.1,154.02558155357838L163.21666666666667,147.0402802079916L163.45,141.69574040174484L163.68333333333334,147.64567413181067L163.79999999999998,135.1709366440773L164.03333333333333,142.79965350031853L164.26666666666668,131.7963618338108L164.5,153.43969740718603L164.61666666666667,147.121590398252L164.73333333333335,137.28011851012707L164.85,133.62230379879475L164.96666666666664,145.48121146857738L165.08333333333334,142.78803198039532L165.55,147.04456251859665L166.13333333333335,147.2635511830449L166.25,153.34441898018122L166.48333333333335,144.97240294516087L166.6,146.64885195344687L167.06666666666666,135.03980165719986L167.18333333333334,147.00404170155525L167.3,134.53031146526337L167.53333333333336,149.57824417203665L167.88333333333333,133.18442991375923L168.23333333333332,142.62300719320774L168.46666666666667,138.3386953473091L168.70000000000002,144.65856090188026L168.81666666666666,137.96097274124622L169.05,144.13358463346958L169.16666666666666,147.68945939838886L169.51666666666668,151.84252087771893L169.63333333333333,144.39405362308025L169.75,150.2568305954337L169.98333333333332,147.740971788764L170.10000000000002,143.4737785756588L170.21666666666667,127.72075593471527L170.45000000000002,133.79602052271366L170.56666666666666,147.60813196748495L170.68333333333334,138.60096664726734L170.79999999999998,150.2380028180778L170.91666666666669,144.54689060151577L171.03333333333333,137.08023181557655L171.61666666666667,143.51430071890354L171.73333333333332,149.38201382011175L171.96666666666667,148.05078151077032L172.43333333333334,127.16632336378098L172.54999999999998,148.82105235010386L172.78333333333333,133.28239125013351L173.25,131.7305741906166L173.48333333333335,132.18599772453308L173.71666666666664,131.02455657720566L173.95,148.82096415758133L174.06666666666666,146.44605424255133L174.18333333333334,145.39276763051748L174.3,151.40868428722024L174.53333333333333,148.96121612936258L174.88333333333335,147.01953241974115L175,143.1495510339737L175.23333333333335,141.7667227834463L175.35,147.74172639846802L175.46666666666667,135.98698404431343L175.7,142.74093717336655L176.16666666666666,153.66899332404137L176.4,138.09366469085217L176.51666666666665,134.0837111622095L176.75,142.82644943892956L176.86666666666667,139.32144783437252L177.21666666666667,147.51001878082752L177.33333333333331,133.2119353711605L177.91666666666666,153.09407638199627L178.03333333333333,148.0587937682867L178.15,144.86806124448776L178.26666666666668,147.07096722722054L178.5,148.372843362391L178.73333333333332,135.86664567887783L178.85000000000002,147.64320142567158L178.96666666666667,134.45134136080742L179.08333333333331,133.69027437269688L179.20000000000002,149.94201047718525L179.31666666666666,150.39596789330244L179.66666666666669,149.43738678842783L180.01666666666668,139.063629925251L180.25,144.7095998376608L180.48333333333332,137.53457449376583L180.6,139.42588502168655L180.71666666666667,143.09181874990463L180.83333333333334,147.22328632324934L180.95,144.75398985296488L181.41666666666669,150.51472111418843L181.88333333333333,124.86998635530472L182.11666666666667,134.4592574685812L182.23333333333335,146.95357303321362L182.58333333333334,144.26955097913742L182.7,137.08917573094368L182.81666666666666,147.73903553187847L183.16666666666666,141.9282039552927L183.51666666666665,145.8512228652835L183.63333333333335,148.61667513102293L183.75,118.40093883872032L183.98333333333335,144.29854311048985L184.1,127.8236189186573L184.21666666666667,149.13842076808214L184.56666666666666,146.28098767995834L184.8,142.25769917666912L184.91666666666666,133.05478823184967L185.03333333333336,148.63633609563112L185.15,133.8940640836954L185.26666666666665,154.3862423049286L185.38333333333333,133.16237515211105L185.61666666666667,150.28650870546699L185.73333333333332,147.3068086206913L186.08333333333331,146.53036762028933L186.66666666666666,142.84329222142696L188.06666666666666,137.73208330571651L188.18333333333334,135.07602159678936L188.29999999999998,146.0493132174015L188.41666666666669,143.21657072007656L188.88333333333333,146.19404112547636L189.23333333333332,139.06360472738743L189.35,142.60199482738972L189.58333333333334,153.2555996607989L189.7,148.04877430200577L189.81666666666666,145.93299523741007L189.93333333333334,146.83431486040354L190.16666666666669,147.677701279521L190.4,134.11604930460453L190.51666666666668,147.26282177120447L190.63333333333333,134.01996056735516L190.86666666666667,149.86057230830193L190.98333333333335,150.78964041545987L191.1,149.44599517434835L191.33333333333334,150.3645925745368L191.56666666666666,141.28240260481834L192.26666666666665,138.74921761453152L192.5,146.1403332054615L193.08333333333334,150.35320844501257L193.2,150.68189236149192L193.66666666666666,143.30921000242233L194.25,144.35334315896034L194.36666666666667,136.21192272007465L194.83333333333331,140.37935096025467L195.3,149.45508033037186L195.65,143.52946983277798L196,120.70380607247353L196.11666666666667,133.20915299654007L196.23333333333332,146.49756729602814L196.58333333333331,132.30286806821823L196.70000000000002,148.27465657144785L197.04999999999998,132.54505667090416L197.28333333333333,149.88104888796806L197.39999999999998,148.40519211441278L197.51666666666668,146.3537471741438L198.33333333333334,142.98485647141933L198.45,143.76097851991653L198.56666666666666,142.16565403342247L198.68333333333334,148.17094813287258L198.91666666666669,147.4110840111971L199.03333333333333,144.57863062620163L199.15,127.60452216863632L199.26666666666668,133.6756861358881L199.38333333333333,150.34130046516657L199.5,153.88857330940664L199.61666666666667,148.0620091482997L199.73333333333335,139.7581679224968L199.85,136.5978730916977L200.2,137.44819754362106L200.43333333333334,144.07382591068745L201.01666666666665,142.48202779889107L201.13333333333335,147.1601915359497L201.25,153.10425648465753L201.48333333333335,145.04164534807205L202.3,133.93636068701744L202.53333333333336,150.14420012384653L203.11666666666667,147.9772713854909L203.23333333333332,140.62481793761253L203.70000000000002,145.02559165656567L203.93333333333334,138.10726357996464L204.05,143.78796675801277L204.28333333333333,143.34979182481766L204.4,151.2208985351026L204.63333333333333,142.7362676113844L204.75,150.01849925518036L205.45000000000002,133.89528419077396L205.56666666666666,144.64727424830198L205.68333333333334,137.26782593131065L206.26666666666668,124.39668029546738L206.38333333333333,138.8029620051384L207.43333333333334,128.56839349865913L207.54999999999998,148.73181477934122L207.9,146.72457418590784L208.01666666666668,150.5596794076264L208.13333333333333,139.20408281683922L208.36666666666667,148.23559325188398L208.6,154.4845021199435L208.83333333333334,136.46422362327576L209.18333333333334,144.9672300890088L209.3,151.30134636163712L209.53333333333333,147.64874893426895L209.65,151.9203279018402L209.88333333333335,147.0661962106824L210.11666666666665,143.9415437579155L210.23333333333335,142.01765106618404L210.46666666666667,134.98418201506138L210.58333333333334,146.2107473090291L211.05,150.61730559542775L211.16666666666666,153.33111467398703L211.4,138.09582374989986L211.51666666666665,134.409108415246L211.63333333333333,146.11296766251326L211.75,143.6450776308775L211.98333333333332,125.36082747578621L212.1,143.42652992904186L212.21666666666667,147.33898032456636L212.33333333333331,133.66519851982594L212.8,146.92960853874683L213.03333333333333,146.80010478198528L213.15,145.90782920271158L213.26666666666668,147.85952243208885L213.5,146.80823374539614L213.73333333333332,134.10562402009964L213.96666666666667,134.80601455271244L214.20000000000002,148.4967299848795L214.31666666666666,151.33378728479147L214.43333333333334,149.31164944916964L214.66666666666669,150.4348170310259L214.78333333333333,147.7243975624442L214.89999999999998,142.5857620984316L215.01666666666668,139.4237591177225L215.13333333333333,137.36768506467342L215.25,144.580003246665L215.48333333333332,137.89585350453854L215.6,137.38892155885696L215.95,144.3785370439291L216.06666666666666,150.68854592368007L216.29999999999998,143.49719534814358L216.41666666666669,150.7444725818932L216.76666666666668,141.84329909086227L216.88333333333333,126.69151338934898L217,144.56485402584076L217.11666666666667,133.46994557976723L217.23333333333335,146.57590612769127L217.46666666666664,150.12148226052523L217.93333333333334,124.50820603966713L218.16666666666666,141.5093836337328L218.28333333333333,142.70223988592625L218.4,149.97846648097038L218.75,118.01662102341652L218.86666666666665,151.12711076065898L219.1,127.86246076226234L219.56666666666666,146.75242180377245L219.68333333333334,151.13465752080083L219.8,141.49815201759338L219.91666666666666,130.92488178610802L220.15,132.5030319392681L220.61666666666667,148.94926637411118L220.73333333333332,147.24844373762608L220.96666666666667,151.70692421123385L221.08333333333331,146.28697548806667L221.20000000000002,147.6539317369461L221.31666666666666,152.28947063535452L221.55,147.8306543007493L221.9,141.40166541934013L222.01666666666668,148.45717000216246L222.13333333333333,136.5763766616583L222.25,146.34247378259897L222.36666666666667,144.31736060976982L222.71666666666667,150.26336413621902L222.83333333333331,153.48548789322376L223.29999999999998,146.30455961823463L223.41666666666669,143.8069062680006L223.64999999999998,126.64039355516434L223.76666666666668,144.89024663716555L223.88333333333333,147.334972538054L224.35,143.95968356728554L224.7,148.46429900825024L224.93333333333334,147.25617019832134L225.28333333333333,150.98649872466922L225.4,134.56822364032269L225.51666666666668,147.40766439586878L225.63333333333333,135.86957658827305L225.75,135.6037868708372L225.98333333333335,150.97920924797654L226.1,148.9367509931326L226.21666666666664,133.51218515634537L226.56666666666666,143.04806995391846L226.68333333333334,140.52296817302704L226.91666666666666,145.54576839506626L227.03333333333333,147.03193374723196L227.15,137.5816693007946L227.5,146.87307514250278L227.73333333333335,150.80074736848474L227.85,152.55890376493335L227.96666666666667,143.56159180402756L228.08333333333334,150.89814042672515L228.9,146.36358362436295L229.01666666666665,138.11109100282192L229.36666666666667,137.91035421192646L229.95000000000002,143.8305498212576L230.41666666666666,117.273965716362L230.65,143.7898831218481L230.88333333333333,149.4976010620594L231.11666666666667,133.01824602484703L231.23333333333332,146.9660466387868L231.35000000000002,151.43377605453134L231.46666666666667,140.19018794596195L231.93333333333334,154.6064146058634L232.04999999999998,133.34856614470482L232.16666666666669,137.72029866278172L232.39999999999998,147.01691250503063L232.51666666666668,146.725172303617L232.63333333333333,151.5543000884354L233.1,154.16551026329398L233.33333333333334,144.04028888046741L233.56666666666666,141.5934476852417L233.79999999999998,136.5164733827114L233.91666666666669,147.11467557400465L234.15,128.7469084262848L234.61666666666667,147.61411844938993L234.85,135.384666249156L234.96666666666664,145.80738455057144L235.31666666666666,128.03077453374863L235.66666666666666,134.74577839672565L236.13333333333335,147.58119545131922L236.36666666666665,148.00708112120628L236.48333333333335,146.85479144006968L236.83333333333334,148.4503115415573L237.3,136.0269849896431L237.41666666666666,137.43998171389103L237.53333333333336,150.19289665296674L237.65,151.8341157324612L238,150.9861731417477L238.11666666666667,148.26229436695576L238.23333333333332,143.19612066447735L238.46666666666667,138.3709950298071L238.58333333333331,146.0231213644147L238.70000000000002,145.94915568828583L238.93333333333334,139.10178744792938L239.05,144.92542351782322L239.4,150.91673081368208L239.51666666666668,152.56531960517168L239.75,150.6841482333839L239.98333333333332,148.18436135351658L240.10000000000002,142.63682225346565L240.21666666666667,126.9971581697464L241.03333333333333,138.31426933407784L241.14999999999998,148.51397394388914L241.26666666666668,125.38949999213219L241.38333333333333,138.41049599647522L242.08333333333334,119.0044276714325L242.2,152.10576859489083L242.31666666666666,144.5349401831627L242.43333333333334,128.1276802122593L242.54999999999998,149.6484593451023L242.78333333333333,134.5794061869383L243.13333333333333,139.42372331023216L243.48333333333335,133.84919995069504L243.95,149.8784150481224L244.06666666666666,147.55507985502481L244.18333333333334,145.76504816114902L244.3,152.43247083202004L244.41666666666666,148.23944322019815L244.65,152.8574188761413L244.76666666666665,154.43398612271994L245.23333333333335,141.5894677489996L245.58333333333334,147.87056639045477L245.7,145.97583624720573L246.05,150.4689432270825L246.16666666666666,153.76698532886803L246.28333333333336,148.3027966171503L246.4,139.3836109638214L246.51666666666665,135.7996697574854L246.75,144.44901944696903L246.86666666666667,140.84996217489243L246.98333333333332,126.67224100232124L247.1,144.38593991100788L247.21666666666667,147.06053000688553L247.68333333333334,144.19969189167023L247.8,149.02365378290415L247.91666666666666,153.5061466600746L248.26666666666668,148.03924950957298L248.5,147.81136666238308L248.61666666666667,151.66217777878046L248.73333333333332,136.00131632387638L248.96666666666667,136.05216826498508L249.08333333333331,136.63324823975563L249.20000000000002,149.8758687376976L249.43333333333334,149.01187709718943L249.54999999999998,134.3402068465948L249.89999999999998,143.11057657003403L250.13333333333333,139.5345687121153L250.36666666666667,145.95870103687048L250.48333333333332,138.81050412356853L250.71666666666667,144.08645401895046L251.06666666666666,150.8401462174952L251.29999999999998,143.28679981827736L251.41666666666669,150.78893918544054L251.53333333333333,150.98761373013258L251.76666666666668,143.2387302517891L252,143.28987661004066L252.11666666666667,134.75526870787144L252.23333333333335,146.67388669401407L252.7,136.86001309752464L252.81666666666666,148.3604148477316L253.05,137.31666734814644L253.28333333333333,143.925206258893L253.86666666666665,151.68845815584064L254.33333333333334,122.83569121360779L254.45,134.13053940236568L254.56666666666666,147.6436423882842L254.68333333333334,151.20384654402733L256.0833333333333,148.91627971827984L256.31666666666666,152.50093641132116L256.55,147.5316020771861" style="fill: none;" fill="none"></path></g></g></g></g></g></g><g transform="translate(50, 178)" clip-path="url(#clip_1)"><clipPath id="clip_1"><rect width="280" height="22"></rect></clipPath><g><g><line x1="0" y1="0" x2="0" y2="5" style="visibility: inherit;" fill="rgb(0, 0, 0)" stroke="rgb(204, 204, 204)" stroke-width="1px"></line><line x1="23.333333333333332" y1="0" x2="23.333333333333332" y2="5" style="visibility: inherit;" fill="rgb(0, 0, 0)" stroke="rgb(204, 204, 204)" stroke-width="1px"></line><line x1="46.666666666666664" y1="0" x2="46.666666666666664" y2="5" style="visibility: inherit;" fill="rgb(0, 0, 0)" stroke="rgb(204, 204, 204)" stroke-width="1px"></line><line x1="70" y1="0" x2="70" y2="5" style="visibility: inherit;" fill="rgb(0, 0, 0)" stroke="rgb(204, 204, 204)" stroke-width="1px"></line><line x1="93.33333333333333" y1="0" x2="93.33333333333333" y2="5" style="visibility: inherit;" fill="rgb(0, 0, 0)" stroke="rgb(204, 204, 204)" stroke-width="1px"></line><line x1="116.66666666666667" y1="0" x2="116.66666666666667" y2="5" style="visibility: inherit;" fill="rgb(0, 0, 0)" stroke="rgb(204, 204, 204)" stroke-width="1px"></line><line x1="140" y1="0" x2="140" y2="5" style="visibility: inherit;" fill="rgb(0, 0, 0)" stroke="rgb(204, 204, 204)" stroke-width="1px"></line><line x1="163.33333333333334" y1="0" x2="163.33333333333334" y2="5" style="visibility: inherit;" fill="rgb(0, 0, 0)" stroke="rgb(204, 204, 204)" stroke-width="1px"></line><line x1="186.66666666666666" y1="0" x2="186.66666666666666" y2="5" style="visibility: inherit;" fill="rgb(0, 0, 0)" stroke="rgb(204, 204, 204)" stroke-width="1px"></line><line x1="210" y1="0" x2="210" y2="5" style="visibility: inherit;" fill="rgb(0, 0, 0)" stroke="rgb(204, 204, 204)" stroke-width="1px"></line><line x1="233.33333333333334" y1="0" x2="233.33333333333334" y2="5" style="visibility: inherit;" fill="rgb(0, 0, 0)" stroke="rgb(204, 204, 204)" stroke-width="1px"></line><line x1="256.66666666666663" y1="0" x2="256.66666666666663" y2="5" style="visibility: inherit;" fill="rgb(0, 0, 0)" stroke="rgb(204, 204, 204)" stroke-width="1px"></line><line x1="280" y1="0" x2="280" y2="5" style="visibility: inherit;" fill="rgb(0, 0, 0)" stroke="rgb(204, 204, 204)" stroke-width="1px"></line></g><g transform="translate(0, 8)"><text x="0" y="0" dx="0em" dy="0.95em" style="text-anchor: middle; visibility: hidden; font-family: &quot;Helvetica Neue&quot;, sans-serif; font-size: 12px; font-weight: 200;" fill="rgb(50, 49, 63)" stroke="none" stroke-width="1px">-2k</text><text x="23.333333333333332" y="0" dx="0em" dy="0.95em" style="text-anchor: middle; visibility: inherit; font-family: &quot;Helvetica Neue&quot;, sans-serif; font-size: 12px; font-weight: 200;" fill="rgb(50, 49, 63)" stroke="none" stroke-width="1px">0</text><text x="46.666666666666664" y="0" dx="0em" dy="0.95em" style="text-anchor: middle; visibility: hidden; font-family: &quot;Helvetica Neue&quot;, sans-serif; font-size: 12px; font-weight: 200;" fill="rgb(50, 49, 63)" stroke="none" stroke-width="1px">2k</text><text x="70" y="0" dx="0em" dy="0.95em" style="text-anchor: middle; visibility: inherit; font-family: &quot;Helvetica Neue&quot;, sans-serif; font-size: 12px; font-weight: 200;" fill="rgb(50, 49, 63)" stroke="none" stroke-width="1px">4k</text><text x="93.33333333333333" y="0" dx="0em" dy="0.95em" style="text-anchor: middle; visibility: hidden; font-family: &quot;Helvetica Neue&quot;, sans-serif; font-size: 12px; font-weight: 200;" fill="rgb(50, 49, 63)" stroke="none" stroke-width="1px">6k</text><text x="116.66666666666667" y="0" dx="0em" dy="0.95em" style="text-anchor: middle; visibility: inherit; font-family: &quot;Helvetica Neue&quot;, sans-serif; font-size: 12px; font-weight: 200;" fill="rgb(50, 49, 63)" stroke="none" stroke-width="1px">8k</text><text x="140" y="0" dx="0em" dy="0.95em" style="text-anchor: middle; visibility: hidden; font-family: &quot;Helvetica Neue&quot;, sans-serif; font-size: 12px; font-weight: 200;" fill="rgb(50, 49, 63)" stroke="none" stroke-width="1px">10k</text><text x="163.33333333333334" y="0" dx="0em" dy="0.95em" style="text-anchor: middle; visibility: inherit; font-family: &quot;Helvetica Neue&quot;, sans-serif; font-size: 12px; font-weight: 200;" fill="rgb(50, 49, 63)" stroke="none" stroke-width="1px">12k</text><text x="186.66666666666666" y="0" dx="0em" dy="0.95em" style="text-anchor: middle; visibility: hidden; font-family: &quot;Helvetica Neue&quot;, sans-serif; font-size: 12px; font-weight: 200;" fill="rgb(50, 49, 63)" stroke="none" stroke-width="1px">14k</text><text x="210" y="0" dx="0em" dy="0.95em" style="text-anchor: middle; visibility: inherit; font-family: &quot;Helvetica Neue&quot;, sans-serif; font-size: 12px; font-weight: 200;" fill="rgb(50, 49, 63)" stroke="none" stroke-width="1px">16k</text><text x="233.33333333333334" y="0" dx="0em" dy="0.95em" style="text-anchor: middle; visibility: hidden; font-family: &quot;Helvetica Neue&quot;, sans-serif; font-size: 12px; font-weight: 200;" fill="rgb(50, 49, 63)" stroke="none" stroke-width="1px">18k</text><text x="256.66666666666663" y="0" dx="0em" dy="0.95em" style="text-anchor: middle; visibility: inherit; font-family: &quot;Helvetica Neue&quot;, sans-serif; font-size: 12px; font-weight: 200;" fill="rgb(50, 49, 63)" stroke="none" stroke-width="1px">20k</text><text x="280" y="0" dx="0em" dy="0.95em" style="text-anchor: middle; visibility: hidden; font-family: &quot;Helvetica Neue&quot;, sans-serif; font-size: 12px; font-weight: 200;" fill="rgb(50, 49, 63)" stroke="none" stroke-width="1px">22k</text></g><line x1="0" y1="0" x2="280" y2="0" fill="rgb(0, 0, 0)" stroke="rgb(204, 204, 204)" stroke-width="1px"></line></g></g></g></g></svg>