<svg viewBox="0 0 330 200" xmlns="http://www.w3.org/2000/svg"><g><g><g><g><g><line x1="50" y1="178" x2="45" y2="178" style="visibility: inherit;" fill="rgb(0, 0, 0)" stroke="rgb(204, 204, 204)" stroke-width="1px"></line><line x1="50" y1="158.22222222222226" x2="45" y2="158.22222222222226" style="visibility: inherit;" fill="rgb(0, 0, 0)" stroke="rgb(204, 204, 204)" stroke-width="1px"></line><line x1="50" y1="138.44444444444446" x2="45" y2="138.44444444444446" style="visibility: inherit;" fill="rgb(0, 0, 0)" stroke="rgb(204, 204, 204)" stroke-width="1px"></line><line x1="50" y1="118.6666666666667" x2="45" y2="118.6666666666667" style="visibility: inherit;" fill="rgb(0, 0, 0)" stroke="rgb(204, 204, 204)" stroke-width="1px"></line><line x1="50" y1="98.8888888888889" x2="45" y2="98.8888888888889" style="visibility: inherit;" fill="rgb(0, 0, 0)" stroke="rgb(204, 204, 204)" stroke-width="1px"></line><line x1="50" y1="79.1111111111111" x2="45" y2="79.1111111111111" style="visibility: inherit;" fill="rgb(0, 0, 0)" stroke="rgb(204, 204, 204)" stroke-width="1px"></line><line x1="50" y1="59.33333333333334" x2="45" y2="59.33333333333334" style="visibility: inherit;" fill="rgb(0, 0, 0)" stroke="rgb(204, 204, 204)" stroke-width="1px"></line><line x1="50" y1="39.55555555555554" x2="45" y2="39.55555555555554" style="visibility: inherit;" fill="rgb(0, 0, 0)" stroke="rgb(204, 204, 204)" stroke-width="1px"></line><line x1="50" y1="19.7777777777778" x2="45" y2="19.7777777777778" style="visibility: inherit;" fill="rgb(0, 0, 0)" stroke="rgb(204, 204, 204)" stroke-width="1px"></line><line x1="50" y1="0" x2="45" y2="0" style="visibility: inherit;" fill="rgb(0, 0, 0)" stroke="rgb(204, 204, 204)" stroke-width="1px"></line></g><g transform="translate(40, 0)"><text x="0" y="178" dx="0em" dy="0.3em" style="text-anchor: end; visibility: hidden; font-family: &quot;Helvetica Neue&quot;, sans-serif; font-size: 12px; font-weight: 200;" fill="rgb(50, 49, 63)" stroke="none" stroke-width="1px">0.55</text><text x="0" y="158.22222222222226" dx="0em" dy="0.3em" style="text-anchor: end; visibility: inherit; font-family: &quot;Helvetica Neue&quot;, sans-serif; font-size: 12px; font-weight: 200;" fill="rgb(50, 49, 63)" stroke="none" stroke-width="1px">0.6</text><text x="0" y="138.44444444444446" dx="0em" dy="0.3em" style="text-anchor: end; visibility: hidden; font-family: &quot;Helvetica Neue&quot;, sans-serif; font-size: 12px; font-weight: 200;" fill="rgb(50, 49, 63)" stroke="none" stroke-width="1px">0.65</text><text x="0" y="118.6666666666667" dx="0em" dy="0.3em" style="text-anchor: end; visibility: inherit; font-family: &quot;Helvetica Neue&quot;, sans-serif; font-size: 12px; font-weight: 200;" fill="rgb(50, 49, 63)" stroke="none" stroke-width="1px">0.7</text><text x="0" y="98.8888888888889" dx="0em" dy="0.3em" style="text-anchor: end; visibility: hidden; font-family: &quot;Helvetica Neue&quot;, sans-serif; font-size: 12px; font-weight: 200;" fill="rgb(50, 49, 63)" stroke="none" stroke-width="1px">0.75</text><text x="0" y="79.1111111111111" dx="0em" dy="0.3em" style="text-anchor: end; visibility: inherit; font-family: &quot;Helvetica Neue&quot;, sans-serif; font-size: 12px; font-weight: 200;" fill="rgb(50, 49, 63)" stroke="none" stroke-width="1px">0.8</text><text x="0" y="59.33333333333334" dx="0em" dy="0.3em" style="text-anchor: end; visibility: hidden; font-family: &quot;Helvetica Neue&quot;, sans-serif; font-size: 12px; font-weight: 200;" fill="rgb(50, 49, 63)" stroke="none" stroke-width="1px">0.85</text><text x="0" y="39.55555555555554" dx="0em" dy="0.3em" style="text-anchor: end; visibility: inherit; font-family: &quot;Helvetica Neue&quot;, sans-serif; font-size: 12px; font-weight: 200;" fill="rgb(50, 49, 63)" stroke="none" stroke-width="1px">0.9</text><text x="0" y="19.7777777777778" dx="0em" dy="0.3em" style="text-anchor: end; visibility: hidden; font-family: &quot;Helvetica Neue&quot;, sans-serif; font-size: 12px; font-weight: 200;" fill="rgb(50, 49, 63)" stroke="none" stroke-width="1px">0.95</text><text x="0" y="0" dx="0em" dy="0.3em" style="text-anchor: end; visibility: hidden; font-family: &quot;Helvetica Neue&quot;, sans-serif; font-size: 12px; font-weight: 200;" fill="rgb(50, 49, 63)" stroke="none" stroke-width="1px">1</text></g><line x1="50" y1="0" x2="50" y2="178" fill="rgb(0, 0, 0)" stroke="rgb(204, 204, 204)" stroke-width="1px"></line></g></g><g transform="translate(50, 0)" clip-path="url(#clip_0)"><clipPath id="clip_0"><rect width="280" height="178"></rect></clipPath><g><g><g><line x1="0" y1="0" x2="0" y2="178" fill="rgb(0, 0, 0)" stroke="rgb(60, 60, 60)" stroke-width="1px" opacity="0.25"></line><line x1="21.53846153846154" y1="0" x2="21.53846153846154" y2="178" fill="rgb(0, 0, 0)" stroke="rgb(60, 60, 60)" stroke-width="1px" opacity="0.25"></line><line x1="43.07692307692308" y1="0" x2="43.07692307692308" y2="178" fill="rgb(0, 0, 0)" stroke="rgb(60, 60, 60)" stroke-width="1px" opacity="0.25"></line><line x1="64.61538461538461" y1="0" x2="64.61538461538461" y2="178" fill="rgb(0, 0, 0)" stroke="rgb(60, 60, 60)" stroke-width="1px" opacity="0.25"></line><line x1="86.15384615384616" y1="0" x2="86.15384615384616" y2="178" fill="rgb(0, 0, 0)" stroke="rgb(60, 60, 60)" stroke-width="1px" opacity="0.25"></line><line x1="107.6923076923077" y1="0" x2="107.6923076923077" y2="178" fill="rgb(0, 0, 0)" stroke="rgb(60, 60, 60)" stroke-width="1px" opacity="0.25"></line><line x1="129.23076923076923" y1="0" x2="129.23076923076923" y2="178" fill="rgb(0, 0, 0)" stroke="rgb(60, 60, 60)" stroke-width="1px" opacity="0.25"></line><line x1="150.76923076923077" y1="0" x2="150.76923076923077" y2="178" fill="rgb(0, 0, 0)" stroke="rgb(60, 60, 60)" stroke-width="1px" opacity="0.25"></line><line x1="172.30769230769232" y1="0" x2="172.30769230769232" y2="178" fill="rgb(0, 0, 0)" stroke="rgb(60, 60, 60)" stroke-width="1px" opacity="0.25"></line><line x1="193.84615384615384" y1="0" x2="193.84615384615384" y2="178" fill="rgb(0, 0, 0)" stroke="rgb(60, 60, 60)" stroke-width="1px" opacity="0.25"></line><line x1="215.3846153846154" y1="0" x2="215.3846153846154" y2="178" fill="rgb(0, 0, 0)" stroke="rgb(60, 60, 60)" stroke-width="1px" opacity="0.25"></line><line x1="236.92307692307693" y1="0" x2="236.92307692307693" y2="178" fill="rgb(0, 0, 0)" stroke="rgb(60, 60, 60)" stroke-width="1px" opacity="0.25"></line><line x1="258.46153846153845" y1="0" x2="258.46153846153845" y2="178" fill="rgb(0, 0, 0)" stroke="rgb(60, 60, 60)" stroke-width="1px" opacity="0.25"></line><line x1="280" y1="0" x2="280" y2="178" fill="rgb(0, 0, 0)" stroke="rgb(60, 60, 60)" stroke-width="1px" opacity="0.25"></line></g><g><line x1="0" y1="178" x2="280" y2="178" fill="rgb(0, 0, 0)" stroke="rgb(60, 60, 60)" stroke-width="1px" opacity="0.25"></line><line x1="0" y1="158.22222222222226" x2="280" y2="158.22222222222226" fill="rgb(0, 0, 0)" stroke="rgb(60, 60, 60)" stroke-width="1px" opacity="0.25"></line><line x1="0" y1="138.44444444444446" x2="280" y2="138.44444444444446" fill="rgb(0, 0, 0)" stroke="rgb(60, 60, 60)" stroke-width="1px" opacity="0.25"></line><line x1="0" y1="118.6666666666667" x2="280" y2="118.6666666666667" fill="rgb(0, 0, 0)" stroke="rgb(60, 60, 60)" stroke-width="1px" opacity="0.25"></line><line x1="0" y1="98.8888888888889" x2="280" y2="98.8888888888889" fill="rgb(0, 0, 0)" stroke="rgb(60, 60, 60)" stroke-width="1px" opacity="0.25"></line><line x1="0" y1="79.1111111111111" x2="280" y2="79.1111111111111" fill="rgb(0, 0, 0)" stroke="rgb(60, 60, 60)" stroke-width="1px" opacity="0.25"></line><line x1="0" y1="59.33333333333334" x2="280" y2="59.33333333333334" fill="rgb(0, 0, 0)" stroke="rgb(60, 60, 60)" stroke-width="1px" opacity="0.25"></line><line x1="0" y1="39.55555555555554" x2="280" y2="39.55555555555554" fill="rgb(0, 0, 0)" stroke="rgb(60, 60, 60)" stroke-width="1px" opacity="0.25"></line><line x1="0" y1="19.7777777777778" x2="280" y2="19.7777777777778" fill="rgb(0, 0, 0)" stroke="rgb(60, 60, 60)" stroke-width="1px" opacity="0.25"></line><line x1="0" y1="0" x2="280" y2="0" fill="rgb(0, 0, 0)" stroke="rgb(60, 60, 60)" stroke-width="1px" opacity="0.25"></line></g></g></g><g><g><line x1="0" y1="395.5555555555556" x2="280" y2="395.5555555555556" fill="rgb(0, 0, 0)" stroke="rgb(153, 153, 153)" stroke-width="1.5px"></line></g></g><g><g><line x1="21.53846153846154" y1="0" x2="21.53846153846154" y2="178" fill="rgb(0, 0, 0)" stroke="rgb(153, 153, 153)" stroke-width="1.5px"></line></g></g><g><g><g><g><g><path stroke="rgb(51, 187, 238)" stroke-width="2px" d="M35.53846153846153,178.93789552425395L36.61538461538462,174.26473196791426L37.69230769230769,168.79826241172813L38.769230769230774,165.46234676730757L39.84615384615385,160.48944777987123L40.92307692307693,154.998908180234L42,151.22836483763953L43.07692307692308,148.39114694577722L44.15384615384615,142.80959097535248L45.23076923076923,138.95232469794857L46.30769230769231,134.7745873739196L47.38461538461539,132.2571560717082L48.46153846153846,130.04778625223938L49.53846153846154,126.96333395712423L50.61538461538461,125.48384902799793L51.69230769230769,122.77936638180492L52.76923076923077,119.8677981827848L53.84615384615385,117.88121906278221L54.92307692307692,117.00196851222066L56,113.80106145841403L57.07692307692307,111.6710443221985L58.15384615384616,109.04925131959278L59.23076923076923,107.51411566248493L60.307692307692314,106.20016570331214L61.38461538461539,104.31647807218364L62.46153846153847,103.71740342375925L63.53846153846154,101.95700398087206L64.61538461538461,100.18245606593807L65.6923076923077,99.17783169961413L66.76923076923077,98.85277879492087L67.84615384615384,96.54185306916384L68.92307692307693,95.12535498322315L70,93.17965177402051L71.07692307692307,92.24516048166336L72.15384615384615,91.39855749290068L73.23076923076924,90.00159423125496L74.3076923076923,89.75127050545112L75.38461538461539,88.4472615046256L76.46153846153845,87.13751665516658L77.53846153846155,86.40435518840133L78.61538461538461,86.46884878979633L79.6923076923077,84.7281114243116L80.76923076923076,83.68410707239563L81.84615384615385,82.26311262108963L82.92307692307692,81.62335459535936L84,81.05021093716846L85.07692307692307,80.0459172895258L86.15384615384616,80.03952920555211L87.23076923076923,78.98193397350836L88.3076923076923,77.90465556445994L89.38461538461537,77.53986508684666L90.46153846153847,77.67826349380643L91.53846153846153,76.32154319953698L92.61538461538461,75.7873121624929L93.69230769230768,74.72680007933442L94.76923076923077,74.26455630878681L95.84615384615385,73.92623971127203L96.92307692307692,73.0905444682819L98,73.11136036873157L99.07692307692308,72.17817936908877L100.15384615384616,71.32092324171282L101.23076923076923,71.11232123066547L102.3076923076923,71.5221573689086L103.38461538461539,70.4612057944696L104.46153846153847,70.02057485429376L105.53846153846153,69.12805552079736L106.61538461538461,68.77908892051545L107.6923076923077,68.34475110515113L108.76923076923077,67.62777304366583L109.84615384615384,67.84585990722273L110.92307692307692,67.0850222220142L112,66.49079332620613L113.07692307692308,66.38917511236964L114.15384615384615,66.75826499060825L115.23076923076923,65.71402837222516L116.30769230769232,65.44596147125615L117.38461538461539,64.55856618734728L118.46153846153847,64.23996593512767L119.53846153846153,63.70302970741842L120.61538461538463,63.15593345592545L121.6923076923077,63.22765688483884L122.76923076923077,62.536059785835704L123.84615384615384,61.97296630771862L124.92307692307693,62.02786573660511L126,62.542166264281434L127.07692307692308,61.782283880999145L128.15384615384616,61.680326711785554L129.23076923076923,60.99020011253887L130.30769230769232,60.723933093121204L131.3846153846154,60.33738053983943L132.46153846153845,59.90138215574353L133.53846153846155,60.04200418958463L134.6153846153846,59.35612785533719L135.69230769230768,58.928684303140926L136.76923076923077,58.94545692066232L137.84615384615387,59.42041032210811L138.92307692307693,58.7943026733533L140,58.71836786999093L141.07692307692307,58.089082533658186L142.15384615384613,57.81330866748732L143.23076923076923,57.549038573891806L144.3076923076923,57.00147697666557L145.3846153846154,57.29397192817993L146.46153846153848,56.724627181147326L147.53846153846155,56.40765425171877L148.6153846153846,56.463116984806135L149.69230769230768,57.006030490023576L150.76923076923077,56.449225408559855L151.84615384615384,56.43766195091838L152.9230769230769,55.90457986591211L154,55.85024319745234L155.0769230769231,55.47206204624749L156.15384615384616,55.0769472670808L157.23076923076923,55.41529814895122L158.3076923076923,54.85974023278379L159.3846153846154,54.62041512650589L160.46153846153845,54.716755091599126L161.53846153846152,55.19996069930538L162.61538461538464,54.68623655650023L163.6923076923077,54.71469819081143L164.76923076923077,54.25366313928512L165.84615384615384,54.23481417380694L166.92307692307693,53.923836827125015L168,53.56061348001529L169.07692307692307,53.86310271642682L170.15384615384613,53.33980965785594L171.23076923076925,53.00073867326515L172.30769230769232,53.098463995041655L173.3846153846154,53.74501443847011L174.46153846153845,53.35688469762137L175.53846153846155,53.47245562421986L176.6153846153846,52.99807344860781L177.69230769230768,52.99833529374769L178.76923076923075,52.64103525102496L179.84615384615387,52.2659442463824L180.92307692307693,52.68627070594822L182,52.17939698104263L183.07692307692307,51.79086309331319L184.15384615384616,51.808214751635546L185.23076923076923,52.44214826918116L186.3076923076923,52.042907022903464L187.38461538461536,52.17984465648186L188.46153846153848,51.62901006990522L189.53846153846155,51.62051982106307L190.6153846153846,51.32006660857053L191.6923076923077,50.83710106624291L192.76923076923077,51.25082758643508L193.84615384615384,50.77075414003252L194.9230769230769,50.44029816502484L196,50.415658936071395L197.0769230769231,51.00895082218659L198.15384615384616,50.66876327889122L199.23076923076923,50.79708447869129L200.30769230769232,50.238360901809216L201.3846153846154,50.3194067351058L202.46153846153845,50.040030508245195L203.53846153846152,49.707203791419374L204.6153846153846,50.06972161833225L205.6923076923077,49.47601964214692L206.76923076923077,49.13390648991995L207.84615384615387,49.16287599331096L208.92307692307693,49.742424316815004L210,49.389410585182134L211.07692307692307,49.57017156067471L212.15384615384613,49.061970394387885L213.23076923076923,49.19124870084349L214.3076923076923,48.89333303242236L215.3846153846154,48.57519196850501L216.46153846153848,48.91913783775385L217.53846153846155,48.437697357833116L218.6153846153846,48.17071577840176L219.69230769230768,48.304085208169994L220.76923076923077,48.82137001564283L221.84615384615384,48.3764235980602L222.9230769230769,48.46890143945686L224,48.07087278270106L225.0769230769231,48.240773803612825L226.15384615384616,48.144131698050614L227.23076923076923,47.79188669557925L228.3076923076923,48.135450516528465L229.3846153846154,47.65378965379054L230.46153846153845,47.289222487941004L231.53846153846152,47.361388733466185L232.61538461538464,47.88481130546239L233.6923076923077,47.478338842733876L234.76923076923077,47.64007695259528L235.84615384615384,47.21120552051474L236.92307692307693,47.383895393409915L238,47.09530765982743L239.07692307692307,46.78611520069745L240.15384615384613,47.10600051225296L241.23076923076925,46.601724416854495L242.30769230769232,46.31277994671845L243.3846153846154,46.48986238771883L244.46153846153845,47.04897283485428L245.53846153846155,46.67681287503518L246.6153846153846,46.83896409358974L247.69230769230768,46.41053978529345L248.76923076923075,46.55116710669839L249.84615384615387,46.32918793276329L250.92307692307693,46.018993401749526L252,46.30543226959202L253.07692307692307,45.8664572102584L254.15384615384616,45.44548429826614L255.23076923076923,45.560800532086546L256.3076923076923,46.12553289059417L257.38461538461536,45.75882018015443" style="fill: none;" fill="none"></path></g></g></g></g><g opacity="0.2"><g><g><g><path stroke="rgb(51, 187, 238)" stroke-width="2px" d="M26.923076923076923,204.10666770405243L28,168.50666628943551L29.07692307692308,147.14665836758084L30.153846153846157,162.17778815163507L31.230769230769234,154.26666100819907L32.30769230769231,102.8444406721327L33.38461538461539,113.91999509599475L34.46153846153847,102.8444406721327L35.53846153846153,124.99554951985678L36.61538461538462,125.78667402267456L37.69230769230769,109.17334238688153L38.769230769230774,127.36889945136177L39.84615384615385,101.26221524344551L40.92307692307693,87.02223353915745L42,102.8444406721327L43.07692307692308,110.75554423862035L44.15384615384615,66.45332654317221L45.23076923076923,84.64888360765245L46.30769230769231,74.36445368660821L47.38461538461539,94.93333710564508L48.46153846153846,96.51556253433229L49.53846153846154,79.11110639572144L50.61538461538461,102.0533397462633L51.69230769230769,79.11110639572144L52.76923076923077,71.99110375510323L53.84615384615385,84.64888360765245L54.92307692307692,102.0533397462633L56,58.54222297668457L57.07692307692307,74.36445368660821L58.15384615384616,62.497774759928404L59.23076923076923,79.90223089853924L60.307692307692314,82.27555725309585L61.38461538461539,69.61777740054661L62.46153846153847,92.56001075108847L63.53846153846154,68.8266764746772L64.61538461538461,66.45332654317221L65.6923076923077,79.90223089853924L66.76923076923077,92.56001075108847L67.84615384615384,51.42222033606636L68.92307692307693,67.24445104598999L70,54.586671193440765L71.07692307692307,73.57332918379042L72.15384615384615,74.36445368660821L73.23076923076924,61.706673834058975L74.3076923076923,84.64888360765245L75.38461538461539,61.706673834058975L76.46153846153845,60.12444840537178L77.53846153846155,71.20000282923382L78.61538461538461,87.81333446502686L79.6923076923077,48.257769478691955L80.76923076923076,61.706673834058975L81.84615384615385,52.21334483888414L82.92307692307692,68.03555197185942L84,68.8266764746772L85.07692307692307,58.54222297668457L86.15384615384616,79.90223089853924L87.23076923076923,56.168896622127974L88.3076923076923,54.586671193440765L89.38461538461537,69.61777740054661L90.46153846153847,80.69333182440865L91.53846153846153,46.67554405000476L92.61538461538461,64.08000018861559L93.69230769230768,51.42222033606636L94.76923076923077,64.08000018861559L95.84615384615385,66.45332654317221L96.92307692307692,54.586671193440765L98,73.57332918379042L99.07692307692308,51.42222033606636L100.15384615384616,52.21334483888414L101.23076923076923,66.45332654317221L102.3076923076923,80.69333182440865L103.38461538461539,46.67554405000476L104.46153846153847,60.12444840537178L105.53846153846153,49.048893981509735L106.61538461538461,60.915549331241195L107.6923076923077,58.54222297668457L108.76923076923077,51.42222033606636L109.84615384615384,72.782228257921L110.92307692307692,49.83999490737915L112,53.004445764753555L113.07692307692308,64.08000018861559L114.15384615384615,75.15555461247763L115.23076923076923,41.92889134089154L116.30769230769232,59.333323902554L117.38461538461539,44.30221769544812L118.46153846153847,56.959997547997375L119.53846153846153,51.42222033606636L120.61538461538463,50.63111941019696L121.6923076923077,64.871101114485L122.76923076923077,46.67554405000476L123.84615384615384,49.048893981509735L124.92307692307693,63.288899262746185L126,74.36445368660821L127.07692307692308,44.30221769544812L128.15384615384616,59.333323902554L129.23076923076923,45.09334219826593L130.30769230769232,54.586671193440765L131.3846153846154,51.42222033606636L132.46153846153845,49.83999490737915L133.53846153846155,63.288899262746185L134.6153846153846,43.511116769578734L135.69230769230768,49.048893981509735L136.76923076923077,59.333323902554L137.84615384615387,70.40887832641602L138.92307692307693,44.30221769544812L140,56.959997547997375L141.07692307692307,43.511116769578734L142.15384615384613,51.42222033606636L143.23076923076923,51.42222033606636L144.3076923076923,44.30221769544812L145.3846153846154,64.08000018861559L146.46153846153848,43.511116769578734L147.53846153846155,49.048893981509735L148.6153846153846,57.75112205081517L149.69230769230768,69.61777740054661L150.76923076923077,43.511116769578734L151.84615384615384,56.168896622127974L152.9230769230769,43.511116769578734L154,54.586671193440765L155.0769230769231,46.67554405000476L156.15384615384616,45.884443124135345L157.23076923076923,63.288899262746185L158.3076923076923,41.92889134089154L159.3846153846154,49.048893981509735L160.46153846153845,56.959997547997375L161.53846153846152,66.45332654317221L162.61538461538464,42.719992266760954L163.6923076923077,55.377772119310166L164.76923076923077,43.511116769578734L165.84615384615384,53.795546690622984L166.92307692307693,46.67554405000476L168,45.09334219826593L169.07692307692307,60.915549331241195L170.15384615384613,41.13776683807373L171.23076923076925,45.09334219826593L172.30769230769232,55.377772119310166L173.3846153846154,68.8266764746772L174.46153846153845,44.30221769544812L175.53846153846155,56.168896622127974L176.6153846153846,41.92889134089154L177.69230769230768,53.004445764753555L178.76923076923075,44.30221769544812L179.84615384615387,43.511116769578734L180.92307692307693,62.497774759928404L182,40.346665912204315L183.07692307692307,42.719992266760954L184.15384615384616,52.21334483888414L185.23076923076923,67.24445104598999L186.3076923076923,42.719992266760954L187.38461538461536,55.377772119310166L188.46153846153848,38.76444048351712L189.53846153846155,51.42222033606636L190.6153846153846,44.30221769544812L191.6923076923077,39.55556498633493L192.76923076923077,60.915549331241195L193.84615384615384,39.55556498633493L194.9230769230769,42.719992266760954L196,49.83999490737915L197.0769230769231,64.871101114485L198.15384615384616,42.719992266760954L199.23076923076923,53.795546690622984L200.30769230769232,37.182215054829925L201.3846153846154,52.21334483888414L202.46153846153845,43.511116769578734L203.53846153846152,41.92889134089154L204.6153846153846,58.54222297668457L205.6923076923077,35.5999896261427L206.76923076923077,41.13776683807373L207.84615384615387,49.83999490737915L208.92307692307693,63.288899262746185L210,41.13776683807373L211.07692307692307,53.795546690622984L212.15384615384613,37.182215054829925L213.23076923076923,52.21334483888414L214.3076923076923,41.92889134089154L215.3846153846154,41.13776683807373L216.46153846153848,56.959997547997375L217.53846153846155,37.182215054829925L218.6153846153846,41.92889134089154L219.69230769230768,51.42222033606636L220.76923076923077,60.915549331241195L221.84615384615384,37.973339557647705L222.9230769230769,50.63111941019696L224,38.76444048351712L225.0769230769231,52.21334483888414L226.15384615384616,45.884443124135345L227.23076923076923,39.55556498633493L228.3076923076923,56.168896622127974L229.3846153846154,36.39111412896051L230.46153846153845,38.76444048351712L231.53846153846152,49.048893981509735L232.61538461538464,60.12444840537178L233.6923076923077,37.973339557647705L234.76923076923077,51.42222033606636L235.84615384615384,37.182215054829925L236.92307692307693,51.42222033606636L238,40.346665912204315L239.07692307692307,39.55556498633493L240.15384615384613,54.586671193440765L241.23076923076925,34.808888700273314L242.30769230769232,39.55556498633493L243.3846153846154,50.63111941019696L244.46153846153845,60.12444840537178L245.53846153846155,37.973339557647705L246.6153846153846,50.63111941019696L247.69230769230768,36.39111412896051L248.76923076923075,49.83999490737915L249.84615384615387,41.13776683807373L250.92307692307693,38.76444048351712L252,53.004445764753555L253.07692307692307,35.5999896261427L254.15384615384616,35.5999896261427L255.23076923076923,48.257769478691955L256.3076923076923,59.333323902554L257.38461538461536,37.182215054829925" style="fill: none;" fill="none"></path></g></g></g></g></g><g><g><circle fill="rgb(0, 0, 0)" stroke="none" stroke-width="1px"></circle></g></g></g><g transform="translate(50, 178)" clip-path="url(#clip_1)"><clipPath id="clip_1"><rect width="280" height="22"></rect></clipPath><g><g><line x1="0" y1="0" x2="0" y2="5" style="visibility: inherit;" fill="rgb(0, 0, 0)" stroke="rgb(204, 204, 204)" stroke-width="1px"></line><line x1="21.53846153846154" y1="0" x2="21.53846153846154" y2="5" style="visibility: inherit;" fill="rgb(0, 0, 0)" stroke="rgb(204, 204, 204)" stroke-width="1px"></line><line x1="43.07692307692308" y1="0" x2="43.07692307692308" y2="5" style="visibility: inherit;" fill="rgb(0, 0, 0)" stroke="rgb(204, 204, 204)" stroke-width="1px"></line><line x1="64.61538461538461" y1="0" x2="64.61538461538461" y2="5" style="visibility: inherit;" fill="rgb(0, 0, 0)" stroke="rgb(204, 204, 204)" stroke-width="1px"></line><line x1="86.15384615384616" y1="0" x2="86.15384615384616" y2="5" style="visibility: inherit;" fill="rgb(0, 0, 0)" stroke="rgb(204, 204, 204)" stroke-width="1px"></line><line x1="107.6923076923077" y1="0" x2="107.6923076923077" y2="5" style="visibility: inherit;" fill="rgb(0, 0, 0)" stroke="rgb(204, 204, 204)" stroke-width="1px"></line><line x1="129.23076923076923" y1="0" x2="129.23076923076923" y2="5" style="visibility: inherit;" fill="rgb(0, 0, 0)" stroke="rgb(204, 204, 204)" stroke-width="1px"></line><line x1="150.76923076923077" y1="0" x2="150.76923076923077" y2="5" style="visibility: inherit;" fill="rgb(0, 0, 0)" stroke="rgb(204, 204, 204)" stroke-width="1px"></line><line x1="172.30769230769232" y1="0" x2="172.30769230769232" y2="5" style="visibility: inherit;" fill="rgb(0, 0, 0)" stroke="rgb(204, 204, 204)" stroke-width="1px"></line><line x1="193.84615384615384" y1="0" x2="193.84615384615384" y2="5" style="visibility: inherit;" fill="rgb(0, 0, 0)" stroke="rgb(204, 204, 204)" stroke-width="1px"></line><line x1="215.3846153846154" y1="0" x2="215.3846153846154" y2="5" style="visibility: inherit;" fill="rgb(0, 0, 0)" stroke="rgb(204, 204, 204)" stroke-width="1px"></line><line x1="236.92307692307693" y1="0" x2="236.92307692307693" y2="5" style="visibility: inherit;" fill="rgb(0, 0, 0)" stroke="rgb(204, 204, 204)" stroke-width="1px"></line><line x1="258.46153846153845" y1="0" x2="258.46153846153845" y2="5" style="visibility: inherit;" fill="rgb(0, 0, 0)" stroke="rgb(204, 204, 204)" stroke-width="1px"></line><line x1="280" y1="0" x2="280" y2="5" style="visibility: inherit;" fill="rgb(0, 0, 0)" stroke="rgb(204, 204, 204)" stroke-width="1px"></line></g><g transform="translate(0, 8)"><text x="0" y="0" dx="0em" dy="0.95em" style="text-anchor: middle; visibility: hidden; font-family: &quot;Helvetica Neue&quot;, sans-serif; font-size: 12px; font-weight: 200;" fill="rgb(50, 49, 63)" stroke="none" stroke-width="1px">-200</text><text x="21.53846153846154" y="0" dx="0em" dy="0.95em" style="text-anchor: middle; visibility: inherit; font-family: &quot;Helvetica Neue&quot;, sans-serif; font-size: 12px; font-weight: 200;" fill="rgb(50, 49, 63)" stroke="none" stroke-width="1px">0</text><text x="43.07692307692308" y="0" dx="0em" dy="0.95em" style="text-anchor: middle; visibility: hidden; font-family: &quot;Helvetica Neue&quot;, sans-serif; font-size: 12px; font-weight: 200;" fill="rgb(50, 49, 63)" stroke="none" stroke-width="1px">200</text><text x="64.61538461538461" y="0" dx="0em" dy="0.95em" style="text-anchor: middle; visibility: inherit; font-family: &quot;Helvetica Neue&quot;, sans-serif; font-size: 12px; font-weight: 200;" fill="rgb(50, 49, 63)" stroke="none" stroke-width="1px">400</text><text x="86.15384615384616" y="0" dx="0em" dy="0.95em" style="text-anchor: middle; visibility: hidden; font-family: &quot;Helvetica Neue&quot;, sans-serif; font-size: 12px; font-weight: 200;" fill="rgb(50, 49, 63)" stroke="none" stroke-width="1px">600</text><text x="107.6923076923077" y="0" dx="0em" dy="0.95em" style="text-anchor: middle; visibility: inherit; font-family: &quot;Helvetica Neue&quot;, sans-serif; font-size: 12px; font-weight: 200;" fill="rgb(50, 49, 63)" stroke="none" stroke-width="1px">800</text><text x="129.23076923076923" y="0" dx="0em" dy="0.95em" style="text-anchor: middle; visibility: hidden; font-family: &quot;Helvetica Neue&quot;, sans-serif; font-size: 12px; font-weight: 200;" fill="rgb(50, 49, 63)" stroke="none" stroke-width="1px">1k</text><text x="150.76923076923077" y="0" dx="0em" dy="0.95em" style="text-anchor: middle; visibility: inherit; font-family: &quot;Helvetica Neue&quot;, sans-serif; font-size: 12px; font-weight: 200;" fill="rgb(50, 49, 63)" stroke="none" stroke-width="1px">1.2k</text><text x="172.30769230769232" y="0" dx="0em" dy="0.95em" style="text-anchor: middle; visibility: hidden; font-family: &quot;Helvetica Neue&quot;, sans-serif; font-size: 12px; font-weight: 200;" fill="rgb(50, 49, 63)" stroke="none" stroke-width="1px">1.4k</text><text x="193.84615384615384" y="0" dx="0em" dy="0.95em" style="text-anchor: middle; visibility: inherit; font-family: &quot;Helvetica Neue&quot;, sans-serif; font-size: 12px; font-weight: 200;" fill="rgb(50, 49, 63)" stroke="none" stroke-width="1px">1.6k</text><text x="215.3846153846154" y="0" dx="0em" dy="0.95em" style="text-anchor: middle; visibility: hidden; font-family: &quot;Helvetica Neue&quot;, sans-serif; font-size: 12px; font-weight: 200;" fill="rgb(50, 49, 63)" stroke="none" stroke-width="1px">1.8k</text><text x="236.92307692307693" y="0" dx="0em" dy="0.95em" style="text-anchor: middle; visibility: inherit; font-family: &quot;Helvetica Neue&quot;, sans-serif; font-size: 12px; font-weight: 200;" fill="rgb(50, 49, 63)" stroke="none" stroke-width="1px">2k</text><text x="258.46153846153845" y="0" dx="0em" dy="0.95em" style="text-anchor: middle; visibility: hidden; font-family: &quot;Helvetica Neue&quot;, sans-serif; font-size: 12px; font-weight: 200;" fill="rgb(50, 49, 63)" stroke="none" stroke-width="1px">2.2k</text><text x="280" y="0" dx="0em" dy="0.95em" style="text-anchor: middle; visibility: hidden; font-family: &quot;Helvetica Neue&quot;, sans-serif; font-size: 12px; font-weight: 200;" fill="rgb(50, 49, 63)" stroke="none" stroke-width="1px">2.4k</text></g><line x1="0" y1="0" x2="280" y2="0" fill="rgb(0, 0, 0)" stroke="rgb(204, 204, 204)" stroke-width="1px"></line></g></g></g></g></svg>