<svg viewBox="0 0 330 200" xmlns="http://www.w3.org/2000/svg"><g><g><g><g><g><line x1="50" y1="178" x2="45" y2="178" style="visibility: inherit;" fill="rgb(0, 0, 0)" stroke="rgb(204, 204, 204)" stroke-width="1px"></line><line x1="50" y1="160.2" x2="45" y2="160.2" style="visibility: inherit;" fill="rgb(0, 0, 0)" stroke="rgb(204, 204, 204)" stroke-width="1px"></line><line x1="50" y1="142.4" x2="45" y2="142.4" style="visibility: inherit;" fill="rgb(0, 0, 0)" stroke="rgb(204, 204, 204)" stroke-width="1px"></line><line x1="50" y1="124.6" x2="45" y2="124.6" style="visibility: inherit;" fill="rgb(0, 0, 0)" stroke="rgb(204, 204, 204)" stroke-width="1px"></line><line x1="50" y1="106.8" x2="45" y2="106.8" style="visibility: inherit;" fill="rgb(0, 0, 0)" stroke="rgb(204, 204, 204)" stroke-width="1px"></line><line x1="50" y1="89" x2="45" y2="89" style="visibility: inherit;" fill="rgb(0, 0, 0)" stroke="rgb(204, 204, 204)" stroke-width="1px"></line><line x1="50" y1="71.2" x2="45" y2="71.2" style="visibility: inherit;" fill="rgb(0, 0, 0)" stroke="rgb(204, 204, 204)" stroke-width="1px"></line><line x1="50" y1="53.400000000000006" x2="45" y2="53.400000000000006" style="visibility: inherit;" fill="rgb(0, 0, 0)" stroke="rgb(204, 204, 204)" stroke-width="1px"></line><line x1="50" y1="35.599999999999994" x2="45" y2="35.599999999999994" style="visibility: inherit;" fill="rgb(0, 0, 0)" stroke="rgb(204, 204, 204)" stroke-width="1px"></line><line x1="50" y1="17.799999999999983" x2="45" y2="17.799999999999983" style="visibility: inherit;" fill="rgb(0, 0, 0)" stroke="rgb(204, 204, 204)" stroke-width="1px"></line><line x1="50" y1="0" x2="45" y2="0" style="visibility: inherit;" fill="rgb(0, 0, 0)" stroke="rgb(204, 204, 204)" stroke-width="1px"></line></g><g transform="translate(40, 0)"><text x="0" y="178" dx="0em" dy="0.3em" style="text-anchor: end; visibility: hidden; font-family: &quot;Helvetica Neue&quot;, sans-serif; font-size: 12px; font-weight: 200;" fill="rgb(50, 49, 63)" stroke="none" stroke-width="1px">-0.5</text><text x="0" y="160.2" dx="0em" dy="0.3em" style="text-anchor: end; visibility: inherit; font-family: &quot;Helvetica Neue&quot;, sans-serif; font-size: 12px; font-weight: 200;" fill="rgb(50, 49, 63)" stroke="none" stroke-width="1px">0</text><text x="0" y="142.4" dx="0em" dy="0.3em" style="text-anchor: end; visibility: hidden; font-family: &quot;Helvetica Neue&quot;, sans-serif; font-size: 12px; font-weight: 200;" fill="rgb(50, 49, 63)" stroke="none" stroke-width="1px">0.5</text><text x="0" y="124.6" dx="0em" dy="0.3em" style="text-anchor: end; visibility: inherit; font-family: &quot;Helvetica Neue&quot;, sans-serif; font-size: 12px; font-weight: 200;" fill="rgb(50, 49, 63)" stroke="none" stroke-width="1px">1</text><text x="0" y="106.8" dx="0em" dy="0.3em" style="text-anchor: end; visibility: hidden; font-family: &quot;Helvetica Neue&quot;, sans-serif; font-size: 12px; font-weight: 200;" fill="rgb(50, 49, 63)" stroke="none" stroke-width="1px">1.5</text><text x="0" y="89" dx="0em" dy="0.3em" style="text-anchor: end; visibility: inherit; font-family: &quot;Helvetica Neue&quot;, sans-serif; font-size: 12px; font-weight: 200;" fill="rgb(50, 49, 63)" stroke="none" stroke-width="1px">2</text><text x="0" y="71.2" dx="0em" dy="0.3em" style="text-anchor: end; visibility: hidden; font-family: &quot;Helvetica Neue&quot;, sans-serif; font-size: 12px; font-weight: 200;" fill="rgb(50, 49, 63)" stroke="none" stroke-width="1px">2.5</text><text x="0" y="53.400000000000006" dx="0em" dy="0.3em" style="text-anchor: end; visibility: inherit; font-family: &quot;Helvetica Neue&quot;, sans-serif; font-size: 12px; font-weight: 200;" fill="rgb(50, 49, 63)" stroke="none" stroke-width="1px">3</text><text x="0" y="35.599999999999994" dx="0em" dy="0.3em" style="text-anchor: end; visibility: hidden; font-family: &quot;Helvetica Neue&quot;, sans-serif; font-size: 12px; font-weight: 200;" fill="rgb(50, 49, 63)" stroke="none" stroke-width="1px">3.5</text><text x="0" y="17.799999999999983" dx="0em" dy="0.3em" style="text-anchor: end; visibility: inherit; font-family: &quot;Helvetica Neue&quot;, sans-serif; font-size: 12px; font-weight: 200;" fill="rgb(50, 49, 63)" stroke="none" stroke-width="1px">4</text><text x="0" y="0" dx="0em" dy="0.3em" style="text-anchor: end; visibility: hidden; font-family: &quot;Helvetica Neue&quot;, sans-serif; font-size: 12px; font-weight: 200;" fill="rgb(50, 49, 63)" stroke="none" stroke-width="1px">4.5</text></g><line x1="50" y1="0" x2="50" y2="178" fill="rgb(0, 0, 0)" stroke="rgb(204, 204, 204)" stroke-width="1px"></line></g></g><g transform="translate(50, 0)" clip-path="url(#clip_0)"><clipPath id="clip_0"><rect width="280" height="178"></rect></clipPath><g><g><g><line x1="0" y1="0" x2="0" y2="178" fill="rgb(0, 0, 0)" stroke="rgb(60, 60, 60)" stroke-width="1px" opacity="0.25"></line><line x1="21.53846153846154" y1="0" x2="21.53846153846154" y2="178" fill="rgb(0, 0, 0)" stroke="rgb(60, 60, 60)" stroke-width="1px" opacity="0.25"></line><line x1="43.07692307692308" y1="0" x2="43.07692307692308" y2="178" fill="rgb(0, 0, 0)" stroke="rgb(60, 60, 60)" stroke-width="1px" opacity="0.25"></line><line x1="64.61538461538461" y1="0" x2="64.61538461538461" y2="178" fill="rgb(0, 0, 0)" stroke="rgb(60, 60, 60)" stroke-width="1px" opacity="0.25"></line><line x1="86.15384615384616" y1="0" x2="86.15384615384616" y2="178" fill="rgb(0, 0, 0)" stroke="rgb(60, 60, 60)" stroke-width="1px" opacity="0.25"></line><line x1="107.6923076923077" y1="0" x2="107.6923076923077" y2="178" fill="rgb(0, 0, 0)" stroke="rgb(60, 60, 60)" stroke-width="1px" opacity="0.25"></line><line x1="129.23076923076923" y1="0" x2="129.23076923076923" y2="178" fill="rgb(0, 0, 0)" stroke="rgb(60, 60, 60)" stroke-width="1px" opacity="0.25"></line><line x1="150.76923076923077" y1="0" x2="150.76923076923077" y2="178" fill="rgb(0, 0, 0)" stroke="rgb(60, 60, 60)" stroke-width="1px" opacity="0.25"></line><line x1="172.30769230769232" y1="0" x2="172.30769230769232" y2="178" fill="rgb(0, 0, 0)" stroke="rgb(60, 60, 60)" stroke-width="1px" opacity="0.25"></line><line x1="193.84615384615384" y1="0" x2="193.84615384615384" y2="178" fill="rgb(0, 0, 0)" stroke="rgb(60, 60, 60)" stroke-width="1px" opacity="0.25"></line><line x1="215.3846153846154" y1="0" x2="215.3846153846154" y2="178" fill="rgb(0, 0, 0)" stroke="rgb(60, 60, 60)" stroke-width="1px" opacity="0.25"></line><line x1="236.92307692307693" y1="0" x2="236.92307692307693" y2="178" fill="rgb(0, 0, 0)" stroke="rgb(60, 60, 60)" stroke-width="1px" opacity="0.25"></line><line x1="258.46153846153845" y1="0" x2="258.46153846153845" y2="178" fill="rgb(0, 0, 0)" stroke="rgb(60, 60, 60)" stroke-width="1px" opacity="0.25"></line><line x1="280" y1="0" x2="280" y2="178" fill="rgb(0, 0, 0)" stroke="rgb(60, 60, 60)" stroke-width="1px" opacity="0.25"></line></g><g><line x1="0" y1="178" x2="280" y2="178" fill="rgb(0, 0, 0)" stroke="rgb(60, 60, 60)" stroke-width="1px" opacity="0.25"></line><line x1="0" y1="160.2" x2="280" y2="160.2" fill="rgb(0, 0, 0)" stroke="rgb(60, 60, 60)" stroke-width="1px" opacity="0.25"></line><line x1="0" y1="142.4" x2="280" y2="142.4" fill="rgb(0, 0, 0)" stroke="rgb(60, 60, 60)" stroke-width="1px" opacity="0.25"></line><line x1="0" y1="124.6" x2="280" y2="124.6" fill="rgb(0, 0, 0)" stroke="rgb(60, 60, 60)" stroke-width="1px" opacity="0.25"></line><line x1="0" y1="106.8" x2="280" y2="106.8" fill="rgb(0, 0, 0)" stroke="rgb(60, 60, 60)" stroke-width="1px" opacity="0.25"></line><line x1="0" y1="89" x2="280" y2="89" fill="rgb(0, 0, 0)" stroke="rgb(60, 60, 60)" stroke-width="1px" opacity="0.25"></line><line x1="0" y1="71.2" x2="280" y2="71.2" fill="rgb(0, 0, 0)" stroke="rgb(60, 60, 60)" stroke-width="1px" opacity="0.25"></line><line x1="0" y1="53.400000000000006" x2="280" y2="53.400000000000006" fill="rgb(0, 0, 0)" stroke="rgb(60, 60, 60)" stroke-width="1px" opacity="0.25"></line><line x1="0" y1="35.599999999999994" x2="280" y2="35.599999999999994" fill="rgb(0, 0, 0)" stroke="rgb(60, 60, 60)" stroke-width="1px" opacity="0.25"></line><line x1="0" y1="17.799999999999983" x2="280" y2="17.799999999999983" fill="rgb(0, 0, 0)" stroke="rgb(60, 60, 60)" stroke-width="1px" opacity="0.25"></line><line x1="0" y1="0" x2="280" y2="0" fill="rgb(0, 0, 0)" stroke="rgb(60, 60, 60)" stroke-width="1px" opacity="0.25"></line></g></g></g><g><g><line x1="0" y1="160.2" x2="280" y2="160.2" fill="rgb(0, 0, 0)" stroke="rgb(153, 153, 153)" stroke-width="1.5px"></line></g></g><g><g><line x1="21.53846153846154" y1="0" x2="21.53846153846154" y2="178" fill="rgb(0, 0, 0)" stroke="rgb(153, 153, 153)" stroke-width="1.5px"></line></g></g><g><g><g><g><g><path style="fill: none;" stroke="rgb(51, 187, 238)" stroke-width="2px" d="M30.153846153846157,-1.4781754674005754L31.230769230769234,8.353001374147311L32.30769230769231,19.777576988704453L33.38461538461539,28.37303713319335L34.46153846153847,36.692158339397736L35.53846153846153,42.58071648410791L36.61538461538462,47.28607554377879L37.69230769230769,52.428578058391395L38.769230769230774,56.58370093854383L39.84615384615385,61.520521232427214L40.92307692307693,65.98344337400856L42,69.13632197446125L43.07692307692308,71.83546268631517L44.15384615384615,75.7694008757826L45.23076923076923,78.7770974825935L46.30769230769231,82.03282359719267L47.38461538461539,84.36051930914398L48.46153846153846,86.28279757689086L49.53846153846154,88.5257768083194L50.61538461538461,90.28698817252057L51.69230769230769,92.67467491568367L52.76923076923077,94.81697623020894L53.84615384615385,96.18861636259473L54.92307692307692,97.33170308500257L56,99.36058885920605L57.07692307692307,100.87534892813375L58.15384615384616,102.67194641933482L59.23076923076923,103.9022749942393L60.307692307692314,104.96133009648061L61.38461538461539,106.19915726705888L62.46153846153847,107.1745399275497L63.53846153846154,108.63288021075657L64.61538461538461,109.9192238540379L65.6923076923077,110.63586529661764L66.76923076923077,111.20833428143864L67.84615384615384,112.46542751714772L68.92307692307693,113.35710610318318L70,114.54001894855153L71.07692307692307,115.27645197328539L72.15384615384615,115.93181663125898L73.23076923076924,116.72124760457501L74.3076923076923,117.33118791145024L75.38461538461539,118.33436881632025L76.46153846153845,119.19245572269293L77.53846153846155,119.58896910100162L78.61538461538461,119.86533535336864L79.6923076923077,120.73704277605657L80.76923076923076,121.29658380352006L81.84615384615385,122.13984575838325L82.92307692307692,122.59302764363102L84,123.01819975184542L85.07692307692307,123.54012335285252L86.15384615384616,123.92821933712719L87.23076923076923,124.65862324117742L88.3076923076923,125.28189420364768L89.38461538461537,125.4650424616706L90.46153846153847,125.57260416812176L91.53846153846153,126.20558430561778L92.61538461538461,126.56491637689008L93.69230769230768,127.19031975302156L94.76923076923077,127.49213776592333L95.84615384615385,127.78927394690271L96.92307692307692,128.17465914843902L98,128.46141412682437L99.07692307692308,129.03867642449893L100.15384615384616,129.51127212316192L101.23076923076923,129.60104314642993L102.3076923076923,129.60957053015363L103.38461538461539,130.08325428056884L104.46153846153847,130.3181929171488L105.53846153846153,130.82363509001718L106.61538461538461,131.0314653439761L107.6923076923077,131.26394740801433L108.76923076923077,131.58406437603512L109.84615384615384,131.7747344432908L110.92307692307692,132.24735481730454L112,132.64601629484298L113.07692307692308,132.64530719802644L114.15384615384615,132.57733126363078L115.23076923076923,132.9650171453279L116.30769230769232,133.1222037242813L117.38461538461539,133.53316367032699L118.46153846153847,133.68162899164713L119.53846153846153,133.86873486477822L120.61538461538463,134.13309343353058L121.6923076923077,134.27636056079405L122.76923076923077,134.6675778471462L123.84615384615384,135.0044803460711L124.92307692307693,134.97535975686392L126,134.87429577119892L127.07692307692308,135.17833928450656L128.15384615384616,135.27828908206146L129.23076923076923,135.62276783858334L130.30769230769232,135.71298573125026L131.3846153846154,135.8712159431988L132.46153846153845,136.08393283054144L133.53846153846155,136.21239465175836L134.6153846153846,136.5541547900197L135.69230769230768,136.8331187805971L136.76923076923077,136.77446674700897L137.84615384615387,136.6398112144604L138.92307692307693,136.89463712545862L140,136.9494260194104L141.07692307692307,137.26560715915485L142.15384615384613,137.31857114168088L143.23076923076923,137.46188512034172L144.3076923076923,137.6560010962277L145.3846153846154,137.75670287792772L146.46153846153848,138.05670173634476L147.53846153846155,138.29740308341056L148.6153846153846,138.20366751868266L149.69230769230768,138.05337658335924L150.76923076923077,138.2667970136462L151.84615384615384,138.27653562694087L152.9230769230769,138.544106870915L154,138.5593685306628L155.0769230769231,138.67004158460875L156.15384615384616,138.82611825473987L157.23076923076923,138.89551033999876L158.3076923076923,139.14852986159985L159.3846153846154,139.36846423887093L160.46153846153845,139.24281834377126L161.53846153846152,139.07759906399352L162.61538461538464,139.2696941291799L163.6923076923077,139.2630811972027L164.76923076923077,139.50294636593583L165.84615384615384,139.50396136179558L166.92307692307693,139.60805121791637L168,139.75931001841678L169.07692307692307,139.81036987098304L170.15384615384613,140.054407586104L171.23076923076925,140.25193631845502L172.30769230769232,140.12843902496164L173.3846153846154,139.95300141410436L174.46153846153845,140.12073278729991L175.53846153846155,140.10471907104363L176.6153846153846,140.337308975276L177.69230769230768,140.33006240487265L178.76923076923075,140.42863941493624L179.84615384615387,140.58001521885103L180.92307692307693,140.6162802078743L182,140.84004775541L183.07692307692307,141.03231256200777L184.15384615384616,140.9015277685576L185.23076923076923,140.72334409634396L186.3076923076923,140.87163541594677L187.38461538461536,140.84515492692958L188.46153846153848,141.04535769145394L189.53846153846155,141.02993152140905L190.6153846153846,141.1350036706134L191.6923076923077,141.28047706913023L192.76923076923077,141.31804174121186L193.84615384615384,141.5266102533911L194.9230769230769,141.70536405845195L196,141.57640893953678L197.0769230769231,141.39619459368677L198.15384615384616,141.52768475872384L199.23076923076923,141.49303212933336L200.30769230769232,141.68334013059774L201.3846153846154,141.65674635848632L202.46153846153845,141.75408749191456L203.53846153846152,141.88686500472778L204.6153846153846,141.9313882644597L205.6923076923077,142.128532465431L206.76923076923077,142.30124210518156L207.84615384615387,142.16456273659404L208.92307692307693,141.98195877966756L210,142.10304722484943L211.07692307692307,142.0577733271598L212.15384615384613,142.2435495172473L213.23076923076923,142.2008792735026L214.3076923076923,142.2899962810318L215.3846153846154,142.40191884977878L216.46153846153848,142.41771653847408L217.53846153846155,142.58935204601767L218.6153846153846,142.74971346813993L219.69230769230768,142.59203230863426L220.76923076923077,142.40834120302884L221.84615384615384,142.52743027485832L222.9230769230769,142.4689593559744L224,142.62394473783067L225.0769230769231,142.57882555729333L226.15384615384616,142.66217302169346L227.23076923076923,142.77304993493686L228.3076923076923,142.79914223142032L229.3846153846154,142.97020626712003L230.46153846153845,143.12965030158765L231.53846153846152,142.9868862022026L232.61538461538464,142.8077587499913L233.6923076923077,142.9211351501709L234.76923076923077,142.86510656402865L235.84615384615384,143.01958979491593L236.92307692307693,142.97308019565637L238,143.06394757612338L239.07692307692307,143.1824667509764L240.15384615384613,143.20723604047296L241.23076923076925,143.37579399762691L242.30769230769232,143.52949258689534L243.3846153846154,143.38448724460306L244.46153846153845,143.20768588224806L245.53846153846155,143.3123846739133L246.6153846153846,143.25514114167L247.69230769230768,143.40582056799425L248.76923076923075,143.35693040545675L249.84615384615387,143.44618203912384L250.92307692307693,143.56077491413816L252,143.5834024724627L253.07692307692307,143.73422546895418L254.15384615384616,143.8844099273134L255.23076923076923,143.74131738519426L256.3076923076923,143.56584016194444L257.38461538461536,143.663536812649" fill="none"></path></g></g></g></g><g opacity="0.2"><g><g><g><path style="fill: none;" stroke="rgb(51, 187, 238)" stroke-width="2px" d="M24.76923076923077,-15.071475601196283L25.846153846153847,22.13276786804201L26.923076923076923,45.95667629241942L28,72.77242307662964L29.07692307692308,85.58849573135376L30.153846153846157,72.50258207321167L31.230769230769234,80.54269304275513L32.30769230769231,111.18417363166809L33.38461538461539,102.567662858963L34.46153846153847,113.53532633781434L35.53846153846153,100.3899817943573L36.61538461538462,96.0981204032898L37.69230769230769,108.51986293792724L38.769230769230774,104.03182954788208L39.84615384615385,120.31805648803712L40.92307692307693,121.23750371932984L42,109.59432106018066L43.07692307692308,107.63947610855102L44.15384615384615,129.58608322143556L45.23076923076923,121.12011032104492L46.30769230769231,129.1106637239456L47.38461538461539,118.87128958702087L48.46153846153846,115.4577525138855L49.53846153846154,123.32338180541993L50.61538461538461,118.17918119430541L51.69230769230769,131.22775108814238L52.76923076923077,130.04414536952973L53.84615384615385,119.13399243354797L54.92307692307692,116.76595768928527L56,134.38624546527862L57.07692307692307,127.40590252876282L58.15384615384616,134.57159140110016L59.23076923076923,126.03171396255493L60.307692307692314,124.24477272033691L61.38461538461539,129.00070555210112L62.46153846153847,125.34043524265289L63.53846153846154,136.07852125167847L64.61538461538461,134.36897299289703L65.6923076923077,124.38597412109375L66.76923076923077,122.29088263511657L67.84615384615384,137.0095244884491L68.92307692307693,130.90799815654754L70,138.00306935310363L71.07692307692307,129.990931725502L72.15384615384615,129.11810319423677L73.23076923076924,132.71084959506987L74.3076923076923,129.76369473934173L75.38461538461539,138.90604195594787L76.46153846153845,136.89022347927093L77.53846153846155,127.81189050674439L78.61538461538461,125.62668933868409L79.6923076923077,139.00026180744172L80.76923076923076,133.07553429603576L81.84615384615385,139.97230520248414L82.92307692307692,132.21814489364624L84,132.08591923713684L85.07692307692307,134.71542611122132L86.15384615384616,132.26951882839202L87.23076923076923,140.41392455101013L88.3076923076923,138.77276382446288L89.38461538461537,129.44243948459626L90.46153846153847,127.91588182449341L91.53846153846153,140.0369751214981L92.61538461538461,134.43943576812745L93.69230769230768,140.93345675468444L94.76923076923077,134.14205429553985L95.84615384615385,134.35257263183593L96.92307692307692,136.7078164100647L98,134.8253885269165L99.07692307692308,141.87823553085326L100.15384615384616,140.04506602287293L101.23076923076923,131.60602247714996L102.3076923076923,129.80039343833923L103.38461538461539,140.70285439491272L104.46153846153847,135.59467771053315L105.53846153846153,142.19465491771697L106.61538461538461,135.71466834545134L107.6923076923077,136.51081261634826L108.76923076923077,138.81953318119048L109.84615384615384,136.09052710533143L110.92307692307692,142.95969388484954L112,141.69385507106782L113.07692307692308,132.6291936635971L114.15384615384615,131.0307876110077L115.23076923076923,141.7955462217331L116.30769230769232,136.70647535324096L117.38461538461539,142.9140427827835L118.46153846153847,137.07403950691224L119.53846153846153,138.14822177886964L120.61538461538463,140.1851215839386L121.6923076923077,137.5591307401657L122.76923076923077,143.63943145275115L123.84615384615384,142.73703707456588L124.92307692307693,134.30646319389342L126,132.55112590789795L127.07692307692308,142.17244896888732L128.15384615384616,137.5790832042694L129.23076923076923,143.55773202180862L130.30769230769232,137.7924427986145L131.3846153846154,139.5205197095871L132.46153846153845,140.99272849559785L133.53846153846155,139.17851626873016L134.6153846153846,144.44944568872452L135.69230769230768,143.2810011267662L136.76923076923077,135.41813776493072L137.84615384615387,133.5244360923767L138.92307692307693,142.79291797876357L140,138.21813497543334L141.07692307692307,144.5902301311493L142.15384615384613,138.54601700305938L143.23076923076923,140.78446576595306L144.3076923076923,142.15801351070405L145.3846153846154,140.09303426742554L146.46153846153848,145.019158244133L147.53846153846155,143.88546233177186L148.6153846153846,136.02685661315917L149.69230769230768,134.5621551990509L150.76923076923077,143.2259053349495L151.84615384615384,138.5028867483139L152.9230769230769,144.76478925943374L154,138.9142707824707L155.0769230769231,141.24430396556855L156.15384615384616,142.45730471611023L157.23076923076923,140.51030027866364L158.3076923076923,145.03766779899598L159.3846153846154,144.48856656551362L160.46153846153845,136.31719753742217L161.53846153846152,135.22981052398683L162.61538461538464,143.74418984651567L163.6923076923077,139.10901896953584L164.76923076923077,145.09202834367753L165.84615384615384,139.5276154279709L166.92307692307693,142.03418855667115L168,143.28537547588348L169.07692307692307,141.00081515312195L170.15384615384613,145.7448301911354L171.23076923076925,144.8584584712982L172.30769230769232,137.2480352640152L173.3846153846154,135.86068227291108L174.46153846153845,144.03373292684554L175.53846153846155,139.73109533786774L176.6153846153846,145.76453651189803L177.69230769230768,140.16095497608185L178.76923076923075,142.72927082777022L179.84615384615387,144.1132085800171L180.92307692307693,141.46279861927033L182,146.06379694938659L183.07692307692307,145.52100526094438L184.15384615384616,137.84793751239778L185.23076923076923,136.56276795864105L186.3076923076923,144.33447234630586L187.38461538461536,140.2267516374588L188.46153846153848,145.7210306763649L189.53846153846155,140.6696356534958L190.6153846153846,143.58923094272615L191.6923076923077,144.6785733103752L192.76923076923077,142.19555885791777L193.84615384615384,146.39906327724458L194.9230769230769,145.88151507377626L196,138.5635377407074L197.0769230769231,137.18552122116088L198.15384615384616,144.60006419420242L199.23076923076923,140.683309340477L200.30769230769232,146.1304211616516L201.3846153846154,141.0352837085724L202.46153846153845,144.02891191244126L203.53846153846152,144.98993614912033L204.6153846153846,142.9719533085823L205.6923076923077,146.73619583845138L206.76923076923077,146.33794864416123L207.84615384615387,138.96988644599915L208.92307692307693,137.71373846530915L210,144.93347171545028L211.07692307692307,140.99947409629823L212.15384615384613,146.58627014160157L213.23076923076923,141.203391122818L214.3076923076923,144.3733046412468L215.3846153846154,145.01841769218444L216.46153846153848,142.78703918457032L217.53846153846155,146.6019776940346L218.6153846153846,146.49884045124054L219.69230769230768,138.9054966211319L220.76923076923077,138.11362166404723L221.84615384615384,145.3117961525917L222.9230769230769,141.10185487270354L224,146.24770634174348L225.0769230769231,141.52386338710784L226.15384615384616,144.61100590229034L227.23076923076923,145.3656145453453L228.3076923076923,143.4092502951622L229.3846153846154,146.97019646167755L230.46153846153845,146.8579773783684L231.53846153846152,139.64855031967164L232.61538461538464,138.61906852722169L233.6923076923077,145.57234206199647L234.76923076923077,141.554913520813L235.84615384615384,146.6321196436882L236.92307692307693,141.88546068668364L238,145.18888680934907L239.07692307692307,145.9540700674057L240.15384615384613,143.7864776968956L241.23076923076925,147.31763521432876L242.30769230769232,147.1238662958145L243.3846153846154,139.99338653087617L244.46153846153845,139.072971701622L245.53846153846155,145.76091014146806L246.6153846153846,141.91641321182252L247.69230769230768,146.9297133088112L248.76923076923075,142.21354429721833L249.84615384615387,145.53350764513016L250.92307692307693,146.2407708287239L252,144.11259852647783L253.07692307692307,147.261577129364L254.15384615384616,147.39684562683107L255.23076923076923,140.39472749233246L256.3076923076923,139.46183149814607L257.38461538461536,145.94844696521758" fill="none"></path></g></g></g></g></g></g><g transform="translate(50, 178)" clip-path="url(#clip_1)"><clipPath id="clip_1"><rect width="280" height="22"></rect></clipPath><g><g><line x1="0" y1="0" x2="0" y2="5" style="visibility: inherit;" fill="rgb(0, 0, 0)" stroke="rgb(204, 204, 204)" stroke-width="1px"></line><line x1="21.53846153846154" y1="0" x2="21.53846153846154" y2="5" style="visibility: inherit;" fill="rgb(0, 0, 0)" stroke="rgb(204, 204, 204)" stroke-width="1px"></line><line x1="43.07692307692308" y1="0" x2="43.07692307692308" y2="5" style="visibility: inherit;" fill="rgb(0, 0, 0)" stroke="rgb(204, 204, 204)" stroke-width="1px"></line><line x1="64.61538461538461" y1="0" x2="64.61538461538461" y2="5" style="visibility: inherit;" fill="rgb(0, 0, 0)" stroke="rgb(204, 204, 204)" stroke-width="1px"></line><line x1="86.15384615384616" y1="0" x2="86.15384615384616" y2="5" style="visibility: inherit;" fill="rgb(0, 0, 0)" stroke="rgb(204, 204, 204)" stroke-width="1px"></line><line x1="107.6923076923077" y1="0" x2="107.6923076923077" y2="5" style="visibility: inherit;" fill="rgb(0, 0, 0)" stroke="rgb(204, 204, 204)" stroke-width="1px"></line><line x1="129.23076923076923" y1="0" x2="129.23076923076923" y2="5" style="visibility: inherit;" fill="rgb(0, 0, 0)" stroke="rgb(204, 204, 204)" stroke-width="1px"></line><line x1="150.76923076923077" y1="0" x2="150.76923076923077" y2="5" style="visibility: inherit;" fill="rgb(0, 0, 0)" stroke="rgb(204, 204, 204)" stroke-width="1px"></line><line x1="172.30769230769232" y1="0" x2="172.30769230769232" y2="5" style="visibility: inherit;" fill="rgb(0, 0, 0)" stroke="rgb(204, 204, 204)" stroke-width="1px"></line><line x1="193.84615384615384" y1="0" x2="193.84615384615384" y2="5" style="visibility: inherit;" fill="rgb(0, 0, 0)" stroke="rgb(204, 204, 204)" stroke-width="1px"></line><line x1="215.3846153846154" y1="0" x2="215.3846153846154" y2="5" style="visibility: inherit;" fill="rgb(0, 0, 0)" stroke="rgb(204, 204, 204)" stroke-width="1px"></line><line x1="236.92307692307693" y1="0" x2="236.92307692307693" y2="5" style="visibility: inherit;" fill="rgb(0, 0, 0)" stroke="rgb(204, 204, 204)" stroke-width="1px"></line><line x1="258.46153846153845" y1="0" x2="258.46153846153845" y2="5" style="visibility: inherit;" fill="rgb(0, 0, 0)" stroke="rgb(204, 204, 204)" stroke-width="1px"></line><line x1="280" y1="0" x2="280" y2="5" style="visibility: inherit;" fill="rgb(0, 0, 0)" stroke="rgb(204, 204, 204)" stroke-width="1px"></line></g><g transform="translate(0, 8)"><text x="0" y="0" dx="0em" dy="0.95em" style="text-anchor: middle; visibility: hidden; font-family: &quot;Helvetica Neue&quot;, sans-serif; font-size: 12px; font-weight: 200;" fill="rgb(50, 49, 63)" stroke="none" stroke-width="1px">-200</text><text x="21.53846153846154" y="0" dx="0em" dy="0.95em" style="text-anchor: middle; visibility: inherit; font-family: &quot;Helvetica Neue&quot;, sans-serif; font-size: 12px; font-weight: 200;" fill="rgb(50, 49, 63)" stroke="none" stroke-width="1px">0</text><text x="43.07692307692308" y="0" dx="0em" dy="0.95em" style="text-anchor: middle; visibility: hidden; font-family: &quot;Helvetica Neue&quot;, sans-serif; font-size: 12px; font-weight: 200;" fill="rgb(50, 49, 63)" stroke="none" stroke-width="1px">200</text><text x="64.61538461538461" y="0" dx="0em" dy="0.95em" style="text-anchor: middle; visibility: inherit; font-family: &quot;Helvetica Neue&quot;, sans-serif; font-size: 12px; font-weight: 200;" fill="rgb(50, 49, 63)" stroke="none" stroke-width="1px">400</text><text x="86.15384615384616" y="0" dx="0em" dy="0.95em" style="text-anchor: middle; visibility: hidden; font-family: &quot;Helvetica Neue&quot;, sans-serif; font-size: 12px; font-weight: 200;" fill="rgb(50, 49, 63)" stroke="none" stroke-width="1px">600</text><text x="107.6923076923077" y="0" dx="0em" dy="0.95em" style="text-anchor: middle; visibility: inherit; font-family: &quot;Helvetica Neue&quot;, sans-serif; font-size: 12px; font-weight: 200;" fill="rgb(50, 49, 63)" stroke="none" stroke-width="1px">800</text><text x="129.23076923076923" y="0" dx="0em" dy="0.95em" style="text-anchor: middle; visibility: hidden; font-family: &quot;Helvetica Neue&quot;, sans-serif; font-size: 12px; font-weight: 200;" fill="rgb(50, 49, 63)" stroke="none" stroke-width="1px">1k</text><text x="150.76923076923077" y="0" dx="0em" dy="0.95em" style="text-anchor: middle; visibility: inherit; font-family: &quot;Helvetica Neue&quot;, sans-serif; font-size: 12px; font-weight: 200;" fill="rgb(50, 49, 63)" stroke="none" stroke-width="1px">1.2k</text><text x="172.30769230769232" y="0" dx="0em" dy="0.95em" style="text-anchor: middle; visibility: hidden; font-family: &quot;Helvetica Neue&quot;, sans-serif; font-size: 12px; font-weight: 200;" fill="rgb(50, 49, 63)" stroke="none" stroke-width="1px">1.4k</text><text x="193.84615384615384" y="0" dx="0em" dy="0.95em" style="text-anchor: middle; visibility: inherit; font-family: &quot;Helvetica Neue&quot;, sans-serif; font-size: 12px; font-weight: 200;" fill="rgb(50, 49, 63)" stroke="none" stroke-width="1px">1.6k</text><text x="215.3846153846154" y="0" dx="0em" dy="0.95em" style="text-anchor: middle; visibility: hidden; font-family: &quot;Helvetica Neue&quot;, sans-serif; font-size: 12px; font-weight: 200;" fill="rgb(50, 49, 63)" stroke="none" stroke-width="1px">1.8k</text><text x="236.92307692307693" y="0" dx="0em" dy="0.95em" style="text-anchor: middle; visibility: inherit; font-family: &quot;Helvetica Neue&quot;, sans-serif; font-size: 12px; font-weight: 200;" fill="rgb(50, 49, 63)" stroke="none" stroke-width="1px">2k</text><text x="258.46153846153845" y="0" dx="0em" dy="0.95em" style="text-anchor: middle; visibility: hidden; font-family: &quot;Helvetica Neue&quot;, sans-serif; font-size: 12px; font-weight: 200;" fill="rgb(50, 49, 63)" stroke="none" stroke-width="1px">2.2k</text><text x="280" y="0" dx="0em" dy="0.95em" style="text-anchor: middle; visibility: hidden; font-family: &quot;Helvetica Neue&quot;, sans-serif; font-size: 12px; font-weight: 200;" fill="rgb(50, 49, 63)" stroke="none" stroke-width="1px">2.4k</text></g><line x1="0" y1="0" x2="280" y2="0" fill="rgb(0, 0, 0)" stroke="rgb(204, 204, 204)" stroke-width="1px"></line></g></g></g></g></svg>